STARTFONT 2.1
FONT -Daewoo-Mincho-Medium-R-Normal--24-170-100-100-C-240-KSC5601.1987-0
SIZE 24 100 100
FONTBOUNDINGBOX 24 24 0 -2
STARTPROPERTIES 19
FONTNAME_REGISTRY ""
FOUNDRY "Daewoo"
FAMILY_NAME "Mincho"
WEIGHT_NAME "Medium"
SLANT "R"
SETWIDTH_NAME "Normal"
ADD_STYLE_NAME ""
PIXEL_SIZE 24
POINT_SIZE 170
RESOLUTION_X 100
RESOLUTION_Y 100
SPACING "C"
AVERAGE_WIDTH 240
CHARSET_REGISTRY "KSC5601.1987"
CHARSET_ENCODING "0"
DEFAULT_CHAR 8481
FONT_DESCENT 2
FONT_ASCENT 22
COPYRIGHT "Copyright (c) 1987, 1988 Daewoo Electronics Co.,Ltd."
ENDPROPERTIES
CHARS 8224
STARTCHAR J2121
ENCODING 8481
SWIDTH 1059 0
DWIDTH 24 0
BBX 24 24 0 -2
BITMAP
000000
000000
000000
000000
000000
000000
000000
000000
000000
000000
000000
000000
000000
000000
000000
000000
000000
000000
000000
000000
000000
000000
000000
000000
ENDCHAR
STARTCHAR J2122
ENCODING 8482
SWIDTH 1059 0
DWIDTH 24 0
BBX 24 24 0 -2
BITMAP
000000
000020
000018
00000c
00000e
00000e
000006
000000
000000
000000
000000
000000
000000
000000
000000
000000
000000
000000
000000
000000
000000
000000
000000
000000
ENDCHAR
STARTCHAR J2123
ENCODING 8483
SWIDTH 1059 0
DWIDTH 24 0
BBX 24 24 0 -2
BITMAP
000000
00001c
000022
000022
00001c
000000
000000
000000
000000
000000
000000
000000
000000
000000
000000
000000
000000
000000
000000
000000
000000
000000
000000
000000
ENDCHAR
STARTCHAR J2124
ENCODING 8484
SWIDTH 1059 0
DWIDTH 24 0
BBX 24 24 0 -2
BITMAP
000000
000000
000000
000000
000000
000000
000000
000000
000000
001800
003c00
003c00
001800
000000
000000
000000
000000
000000
000000
000000
000000
000000
000000
000000
ENDCHAR
STARTCHAR J2125
ENCODING 8485
SWIDTH 1059 0
DWIDTH 24 0
BBX 24 24 0 -2
BITMAP
000000
000000
000000
000000
000000
000000
000000
000000
000000
030180
0783c0
0783c0
030180
000000
000000
000000
000000
000000
000000
000000
000000
000000
000000
000000
ENDCHAR
STARTCHAR J2126
ENCODING 8486
SWIDTH 1059 0
DWIDTH 24 0
BBX 24 24 0 -2
BITMAP
000000
000000
000000
000000
000000
000000
000000
000000
000000
0c1830
1e3c78
1e3c78
0c1830
000000
000000
000000
000000
000000
000000
000000
000000
000000
000000
000000
ENDCHAR
STARTCHAR J2127
ENCODING 8487
SWIDTH 1059 0
DWIDTH 24 0
BBX 24 24 0 -2
BITMAP
000000
030180
0783c0
0783c0
030180
000000
000000
000000
000000
000000
000000
000000
000000
000000
000000
000000
000000
000000
000000
000000
000000
000000
000000
000000
ENDCHAR
STARTCHAR J2128
ENCODING 8488
SWIDTH 1059 0
DWIDTH 24 0
BBX 24 24 0 -2
BITMAP
000000
000000
000000
000000
000000
000000
003060
0070e0
0070e0
00e1c0
00c180
01c380
018300
030600
030600
060c00
060c00
0c1800
000000
000000
000000
000000
000000
000000
ENDCHAR
STARTCHAR J2129
ENCODING 8489
SWIDTH 1059 0
DWIDTH 24 0
BBX 24 24 0 -2
BITMAP
000000
000000
000000
000000
000000
000000
000000
000000
000000
000000
000000
00fe00
000000
000000
000000
000000
000000
000000
000000
000000
000000
000000
000000
000000
ENDCHAR
STARTCHAR J212a
ENCODING 8490
SWIDTH 1059 0
DWIDTH 24 0
BBX 24 24 0 -2
BITMAP
000000
000000
000000
000000
000000
000000
000000
000000
000000
000000
000000
7ffffe
000000
000000
000000
000000
000000
000000
000000
000000
000000
000000
000000
000000
ENDCHAR
STARTCHAR J212b
ENCODING 8491
SWIDTH 1059 0
DWIDTH 24 0
BBX 24 24 0 -2
BITMAP
000000
006300
006300
006300
006300
006300
006300
006300
006300
006300
006300
006300
006300
006300
006300
006300
006300
006300
006300
006300
006300
006300
006300
000000
ENDCHAR
STARTCHAR J212c
ENCODING 8492
SWIDTH 1059 0
DWIDTH 24 0
BBX 24 24 0 -2
BITMAP
000000
300000
180000
0c0000
060000
030000
018000
018000
00c000
006000
003000
001800
000c00
000600
000300
000300
000180
0000c0
000060
000030
000018
00000c
000006
000000
ENDCHAR
STARTCHAR J212d
ENCODING 8493
SWIDTH 1059 0
DWIDTH 24 0
BBX 24 24 0 -2
BITMAP
000000
000000
000000
000000
000000
000000
000000
000000
000000
03e000
0e380c
180e38
0003e0
000000
000000
000000
000000
000000
000000
000000
000000
000000
000000
000000
ENDCHAR
STARTCHAR J212e
ENCODING 8494
SWIDTH 1059 0
DWIDTH 24 0
BBX 24 24 0 -2
BITMAP
000000
000002
000004
00000c
00000c
00000e
00000e
000004
000000
000000
000000
000000
000000
000000
000000
000000
000000
000000
000000
000000
000000
000000
000000
000000
ENDCHAR
STARTCHAR J212f
ENCODING 8495
SWIDTH 1059 0
DWIDTH 24 0
BBX 24 24 0 -2
BITMAP
000000
100000
380000
380000
180000
180000
100000
200000
000000
000000
000000
000000
000000
000000
000000
000000
000000
000000
000000
000000
000000
000000
000000
000000
ENDCHAR
STARTCHAR J2130
ENCODING 8496
SWIDTH 1059 0
DWIDTH 24 0
BBX 24 24 0 -2
BITMAP
000000
000084
000108
000318
000318
00039c
00039c
000108
000000
000000
000000
000000
000000
000000
000000
000000
000000
000000
000000
000000
000000
000000
000000
000000
ENDCHAR
STARTCHAR J2131
ENCODING 8497
SWIDTH 1059 0
DWIDTH 24 0
BBX 24 24 0 -2
BITMAP
000000
108000
39c000
39c000
18c000
18c000
318000
210000
000000
000000
000000
000000
000000
000000
000000
000000
000000
000000
000000
000000
000000
000000
000000
000000
ENDCHAR
STARTCHAR J2132
ENCODING 8498
SWIDTH 1059 0
DWIDTH 24 0
BBX 24 24 0 -2
BITMAP
000000
000006
00001c
000070
0000e0
0000c0
0000c0
0000c0
0000c0
0000c0
0000c0
0000c0
0000c0
0000c0
0000c0
0000c0
0000c0
0000c0
0000c0
0000e0
000070
00001c
000006
000000
ENDCHAR
STARTCHAR J2133
ENCODING 8499
SWIDTH 1059 0
DWIDTH 24 0
BBX 24 24 0 -2
BITMAP
000000
600000
380000
0e0000
070000
030000
030000
030000
030000
030000
030000
030000
030000
030000
030000
030000
030000
030000
030000
070000
0e0000
380000
600000
000000
ENDCHAR
STARTCHAR J2134
ENCODING 8500
SWIDTH 1059 0
DWIDTH 24 0
BBX 24 24 0 -2
BITMAP
000000
000006
00000c
000018
000030
000060
0000c0
000180
000300
000600
000c00
001800
001800
000c00
000600
000300
000180
0000c0
000060
000030
000018
00000c
000006
000000
ENDCHAR
STARTCHAR J2135
ENCODING 8501
SWIDTH 1059 0
DWIDTH 24 0
BBX 24 24 0 -2
BITMAP
000000
600000
300000
180000
0c0000
060000
030000
018000
00c000
006000
003000
001800
001800
003000
006000
00c000
018000
030000
060000
0c0000
180000
300000
600000
000000
ENDCHAR
STARTCHAR J2136
ENCODING 8502
SWIDTH 1059 0
DWIDTH 24 0
BBX 24 24 0 -2
BITMAP
000000
00018c
00018c
000318
000318
000630
000630
000c60
000c60
0018c0
0018c0
003180
003180
0018c0
0018c0
000c60
000c60
000630
000630
000318
000318
00018c
00018c
000000
ENDCHAR
STARTCHAR J2137
ENCODING 8503
SWIDTH 1059 0
DWIDTH 24 0
BBX 24 24 0 -2
BITMAP
000000
318000
318000
18c000
18c000
0c6000
0c6000
063000
063000
031800
031800
018c00
018c00
031800
031800
063000
063000
0c6000
0c6000
18c000
18c000
318000
318000
000000
ENDCHAR
STARTCHAR J2138
ENCODING 8504
SWIDTH 1059 0
DWIDTH 24 0
BBX 24 24 0 -2
BITMAP
000000
0003fc
000300
000300
000300
000300
000300
000300
000300
000300
000300
000300
000300
000300
000300
000300
000300
000300
000300
000300
000000
000000
000000
000000
ENDCHAR
STARTCHAR J2139
ENCODING 8505
SWIDTH 1059 0
DWIDTH 24 0
BBX 24 24 0 -2
BITMAP
000000
000000
000000
000000
000000
00c000
00c000
00c000
00c000
00c000
00c000
00c000
00c000
00c000
00c000
00c000
00c000
00c000
00c000
00c000
00c000
00c000
3fc000
000000
ENDCHAR
STARTCHAR J213a
ENCODING 8506
SWIDTH 1059 0
DWIDTH 24 0
BBX 24 24 0 -2
BITMAP
000000
000ffc
000c0c
000c0c
000cfc
000cc0
000cc0
000cc0
000cc0
000cc0
000cc0
000cc0
000cc0
000cc0
000cc0
000fc0
000fc0
000000
000000
000000
000000
000000
000000
000000
ENDCHAR
STARTCHAR J213b
ENCODING 8507
SWIDTH 1059 0
DWIDTH 24 0
BBX 24 24 0 -2
BITMAP
000000
000000
000000
000000
000000
000000
03f000
03f000
033000
033000
033000
033000
033000
033000
033000
033000
033000
033000
3f3000
303000
303000
3ff000
000000
000000
ENDCHAR
STARTCHAR J213c
ENCODING 8508
SWIDTH 1059 0
DWIDTH 24 0
BBX 24 24 0 -2
BITMAP
000000
0003fe
0003f8
0003f0
0003e0
0003e0
0003c0
0003c0
000380
000380
000380
000380
000380
000380
000380
000380
0003c0
0003c0
0003e0
0003e0
0003f0
0003f8
0003fe
000000
ENDCHAR
STARTCHAR J213d
ENCODING 8509
SWIDTH 1059 0
DWIDTH 24 0
BBX 24 24 0 -2
BITMAP
000000
7fc000
1fc000
0fc000
07c000
07c000
03c000
03c000
01c000
01c000
01c000
01c000
01c000
01c000
01c000
01c000
03c000
03c000
07c000
07c000
0fc000
1fc000
7fc000
000000
ENDCHAR
STARTCHAR J213e
ENCODING 8510
SWIDTH 1059 0
DWIDTH 24 0
BBX 24 24 0 -2
BITMAP
000000
000000
000000
001800
001800
001800
001800
001800
001800
0ffff0
001800
001800
001800
001800
001800
001800
000000
000000
0ffff0
000000
000000
000000
000000
000000
ENDCHAR
STARTCHAR J213f
ENCODING 8511
SWIDTH 1059 0
DWIDTH 24 0
BBX 24 24 0 -2
BITMAP
000000
000000
000000
000000
060030
030060
0180c0
00c180
006300
003600
001c00
001c00
003600
006300
00c180
0180c0
030060
060030
000000
000000
000000
000000
000000
000000
ENDCHAR
STARTCHAR J2140
ENCODING 8512
SWIDTH 1059 0
DWIDTH 24 0
BBX 24 24 0 -2
BITMAP
000000
000000
000000
000000
000000
001800
003c00
001800
000000
000000
000000
1ffff8
000000
000000
000000
001800
003c00
001800
000000
000000
000000
000000
000000
000000
ENDCHAR
STARTCHAR J2141
ENCODING 8513
SWIDTH 1059 0
DWIDTH 24 0
BBX 24 24 0 -2
BITMAP
000000
000000
000000
060000
030000
018000
018000
00c000
1ffff8
006000
003000
001800
1ffff8
000c00
000600
000300
000300
000180
0000c0
000000
000000
000000
000000
000000
ENDCHAR
STARTCHAR J2142
ENCODING 8514
SWIDTH 1059 0
DWIDTH 24 0
BBX 24 24 0 -2
BITMAP
000000
000000
000000
000000
000070
0001c0
000700
001c00
007000
01c000
070000
1c0000
070000
01e000
003c00
000780
0000f0
000000
000000
3ffffc
000000
000000
000000
000000
ENDCHAR
STARTCHAR J2143
ENCODING 8515
SWIDTH 1059 0
DWIDTH 24 0
BBX 24 24 0 -2
BITMAP
000000
000000
000000
000000
0e0000
038000
00e000
003800
000e00
000380
0000e0
000038
0000e0
000780
003c00
01e000
0f0000
000000
000000
3ffffc
000000
000000
000000
000000
ENDCHAR
STARTCHAR J2144
ENCODING 8516
SWIDTH 1059 0
DWIDTH 24 0
BBX 24 24 0 -2
BITMAP
000000
000000
000000
000000
000000
0f81f0
18c318
30660c
603c06
601806
601806
601806
601806
603c06
30660c
18c318
0f81f0
000000
000000
000000
000000
000000
000000
000000
ENDCHAR
STARTCHAR J2145
ENCODING 8517
SWIDTH 1059 0
DWIDTH 24 0
BBX 24 24 0 -2
BITMAP
000000
000000
000000
000000
001800
003c00
003c00
001800
000000
000000
000000
000000
000000
000000
060060
0f00f0
0f00f0
060060
000000
000000
000000
000000
000000
000000
ENDCHAR
STARTCHAR J2146
ENCODING 8518
SWIDTH 1059 0
DWIDTH 24 0
BBX 24 24 0 -2
BITMAP
000000
380000
440000
440000
380000
000000
000000
000000
000000
000000
000000
000000
000000
000000
000000
000000
000000
000000
000000
000000
000000
000000
000000
000000
ENDCHAR
STARTCHAR J2147
ENCODING 8519
SWIDTH 1059 0
DWIDTH 24 0
BBX 24 24 0 -2
BITMAP
000000
060000
0e0000
0c0000
180000
100000
200000
000000
000000
000000
000000
000000
000000
000000
000000
000000
000000
000000
000000
000000
000000
000000
000000
000000
ENDCHAR
STARTCHAR J2148
ENCODING 8520
SWIDTH 1059 0
DWIDTH 24 0
BBX 24 24 0 -2
BITMAP
000000
0c6000
1ce000
18c000
318000
210000
420000
000000
000000
000000
000000
000000
000000
000000
000000
000000
000000
000000
000000
000000
000000
000000
000000
000000
ENDCHAR
STARTCHAR J2149
ENCODING 8521
SWIDTH 1059 0
DWIDTH 24 0
BBX 24 24 0 -2
BITMAP
000000
000000
3c0000
660000
660f8c
3c3fec
00707c
00e01c
00e00c
01c004
01c000
01c000
01c000
01c000
01c000
01c000
00e006
00e00c
007838
003ff0
000fc0
000000
000000
000000
ENDCHAR
STARTCHAR J214a
ENCODING 8522
SWIDTH 1059 0
DWIDTH 24 0
BBX 24 24 0 -2
BITMAP
003c00
004200
004200
003c00
000000
001800
001c00
003c00
002e00
006e00
004700
00c700
008380
008380
0181c0
01ffc0
0301c0
0200e0
0600e0
040070
1f01fc
000000
000000
000000
ENDCHAR
STARTCHAR J214b
ENCODING 8523
SWIDTH 1059 0
DWIDTH 24 0
BBX 24 24 0 -2
BITMAP
000300
000300
000600
00fe60
03ff60
070de0
0e18e0
0e1860
1c3020
1c3000
1c6000
1c6000
1cc000
1cc000
1d8030
0f8060
0701c0
07ff80
06fe00
0c0000
180000
000000
000000
000000
ENDCHAR
STARTCHAR J214c
ENCODING 8524
SWIDTH 1059 0
DWIDTH 24 0
BBX 24 24 0 -2
BITMAP
000000
0003c0
000fe0
001870
003070
003020
003000
007000
007000
007000
03ff00
007000
007000
007000
006000
076000
0fc018
18c018
18f030
1fdfe0
0f0780
000000
000000
000000
ENDCHAR
STARTCHAR J214d
ENCODING 8525
SWIDTH 1059 0
DWIDTH 24 0
BBX 24 24 0 -2
BITMAP
000000
3f00fc
0c0030
060060
030060
0180c0
018180
00c180
006300
0ffff8
003e00
001c00
0ffff8
001c00
001c00
001c00
001c00
001c00
001c00
001c00
007f00
000000
000000
000000
ENDCHAR
STARTCHAR J214e
ENCODING 8526
SWIDTH 1059 0
DWIDTH 24 0
BBX 24 24 0 -2
BITMAP
000000
001800
003c00
007e00
00db00
019980
0318c0
061860
0c1830
001800
001800
001800
007e00
01c380
0300c0
060060
060060
060060
0300c0
01c380
007e00
000000
000000
000000
ENDCHAR
STARTCHAR J214f
ENCODING 8527
SWIDTH 1059 0
DWIDTH 24 0
BBX 24 24 0 -2
BITMAP
000000
007e00
01c380
0300c0
060060
060060
060060
0300c0
01c380
007e00
001800
001800
001800
3ffffc
001800
001800
001800
001800
001800
001800
001800
000000
000000
000000
ENDCHAR
STARTCHAR J2150
ENCODING 8528
SWIDTH 1059 0
DWIDTH 24 0
BBX 24 24 0 -2
BITMAP
000000
000000
000060
0000c0
000180
000300
000600
000c00
001800
003000
006000
00c000
018000
030000
060000
0c0000
180000
300000
7ffffc
000000
000000
000000
000000
000000
ENDCHAR
STARTCHAR J2151
ENCODING 8529
SWIDTH 1059 0
DWIDTH 24 0
BBX 24 24 0 -2
BITMAP
000000
000000
001800
001800
001800
001800
001800
001800
001800
001800
001800
001800
001800
001800
001800
001800
001800
001800
1ffff8
000000
000000
000000
000000
000000
ENDCHAR
STARTCHAR J2152
ENCODING 8530
SWIDTH 1059 0
DWIDTH 24 0
BBX 24 24 0 -2
BITMAP
000000
000000
000000
000000
000000
000000
00ff00
0381c0
0e0070
180018
30000c
600006
000000
000000
000000
000000
000000
000000
000000
000000
000000
000000
000000
000000
ENDCHAR
STARTCHAR J2153
ENCODING 8531
SWIDTH 1059 0
DWIDTH 24 0
BBX 24 24 0 -2
BITMAP
000000
000000
001f00
006180
00c0c0
0000c0
0000c0
0000c0
0000c0
003cc0
00c380
018180
018180
030180
030300
030300
030600
030600
018c00
00f800
000000
000000
000000
000000
ENDCHAR
STARTCHAR J2154
ENCODING 8532
SWIDTH 1059 0
DWIDTH 24 0
BBX 24 24 0 -2
BITMAP
000000
000000
1ffff8
0c0010
060030
060020
030060
030040
018040
0180c0
00c080
00c180
006100
006300
003200
003600
001400
001c00
000800
000800
000000
000000
000000
000000
ENDCHAR
STARTCHAR J2155
ENCODING 8533
SWIDTH 1059 0
DWIDTH 24 0
BBX 24 24 0 -2
BITMAP
000000
000000
000000
000000
000000
000000
1ffff8
000000
000000
000000
000000
1ffff8
000000
000000
000000
000000
1ffff8
000000
000000
000000
000000
000000
000000
000000
ENDCHAR
STARTCHAR J2156
ENCODING 8534
SWIDTH 1059 0
DWIDTH 24 0
BBX 24 24 0 -2
BITMAP
000000
000000
000000
020000
070000
020000
000000
000000
1ffff8
000000
000000
000000
000000
1ffff8
000000
000000
000040
0000e0
000040
000000
000000
000000
000000
000000
ENDCHAR
STARTCHAR J2157
ENCODING 8535
SWIDTH 1059 0
DWIDTH 24 0
BBX 24 24 0 -2
BITMAP
000000
007c00
01c700
030180
030380
030100
01c000
007800
00ce00
018300
030180
030180
018300
00e600
003c00
000700
010180
038180
030180
01c700
007c00
000000
000000
000000
ENDCHAR
STARTCHAR J2158
ENCODING 8536
SWIDTH 1059 0
DWIDTH 24 0
BBX 24 24 0 -2
BITMAP
000000
000000
001800
183c30
0c1860
0600c0
030180
018300
00c600
086c10
1c3838
1c3838
086c10
00c600
018300
030180
0600c0
0c1860
183c30
001800
000000
000000
000000
000000
ENDCHAR
STARTCHAR J2159
ENCODING 8537
SWIDTH 1059 0
DWIDTH 24 0
BBX 24 24 0 -2
BITMAP
000000
000000
000000
001000
001000
002800
006800
004400
00c600
3f83f8
180030
0c0060
0300c0
018300
018300
033900
026c80
058280
0601c0
080040
000000
000000
000000
000000
ENDCHAR
STARTCHAR J215a
ENCODING 8538
SWIDTH 1059 0
DWIDTH 24 0
BBX 24 24 0 -2
BITMAP
000000
000000
000000
001000
001000
003800
003800
007c00
007c00
3ffff8
1ffff0
07ffc0
01ff00
00fe00
01ff00
01ff00
03c780
038380
0600c0
0c0060
000000
000000
000000
000000
ENDCHAR
STARTCHAR J215b
ENCODING 8539
SWIDTH 1059 0
DWIDTH 24 0
BBX 24 24 0 -2
BITMAP
000000
000000
00ff00
0381c0
060060
0c0030
180018
180018
30000c
30000c
30000c
30000c
30000c
30000c
180018
180018
0c0030
060060
0381c0
00ff00
000000
000000
000000
000000
ENDCHAR
STARTCHAR J215c
ENCODING 8540
SWIDTH 1059 0
DWIDTH 24 0
BBX 24 24 0 -2
BITMAP
000000
000000
00ff00
03ffc0
07ffe0
0ffff0
1ffff8
1ffff8
3ffffc
3ffffc
3ffffc
3ffffc
3ffffc
3ffffc
1ffff8
1ffff8
0ffff0
07ffe0
03ffc0
00ff00
000000
000000
000000
000000
ENDCHAR
STARTCHAR J215d
ENCODING 8541
SWIDTH 1059 0
DWIDTH 24 0
BBX 24 24 0 -2
BITMAP
000000
000000
00ff00
0381c0
060060
0c0030
180018
187e18
30c30c
31818c
31818c
31818c
31818c
30c30c
187e18
180018
0c0030
060060
0381c0
00ff00
000000
000000
000000
000000
ENDCHAR
STARTCHAR J215e
ENCODING 8542
SWIDTH 1059 0
DWIDTH 24 0
BBX 24 24 0 -2
BITMAP
000000
001000
003800
006c00
00c600
018300
030180
0600c0
0c0060
180030
300018
300018
180030
0c0060
0600c0
030180
018300
00c600
006c00
003800
001000
000000
000000
000000
ENDCHAR
STARTCHAR J215f
ENCODING 8543
SWIDTH 1059 0
DWIDTH 24 0
BBX 24 24 0 -2
BITMAP
000000
001000
003800
007c00
00fe00
01ff00
03ff80
07ffc0
0fffe0
1ffff0
3ffff8
3ffff8
1ffff0
0fffe0
07ffc0
03ff80
01ff00
00fe00
007c00
003800
001000
000000
000000
000000
ENDCHAR
STARTCHAR J2160
ENCODING 8544
SWIDTH 1059 0
DWIDTH 24 0
BBX 24 24 0 -2
BITMAP
000000
000000
000000
0ffff0
080010
080010
080010
080010
080010
080010
080010
080010
080010
080010
080010
080010
080010
080010
0ffff0
000000
000000
000000
000000
000000
ENDCHAR
STARTCHAR J2161
ENCODING 8545
SWIDTH 1059 0
DWIDTH 24 0
BBX 24 24 0 -2
BITMAP
000000
000000
000000
0ffff0
0ffff0
0ffff0
0ffff0
0ffff0
0ffff0
0ffff0
0ffff0
0ffff0
0ffff0
0ffff0
0ffff0
0ffff0
0ffff0
0ffff0
0ffff0
000000
000000
000000
000000
000000
ENDCHAR
STARTCHAR J2162
ENCODING 8546
SWIDTH 1059 0
DWIDTH 24 0
BBX 24 24 0 -2
BITMAP
000000
000000
000000
001000
003800
003800
006c00
00c600
00c600
018300
018300
030180
0600c0
0600c0
0c0060
180030
180030
300018
7ffffc
000000
000000
000000
000000
000000
ENDCHAR
STARTCHAR J2163
ENCODING 8547
SWIDTH 1059 0
DWIDTH 24 0
BBX 24 24 0 -2
BITMAP
000000
000000
000000
001000
003800
003800
007c00
007c00
00fe00
01ff00
01ff00
03ff80
07ffc0
07ffc0
0fffe0
1ffff0
1ffff0
3ffff8
7ffffc
000000
000000
000000
000000
000000
ENDCHAR
STARTCHAR J2164
ENCODING 8548
SWIDTH 1059 0
DWIDTH 24 0
BBX 24 24 0 -2
BITMAP
000000
000000
000000
7ffffc
300018
180030
180030
0c0060
0600c0
0600c0
030180
018300
018300
00c600
00c600
006c00
003800
003800
001000
000000
000000
000000
000000
000000
ENDCHAR
STARTCHAR J2165
ENCODING 8549
SWIDTH 1059 0
DWIDTH 24 0
BBX 24 24 0 -2
BITMAP
000000
000000
000000
7ffffc
3ffff8
1ffff0
1ffff0
0fffe0
07ffc0
07ffc0
03ff80
01ff00
01ff00
00fe00
007c00
007c00
003800
003800
001000
000000
000000
000000
000000
000000
ENDCHAR
STARTCHAR J2166
ENCODING 8550
SWIDTH 1059 0
DWIDTH 24 0
BBX 24 24 0 -2
BITMAP
000000
000000
000000
000000
000000
000040
000020
000030
000018
00000c
7ffffe
7ffffe
00000c
000018
000030
000020
000040
000000
000000
000000
000000
000000
000000
000000
ENDCHAR
STARTCHAR J2167
ENCODING 8551
SWIDTH 1059 0
DWIDTH 24 0
BBX 24 24 0 -2
BITMAP
000000
000000
000000
000000
000000
020000
040000
0c0000
180000
300000
7ffffe
7ffffe
300000
180000
0c0000
040000
020000
000000
000000
000000
000000
000000
000000
000000
ENDCHAR
STARTCHAR J2168
ENCODING 8552
SWIDTH 1059 0
DWIDTH 24 0
BBX 24 24 0 -2
BITMAP
000000
001800
003c00
007e00
00db00
019980
021840
001800
001800
001800
001800
001800
001800
001800
001800
001800
001800
001800
001800
001800
001800
000000
000000
000000
ENDCHAR
STARTCHAR J2169
ENCODING 8553
SWIDTH 1059 0
DWIDTH 24 0
BBX 24 24 0 -2
BITMAP
000000
001800
001800
001800
001800
001800
001800
001800
001800
001800
001800
001800
001800
001800
001800
021840
019980
00db00
007e00
003c00
001800
000000
000000
000000
ENDCHAR
STARTCHAR J216a
ENCODING 8554
SWIDTH 1059 0
DWIDTH 24 0
BBX 24 24 0 -2
BITMAP
000000
000000
000000
000000
000000
020040
040020
0c0030
180018
30000c
7ffffe
7ffffe
30000c
180018
0c0030
040020
020040
000000
000000
000000
000000
000000
000000
000000
ENDCHAR
STARTCHAR J216b
ENCODING 8555
SWIDTH 1059 0
DWIDTH 24 0
BBX 24 24 0 -2
BITMAP
000000
000000
000000
000000
000000
000000
000000
3ffffc
3ffffc
000000
000000
000000
000000
000000
3ffffc
3ffffc
000000
000000
000000
000000
000000
000000
000000
000000
ENDCHAR
STARTCHAR J216c
ENCODING 8556
SWIDTH 1059 0
DWIDTH 24 0
BBX 24 24 0 -2
BITMAP
000000
000060
0000c6
00018c
000318
000630
000c60
0018c0
003180
006300
00c600
018c00
018c00
00c600
006300
003180
0018c0
000c60
000630
000318
00018c
0000c6
000060
000000
ENDCHAR
STARTCHAR J216d
ENCODING 8557
SWIDTH 1059 0
DWIDTH 24 0
BBX 24 24 0 -2
BITMAP
000000
060000
630000
318000
18c000
0c6000
063000
031800
018c00
00c600
006300
003180
003180
006300
00c600
018c00
031800
063000
0c6000
18c000
318000
630000
060000
000000
ENDCHAR
STARTCHAR J216e
ENCODING 8558
SWIDTH 1059 0
DWIDTH 24 0
BBX 24 24 0 -2
BITMAP
000000
0007fc
000c00
000800
000800
001800
001000
003000
002000
002000
006000
104000
30c000
308000
588000
198000
0d0000
0d0000
0f0000
060000
060000
000000
000000
000000
ENDCHAR
STARTCHAR J216f
ENCODING 8559
SWIDTH 1059 0
DWIDTH 24 0
BBX 24 24 0 -2
BITMAP
000000
000000
000000
000000
000000
0f81f0
18c318
30060c
600c06
600c06
601806
601806
603006
60300c
30600c
18c318
0f81f0
000000
000000
000000
000000
000000
000000
000000
ENDCHAR
STARTCHAR J2170
ENCODING 8560
SWIDTH 1059 0
DWIDTH 24 0
BBX 24 24 0 -2
BITMAP
000000
000000
000000
000000
000000
0f81f8
18c30c
306606
602c00
603c00
601800
600800
602c00
602c00
306606
18c30c
0f81f0
000000
000000
000000
000000
000000
000000
000000
ENDCHAR
STARTCHAR J2171
ENCODING 8561
SWIDTH 1059 0
DWIDTH 24 0
BBX 24 24 0 -2
BITMAP
000000
000000
000000
000000
0c0030
1e0078
1e0078
0c0030
000000
000000
000000
000000
000000
000000
000000
001800
003c00
003c00
001800
000000
000000
000000
000000
000000
ENDCHAR
STARTCHAR J2172
ENCODING 8562
SWIDTH 1059 0
DWIDTH 24 0
BBX 24 24 0 -2
BITMAP
000000
000c00
001e00
002600
002000
002000
003000
003000
003000
003800
001800
001800
001800
000c00
000c00
000c00
000400
000400
006400
007800
003000
000000
000000
000000
ENDCHAR
STARTCHAR J2173
ENCODING 8563
SWIDTH 1059 0
DWIDTH 24 0
BBX 24 24 0 -2
BITMAP
000000
00c0c0
01e1e0
026260
020200
020200
030300
030300
030300
038380
018180
018180
018180
00c0c0
00c0c0
00c0c0
004040
004040
064640
078780
030300
000000
000000
000000
ENDCHAR
STARTCHAR J2174
ENCODING 8564
SWIDTH 1059 0
DWIDTH 24 0
BBX 24 24 0 -2
BITMAP
000000
000000
000000
000000
000000
01fff8
070000
0c0000
180000
180000
180000
1ffff8
180000
180000
180000
0c0000
070000
01fff8
000000
000000
000000
000000
000000
000000
ENDCHAR
STARTCHAR J2175
ENCODING 8565
SWIDTH 1059 0
DWIDTH 24 0
BBX 24 24 0 -2
BITMAP
000000
000000
000000
000000
000000
1fff80
0000e0
000030
000018
000018
000018
1ffff8
000018
000018
000018
000030
0000e0
1fff80
000000
000000
000000
000000
000000
000000
ENDCHAR
STARTCHAR J2176
ENCODING 8566
SWIDTH 1059 0
DWIDTH 24 0
BBX 24 24 0 -2
BITMAP
000000
000000
000000
01fff8
070000
0c0000
180000
180000
180000
180000
180000
180000
0c0000
070000
01fff8
000000
000000
000000
1ffff8
000000
000000
000000
000000
000000
ENDCHAR
STARTCHAR J2177
ENCODING 8567
SWIDTH 1059 0
DWIDTH 24 0
BBX 24 24 0 -2
BITMAP
000000
000000
000000
1fff80
0000e0
000030
000018
000018
000018
000018
000018
000018
000030
0000e0
1fff80
000000
000000
000000
1ffff8
000000
000000
000000
000000
000000
ENDCHAR
STARTCHAR J2178
ENCODING 8568
SWIDTH 1059 0
DWIDTH 24 0
BBX 24 24 0 -2
BITMAP
000000
000000
000000
000000
000000
01fff8
070000
0c0000
180000
180000
180000
180000
180000
180000
180000
0c0000
070000
01fff8
000000
000000
000000
000000
000000
000000
ENDCHAR
STARTCHAR J2179
ENCODING 8569
SWIDTH 1059 0
DWIDTH 24 0
BBX 24 24 0 -2
BITMAP
000000
000000
000000
000000
000000
1fff80
0000e0
000030
000018
000018
000018
000018
000018
000018
000018
000030
0000e0
1fff80
000000
000000
000000
000000
000000
000000
ENDCHAR
STARTCHAR J217a
ENCODING 8570
SWIDTH 1059 0
DWIDTH 24 0
BBX 24 24 0 -2
BITMAP
000000
000000
0c0060
0c0060
0c0060
0c0060
0c0060
0c0060
0c0060
0c0060
0c0060
0c0060
0c0060
0c0060
0c0060
0c0060
0c0060
0600c0
038380
00fe00
000000
000000
000000
000000
ENDCHAR
STARTCHAR J217b
ENCODING 8571
SWIDTH 1059 0
DWIDTH 24 0
BBX 24 24 0 -2
BITMAP
000000
000000
00fe00
038380
0600c0
0c0060
0c0060
0c0060
0c0060
0c0060
0c0060
0c0060
0c0060
0c0060
0c0060
0c0060
0c0060
0c0060
0c0060
0c0060
000000
000000
000000
000000
ENDCHAR
STARTCHAR J217c
ENCODING 8572
SWIDTH 1059 0
DWIDTH 24 0
BBX 24 24 0 -2
BITMAP
000000
000000
000000
003800
003800
007c00
006c00
00c600
00c600
018300
018300
030180
030180
0600c0
0600c0
0c0060
0c0060
180030
180030
300018
000000
000000
000000
000000
ENDCHAR
STARTCHAR J217d
ENCODING 8573
SWIDTH 1059 0
DWIDTH 24 0
BBX 24 24 0 -2
BITMAP
000000
000000
000000
300018
180030
180030
0c0060
0c0060
0600c0
0600c0
030180
030180
018300
018300
00c600
00c600
006c00
006c00
003800
003800
000000
000000
000000
000000
ENDCHAR
STARTCHAR J217e
ENCODING 8574
SWIDTH 1059 0
DWIDTH 24 0
BBX 24 24 0 -2
BITMAP
000000
000000
000000
000000
000000
000000
000000
000000
1ffff8
000018
000018
000018
000018
000018
000018
000018
000000
000000
000000
000000
000000
000000
000000
000000
ENDCHAR
STARTCHAR J2221
ENCODING 8737
SWIDTH 1059 0
DWIDTH 24 0
BBX 24 24 0 -2
BITMAP
000000
000000
000000
000000
000000
000300
000180
0000c0
7fffe0
000030
000018
00000c
000018
000030
7fffe0
0000c0
000180
000300
000000
000000
000000
000000
000000
000000
ENDCHAR
STARTCHAR J2222
ENCODING 8738
SWIDTH 1059 0
DWIDTH 24 0
BBX 24 24 0 -2
BITMAP
000000
000000
000000
000000
000000
018180
0300c0
060060
0ffff0
180018
30000c
600006
30000c
180018
0ffff0
060060
0300c0
018180
000000
000000
000000
000000
000000
000000
ENDCHAR
STARTCHAR J2223
ENCODING 8739
SWIDTH 1059 0
DWIDTH 24 0
BBX 24 24 0 -2
BITMAP
000000
000000
60000c
300018
300018
180030
180030
0c0060
0fffe0
0600c0
0600c0
030180
030180
018300
018300
00c600
00c600
006c00
006c00
003800
003800
000000
000000
000000
ENDCHAR
STARTCHAR J2224
ENCODING 8740
SWIDTH 1059 0
DWIDTH 24 0
BBX 24 24 0 -2
BITMAP
000000
000000
000000
07ffe0
000060
000060
000060
000060
000060
000060
000060
07ffe0
000060
000060
000060
000060
000060
000060
000060
07ffe0
000000
000000
000000
000000
ENDCHAR
STARTCHAR J2225
ENCODING 8741
SWIDTH 1059 0
DWIDTH 24 0
BBX 24 24 0 -2
BITMAP
000000
000c00
001c00
001800
003000
002000
004000
000000
000000
000000
000000
000000
000000
000000
000000
000000
000000
000000
000000
000000
000000
000000
000000
000000
ENDCHAR
STARTCHAR J2226
ENCODING 8742
SWIDTH 1059 0
DWIDTH 24 0
BBX 24 24 0 -2
BITMAP
000000
01f060
060f80
000000
000000
000000
000000
000000
000000
000000
000000
000000
000000
000000
000000
000000
000000
000000
000000
000000
000000
000000
000000
000000
ENDCHAR
STARTCHAR J2227
ENCODING 8743
SWIDTH 1059 0
DWIDTH 24 0
BBX 24 24 0 -2
BITMAP
000000
018300
00c600
006c00
003800
000000
000000
000000
000000
000000
000000
000000
000000
000000
000000
000000
000000
000000
000000
000000
000000
000000
000000
000000
ENDCHAR
STARTCHAR J2228
ENCODING 8744
SWIDTH 1059 0
DWIDTH 24 0
BBX 24 24 0 -2
BITMAP
000000
000000
030180
018300
007c00
000000
000000
000000
000000
000000
000000
000000
000000
000000
000000
000000
000000
000000
000000
000000
000000
000000
000000
000000
ENDCHAR
STARTCHAR J2229
ENCODING 8745
SWIDTH 1059 0
DWIDTH 24 0
BBX 24 24 0 -2
BITMAP
000000
003180
007380
006300
00c600
008400
010800
000000
000000
000000
000000
000000
000000
000000
000000
000000
000000
000000
000000
000000
000000
000000
000000
000000
ENDCHAR
STARTCHAR J222a
ENCODING 8746
SWIDTH 1059 0
DWIDTH 24 0
BBX 24 24 0 -2
BITMAP
000000
003800
004400
004400
003800
000000
000000
000000
000000
000000
000000
000000
000000
000000
000000
000000
000000
000000
000000
000000
000000
000000
000000
000000
ENDCHAR
STARTCHAR J222b
ENCODING 8747
SWIDTH 1059 0
DWIDTH 24 0
BBX 24 24 0 -2
BITMAP
000000
003800
007c00
007c00
003800
000000
000000
000000
000000
000000
000000
000000
000000
000000
000000
000000
000000
000000
000000
000000
000000
000000
000000
000000
ENDCHAR
STARTCHAR J222c
ENCODING 8748
SWIDTH 1059 0
DWIDTH 24 0
BBX 24 24 0 -2
BITMAP
000000
000000
000000
000000
000000
000000
000000
000000
000000
000000
000000
000000
000000
000000
006000
003000
001800
000c00
000c00
001800
003000
006000
000000
000000
ENDCHAR
STARTCHAR J222d
ENCODING 8749
SWIDTH 1059 0
DWIDTH 24 0
BBX 24 24 0 -2
BITMAP
000000
000000
000000
000000
000000
000000
000000
000000
000000
000000
000000
000000
000000
000000
000c00
001800
003000
006000
006000
003000
001800
000c00
000000
000000
ENDCHAR
STARTCHAR J222e
ENCODING 8750
SWIDTH 1059 0
DWIDTH 24 0
BBX 24 24 0 -2
BITMAP
000000
001800
003c00
003c00
001800
000000
000000
001800
001800
001800
001800
001800
001800
001800
003c00
003c00
003c00
003c00
003c00
003c00
001800
000000
000000
000000
ENDCHAR
STARTCHAR J222f
ENCODING 8751
SWIDTH 1059 0
DWIDTH 24 0
BBX 24 24 0 -2
BITMAP
000000
000c00
001e00
000c00
000000
000000
000c00
000c00
000c00
001800
001800
003000
006000
00c000
01c000
038000
038180
0381c0
0380c0
01e180
007e00
000000
000000
000000
ENDCHAR
STARTCHAR J2230
ENCODING 8752
SWIDTH 1059 0
DWIDTH 24 0
BBX 24 24 0 -2
BITMAP
000000
000000
000000
000000
000000
007c00
003800
001000
000000
000000
000000
000000
000000
000000
000000
001000
003800
007c00
000000
000000
000000
000000
000000
000000
ENDCHAR
STARTCHAR J2231
ENCODING 8753
SWIDTH 1059 0
DWIDTH 24 0
BBX 24 24 0 -2
BITMAP
000000
000c00
001e00
002600
002000
002000
003000
003c00
007200
009900
009900
009900
009900
004e00
003c00
000c00
000400
000400
006400
007800
003000
000000
000000
000000
ENDCHAR
STARTCHAR J2232
ENCODING 8754
SWIDTH 1059 0
DWIDTH 24 0
BBX 24 24 0 -2
BITMAP
000000
000000
000000
1fffe0
0c0020
060010
030010
018000
00c000
006000
003000
003000
006000
00c000
018000
030010
060010
0c0020
1fffe0
000000
000000
000000
000000
000000
ENDCHAR
STARTCHAR J2233
ENCODING 8755
SWIDTH 1059 0
DWIDTH 24 0
BBX 24 24 0 -2
BITMAP
000000
000000
000000
7ffffc
030180
030180
030180
030180
030180
030180
030180
030180
030180
030180
030180
030180
030180
030180
030180
000000
000000
000000
000000
000000
ENDCHAR
STARTCHAR J2234
ENCODING 8756
SWIDTH 1059 0
DWIDTH 24 0
BBX 24 24 0 -2
BITMAP
000000
000000
000000
0c0018
060030
037f60
01c1c0
030060
060030
060030
060030
060030
060030
060030
060030
030060
03c1c0
067f60
0c0030
180018
000000
000000
000000
000000
ENDCHAR
STARTCHAR J2235
ENCODING 8757
SWIDTH 1059 0
DWIDTH 24 0
BBX 24 24 0 -2
BITMAP
000000
3c0000
660000
66fffc
3c380c
003804
003804
003800
003830
003830
003ff0
003860
003860
003800
003800
003800
003800
003800
003800
003800
00fe00
000000
000000
000000
ENDCHAR
STARTCHAR J2236
ENCODING 8758
SWIDTH 1059 0
DWIDTH 24 0
BBX 24 24 0 -2
BITMAP
000000
070300
198600
318600
318c00
631800
631800
663000
386000
006000
00c000
018000
030000
03381c
06cc66
0d8cc6
198cc6
1b198c
33198c
633198
c1c0e0
000000
000000
000000
ENDCHAR
STARTCHAR J2237
ENCODING 8759
SWIDTH 1059 0
DWIDTH 24 0
BBX 24 24 0 -2
BITMAP
000000
000000
000008
000038
0000f8
000398
000e18
003818
00e018
038018
0e0018
1c0018
0e0018
038018
00e018
003818
000e18
000398
0000f8
000038
000008
000000
000000
000000
ENDCHAR
STARTCHAR J2238
ENCODING 8760
SWIDTH 1059 0
DWIDTH 24 0
BBX 24 24 0 -2
BITMAP
000000
000000
000008
000038
0000f8
0003f8
000ff8
003ff8
00fff8
03fff8
0ffff8
1ffff8
0ffff8
03fff8
00fff8
003ff8
000ff8
0003f8
0000f8
000038
000008
000000
000000
000000
ENDCHAR
STARTCHAR J2239
ENCODING 8761
SWIDTH 1059 0
DWIDTH 24 0
BBX 24 24 0 -2
BITMAP
000000
000000
100000
1c0000
1f0000
19c000
187000
181c00
180700
1801c0
180070
180018
180070
1801c0
180700
181c00
187000
19c000
1f0000
1c0000
100000
000000
000000
000000
ENDCHAR
STARTCHAR J223a
ENCODING 8762
SWIDTH 1059 0
DWIDTH 24 0
BBX 24 24 0 -2
BITMAP
000000
000000
100000
1c0000
1f0000
1fc000
1ff000
1ffc00
1fff00
1fffc0
1ffff0
1ffff8
1ffff0
1fffc0
1fff00
1ffc00
1ff000
1fc000
1f0000
1c0000
100000
000000
000000
000000
ENDCHAR
STARTCHAR J223b
ENCODING 8763
SWIDTH 1059 0
DWIDTH 24 0
BBX 24 24 0 -2
BITMAP
000000
001800
003c00
006600
00c300
018180
0300c0
060060
0c0030
180018
30000c
30000c
600006
601806
603c06
607e06
31db8c
1f18f8
001800
001800
001800
001800
000000
000000
ENDCHAR
STARTCHAR J223c
ENCODING 8764
SWIDTH 1059 0
DWIDTH 24 0
BBX 24 24 0 -2
BITMAP
000000
001800
003c00
007e00
00ff00
01ff80
03ffc0
07ffe0
0ffff0
1ffff8
3ffffc
3ffffc
7ffffe
7ffffe
7ffffe
7ffffe
3fdbfc
1f99f8
001800
001800
001800
001800
000000
000000
ENDCHAR
STARTCHAR J223d
ENCODING 8765
SWIDTH 1059 0
DWIDTH 24 0
BBX 24 24 0 -2
BITMAP
000000
000000
0f83e0
18c630
306c18
60380c
60100c
60000c
60000c
60000c
300018
300018
180030
0c0060
0600c0
030180
018300
00c600
006c00
003800
001000
000000
000000
000000
ENDCHAR
STARTCHAR J223e
ENCODING 8766
SWIDTH 1059 0
DWIDTH 24 0
BBX 24 24 0 -2
BITMAP
000000
000000
0f83e0
1fc7f0
3feff8
7ffffc
7ffffc
7ffffc
7ffffc
7ffffc
3ffff8
3ffff8
1ffff0
0fffe0
07ffc0
03ff80
01ff00
00fe00
007c00
003800
001000
000000
000000
000000
ENDCHAR
STARTCHAR J223f
ENCODING 8767
SWIDTH 1059 0
DWIDTH 24 0
BBX 24 24 0 -2
BITMAP
000000
007e00
00c300
018180
018180
018180
018180
00c300
006600
1e2478
33a58c
60e306
600006
600006
606606
609906
31998c
1e18f8
001800
001800
001800
001800
000000
000000
ENDCHAR
STARTCHAR J2240
ENCODING 8768
SWIDTH 1059 0
DWIDTH 24 0
BBX 24 24 0 -2
BITMAP
000000
007e00
00ff00
01ff80
01ff80
01ff80
01ff80
00ff00
007e00
1e3c78
3fbdfc
7ffffe
7ffffe
7ffffe
7ffffe
7f99fe
3f99fc
1f18f8
001800
001800
001800
001800
000000
000000
ENDCHAR
STARTCHAR J2241
ENCODING 8769
SWIDTH 1059 0
DWIDTH 24 0
BBX 24 24 0 -2
BITMAP
000000
000000
00ff00
0381c0
060060
0c0030
180018
180018
303c0c
307e0c
307e0c
307e0c
307e0c
303c0c
180018
180018
0c0030
060060
0381c0
00ff00
000000
000000
000000
000000
ENDCHAR
STARTCHAR J2242
ENCODING 8770
SWIDTH 1059 0
DWIDTH 24 0
BBX 24 24 0 -2
BITMAP
000000
001000
003800
006c00
00c600
018300
031180
0638c0
0c7c60
18fe30
31ff18
31ff18
18fe30
0c7c60
0638c0
031180
018300
00c600
006c00
003800
001000
000000
000000
000000
ENDCHAR
STARTCHAR J2243
ENCODING 8771
SWIDTH 1059 0
DWIDTH 24 0
BBX 24 24 0 -2
BITMAP
000000
000000
000000
0ffff0
080010
080010
080010
08ff10
08ff10
08ff10
08ff10
08ff10
08ff10
08ff10
08ff10
080010
080010
080010
0ffff0
000000
000000
000000
000000
000000
ENDCHAR
STARTCHAR J2244
ENCODING 8772
SWIDTH 1059 0
DWIDTH 24 0
BBX 24 24 0 -2
BITMAP
000000
000000
00ff00
03f1c0
07f060
0ff030
1ff018
1ff018
3ff00c
3ff00c
3ff00c
3ff00c
3ff00c
3ff00c
1ff018
1ff018
0ff030
07f060
03f1c0
00ff00
000000
000000
000000
000000
ENDCHAR
STARTCHAR J2245
ENCODING 8773
SWIDTH 1059 0
DWIDTH 24 0
BBX 24 24 0 -2
BITMAP
000000
000000
00ff00
038fc0
060fe0
0c0ff0
180ff8
180ff8
300ffc
300ffc
300ffc
300ffc
300ffc
300ffc
180ff8
180ff8
0c0ff0
060fe0
038fc0
00ff00
000000
000000
000000
000000
ENDCHAR
STARTCHAR J2246
ENCODING 8774
SWIDTH 1059 0
DWIDTH 24 0
BBX 24 24 0 -2
BITMAP
000000
000000
000000
0ffff0
080010
0a4a50
080010
090450
080010
0a4a90
080010
0a1050
080010
092490
080010
0a0210
084890
080010
0ffff0
000000
000000
000000
000000
000000
ENDCHAR
STARTCHAR J2247
ENCODING 8775
SWIDTH 1059 0
DWIDTH 24 0
BBX 24 24 0 -2
BITMAP
000000
000000
000000
0ffff0
080010
080010
0ffff0
080010
080010
0ffff0
080010
080010
0ffff0
080010
080010
0ffff0
080010
080010
0ffff0
000000
000000
000000
000000
000000
ENDCHAR
STARTCHAR J2248
ENCODING 8776
SWIDTH 1059 0
DWIDTH 24 0
BBX 24 24 0 -2
BITMAP
000000
000000
000000
0ffff0
092490
092490
092490
092490
092490
092490
092490
092490
092490
092490
092490
092490
092490
092490
0ffff0
000000
000000
000000
000000
000000
ENDCHAR
STARTCHAR J2249
ENCODING 8777
SWIDTH 1059 0
DWIDTH 24 0
BBX 24 24 0 -2
BITMAP
000000
000000
000000
0ffff0
082030
084050
088090
090110
0a0210
0c0410
080810
081010
082030
084050
088090
090110
0a0210
0c0410
0ffff0
000000
000000
000000
000000
000000
ENDCHAR
STARTCHAR J224a
ENCODING 8778
SWIDTH 1059 0
DWIDTH 24 0
BBX 24 24 0 -2
BITMAP
000000
000000
000000
0ffff0
0c0410
0a0210
090110
088090
084050
082030
081010
080810
0c0410
0a0210
090110
088090
084050
082030
0ffff0
000000
000000
000000
000000
000000
ENDCHAR
STARTCHAR J224b
ENCODING 8779
SWIDTH 1059 0
DWIDTH 24 0
BBX 24 24 0 -2
BITMAP
000000
000000
000000
0ffff0
092490
092490
0ffff0
092490
092490
0ffff0
092490
092490
0ffff0
092490
092490
0ffff0
092490
092490
0ffff0
000000
000000
000000
000000
000000
ENDCHAR
STARTCHAR J224c
ENCODING 8780
SWIDTH 1059 0
DWIDTH 24 0
BBX 24 24 0 -2
BITMAP
000000
000000
000000
0ffff0
0c2430
0a4250
098190
098190
0a4250
0c2430
081810
081810
0c2430
0a4250
098190
098190
0a4250
0c2430
0ffff0
000000
000000
000000
000000
000000
ENDCHAR
STARTCHAR J224d
ENCODING 8781
SWIDTH 1059 0
DWIDTH 24 0
BBX 24 24 0 -2
BITMAP
000000
000000
000000
021040
021040
042080
084100
084100
084100
084100
042080
021080
221088
421084
421084
421084
442104
300018
1ffff0
000000
000000
000000
000000
000000
ENDCHAR
STARTCHAR J224e
ENCODING 8782
SWIDTH 1059 0
DWIDTH 24 0
BBX 24 24 0 -2
BITMAP
000000
000000
000000
0ffff0
30000c
43ffc2
44c322
78ff1e
00ff00
01c380
07c3e0
0c7e30
180018
183c18
307e0c
307e0c
303c0c
3ffffc
3ffffc
000000
000000
000000
000000
000000
ENDCHAR
STARTCHAR J224f
ENCODING 8783
SWIDTH 1059 0
DWIDTH 24 0
BBX 24 24 0 -2
BITMAP
000000
000000
000000
07ffe0
1ffff8
3ffffc
7cc33e
78c31e
00c300
01ff80
07ffe0
0ffff0
1fc3f8
1f81f8
3f81fc
3fc3fc
3ffffc
3ffffc
3ffffc
000000
000000
000000
000000
000000
ENDCHAR
STARTCHAR J2250
ENCODING 8784
SWIDTH 1059 0
DWIDTH 24 0
BBX 24 24 0 -2
BITMAP
000000
000000
000000
00001e
000012
3ffff2
400012
400012
3ff812
020012
020012
01f812
008012
008012
007812
002012
002012
001ff2
000012
00001e
000000
000000
000000
000000
ENDCHAR
STARTCHAR J2251
ENCODING 8785
SWIDTH 1059 0
DWIDTH 24 0
BBX 24 24 0 -2
BITMAP
000000
000000
000000
780000
480000
4ffffc
480002
480002
481ffc
480080
480080
481f00
480100
480100
481e00
480200
480200
4ffc00
480000
780000
000000
000000
000000
000000
ENDCHAR
STARTCHAR J2252
ENCODING 8786
SWIDTH 1059 0
DWIDTH 24 0
BBX 24 24 0 -2
BITMAP
000000
00018c
0ffd8c
18018c
30018c
30018c
30018c
30018c
30018c
30018c
18018c
0ffd8c
00018c
00018c
00018c
00018c
00018c
00018c
00018c
00018c
00018c
000000
000000
000000
ENDCHAR
STARTCHAR J2253
ENCODING 8787
SWIDTH 1059 0
DWIDTH 24 0
BBX 24 24 0 -2
BITMAP
000000
001800
001800
001800
001800
001800
001800
1ffff8
1ffff8
001800
001800
001800
001800
001800
001800
001800
001800
001800
001800
001800
001800
000000
000000
000000
ENDCHAR
STARTCHAR J2254
ENCODING 8788
SWIDTH 1059 0
DWIDTH 24 0
BBX 24 24 0 -2
BITMAP
000000
001800
001800
001800
001800
1ffff8
1ffff8
001800
001800
1ffff8
1ffff8
001800
001800
001800
001800
001800
001800
001800
001800
001800
001800
000000
000000
000000
ENDCHAR
STARTCHAR J2255
ENCODING 8789
SWIDTH 1059 0
DWIDTH 24 0
BBX 24 24 0 -2
BITMAP
000000
001800
003c00
007e00
00db00
019980
021840
001800
001800
001800
001800
001800
001800
001800
001800
021840
011880
00db00
007e00
003c00
001800
000000
000000
000000
ENDCHAR
STARTCHAR J2256
ENCODING 8790
SWIDTH 1059 0
DWIDTH 24 0
BBX 24 24 0 -2
BITMAP
000000
0007fc
0000fc
00003c
00007c
0000ec
0001cc
000384
000704
000e00
001c00
003800
007000
00e000
01c000
038000
070000
0e0000
1c0000
380000
100000
000000
000000
000000
ENDCHAR
STARTCHAR J2257
ENCODING 8791
SWIDTH 1059 0
DWIDTH 24 0
BBX 24 24 0 -2
BITMAP
000000
000008
00001c
000038
000070
0000e0
0001c0
000380
000700
000e00
001c00
003800
007000
20e000
21c000
338000
370000
3e0000
3c0000
3f8000
3fe000
000000
000000
000000
ENDCHAR
STARTCHAR J2258
ENCODING 8792
SWIDTH 1059 0
DWIDTH 24 0
BBX 24 24 0 -2
BITMAP
000000
3fe000
3f8000
3c0000
3e0000
370000
338000
21c000
20e000
007000
003800
001c00
000e00
000700
000380
0001c0
0000e0
000070
000038
00001c
000008
000000
000000
000000
ENDCHAR
STARTCHAR J2259
ENCODING 8793
SWIDTH 1059 0
DWIDTH 24 0
BBX 24 24 0 -2
BITMAP
000000
100000
380000
1c0000
0e0000
070000
038000
01c000
00e000
007000
003800
001c00
000e00
000704
000384
0001cc
0000ec
00007c
00003c
0000fc
0003fc
000000
000000
000000
ENDCHAR
STARTCHAR J225a
ENCODING 8794
SWIDTH 1059 0
DWIDTH 24 0
BBX 24 24 0 -2
BITMAP
000000
018000
018000
018000
018000
018000
018000
018000
018000
018000
018000
01be00
01c100
018100
018100
018200
018200
018400
018800
01b000
01c000
000000
000000
000000
ENDCHAR
STARTCHAR J225b
ENCODING 8795
SWIDTH 1059 0
DWIDTH 24 0
BBX 24 24 0 -2
BITMAP
000000
000300
000300
000300
000300
000300
000300
000300
000300
000300
000300
000300
000300
000300
000300
000300
003f00
00fe00
01fe00
01fc00
00f000
000000
000000
000000
ENDCHAR
STARTCHAR J225c
ENCODING 8796
SWIDTH 1059 0
DWIDTH 24 0
BBX 24 24 0 -2
BITMAP
000000
001800
001c00
001e00
001b00
001980
0018c0
0018c0
001860
001860
001860
0018c0
0018c0
001980
001b00
001800
01f800
07f000
0ff000
0fe000
078000
000000
000000
000000
ENDCHAR
STARTCHAR J225d
ENCODING 8797
SWIDTH 1059 0
DWIDTH 24 0
BBX 24 24 0 -2
BITMAP
000000
01fffe
01fffe
018006
018006
018006
01fffe
018006
018006
018006
018006
018006
018006
018006
018006
018006
0f803e
3f00fc
7f01fc
7e01f8
3800e0
000000
000000
000000
ENDCHAR
STARTCHAR J225e
ENCODING 8798
SWIDTH 1059 0
DWIDTH 24 0
BBX 24 24 0 -2
BITMAP
000000
01ffc0
070070
0c0018
18000c
31e7c6
30c306
60c600
60cc00
60d800
7ef07e
00f006
00d806
60cc06
60c606
30c306
30c18c
19e3ec
0c0018
070070
01ffc0
000000
000000
000000
ENDCHAR
STARTCHAR J225f
ENCODING 8799
SWIDTH 1059 0
DWIDTH 24 0
BBX 24 24 0 -2
BITMAP
000000
0e0070
180018
30030c
33ff8c
610306
600606
601c06
607386
61c0e6
660006
600006
700066
6ffff6
641806
601806
601806
601806
30180c
30180c
181818
0e1070
000000
000000
ENDCHAR
STARTCHAR J2260
ENCODING 8800
SWIDTH 1059 0
DWIDTH 24 0
BBX 24 24 0 -2
BITMAP
000000
000000
70f000
306000
386000
386000
386000
3c6000
3c6000
3663e0
366630
366c18
336c18
336c18
31ec18
31ec18
30ec18
30ec18
30ec18
306636
7863e6
000000
000000
000000
ENDCHAR
STARTCHAR J2261
ENCODING 8801
SWIDTH 1059 0
DWIDTH 24 0
BBX 24 24 0 -2
BITMAP
000000
000000
000000
0fa000
18e000
306000
302000
602000
600000
6003e0
600630
600c18
600c18
600c18
600c18
600c18
602c18
302c18
306c18
18c636
0f83e6
000000
000000
000000
ENDCHAR
STARTCHAR J2262
ENCODING 8802
SWIDTH 1059 0
DWIDTH 24 0
BBX 24 24 0 -2
BITMAP
000000
000000
ffdc07
ffcc06
8c4c0e
8c4e0e
0c0e0e
0c0e0e
0c0b16
0c0b16
0c0b16
0c09a6
0c09a6
0c09a6
0c09e6
0c08c6
0c08c6
0c0806
0c0806
0c0806
1e1c0f
000000
000000
000000
ENDCHAR
STARTCHAR J2263
ENCODING 8803
SWIDTH 1059 0
DWIDTH 24 0
BBX 24 24 0 -2
BITMAP
000000
000000
000000
000000
000000
000000
000000
000000
000000
1e0ddc
631eec
c30ccc
c30ccc
0f0ccc
330ccc
630ccc
c30ccc
c30ccc
c30ccc
c76ccd
7b6edd
000000
000000
000000
ENDCHAR
STARTCHAR J2264
ENCODING 8804
SWIDTH 1059 0
DWIDTH 24 0
BBX 24 24 0 -2
BITMAP
000000
000000
000000
000000
000000
000000
000000
000000
000000
6f0ddc
f19eec
60cccc
60cccc
60cccc
60cccc
60cccc
718ccc
6f0ccc
600ccc
60cccd
f0dedd
000000
000000
000000
ENDCHAR
STARTCHAR J2265
ENCODING 8805
SWIDTH 1059 0
DWIDTH 24 0
BBX 24 24 0 -2
BITMAP
000000
000000
000000
7fe00c
66601c
86100c
06000c
06000c
06000c
06000c
06000c
061f0c
06318c
0660cc
0660cc
067fcc
06600c
06600c
06606c
0631cc
0f1f1e
000000
000000
000000
ENDCHAR
STARTCHAR J2321
ENCODING 8993
SWIDTH 1059 0
DWIDTH 24 0
BBX 24 24 0 -2
BITMAP
000000
001800
003c00
003c00
003c00
003c00
003c00
003c00
003c00
003c00
001800
001800
001800
001800
001800
000000
000000
000000
001800
003c00
001800
000000
000000
000000
ENDCHAR
STARTCHAR J2322
ENCODING 8994
SWIDTH 1059 0
DWIDTH 24 0
BBX 24 24 0 -2
BITMAP
000000
007380
007380
006300
00c600
008400
008400
010800
000000
000000
000000
000000
000000
000000
000000
000000
000000
000000
000000
000000
000000
000000
000000
000000
ENDCHAR
STARTCHAR J2323
ENCODING 8995
SWIDTH 1059 0
DWIDTH 24 0
BBX 24 24 0 -2
BITMAP
000000
018300
018300
018300
018300
018300
0183f0
01ff00
1f8300
018300
018300
018300
018300
0183f0
01ff00
1f8300
018300
018300
018300
018300
018300
000000
000000
000000
ENDCHAR
STARTCHAR J2324
ENCODING 8996
SWIDTH 1059 0
DWIDTH 24 0
BBX 24 24 0 -2
BITMAP
004400
004400
00fe80
03c780
0644c0
0c4460
0c4400
0c4400
074400
03e400
00fc00
005f00
0047c0
0044e0
004460
084460
0c4460
0444c0
07c780
04fe00
004400
004400
000000
000000
ENDCHAR
STARTCHAR J2325
ENCODING 8997
SWIDTH 1059 0
DWIDTH 24 0
BBX 24 24 0 -2
BITMAP
000000
000060
1f00c0
3180c0
60c180
60c300
60c300
60c600
318600
1f0c00
001800
001800
0030f8
00318c
006306
00c306
00c306
018306
03018c
0300f8
060000
000000
000000
000000
ENDCHAR
STARTCHAR J2326
ENCODING 8998
SWIDTH 1059 0
DWIDTH 24 0
BBX 24 24 0 -2
BITMAP
000000
003c00
00c600
00c300
018300
018300
018600
019c00
00f000
01e000
036078
066030
0c3030
183030
181830
301860
300c60
3006c0
300380
180ee0
0ff03c
000000
000000
000000
ENDCHAR
STARTCHAR J2327
ENCODING 8999
SWIDTH 1059 0
DWIDTH 24 0
BBX 24 24 0 -2
BITMAP
000000
001c00
001c00
001800
003000
002000
002000
004000
000000
000000
000000
000000
000000
000000
000000
000000
000000
000000
000000
000000
000000
000000
000000
000000
ENDCHAR
STARTCHAR J2328
ENCODING 9000
SWIDTH 1059 0
DWIDTH 24 0
BBX 24 24 0 -2
BITMAP
000000
00000c
000018
000030
000060
000060
0000c0
0000c0
0000c0
0000c0
0000c0
0000c0
0000c0
0000c0
0000c0
0000c0
0000c0
0000c0
000060
000060
000030
000018
00000c
000000
ENDCHAR
STARTCHAR J2329
ENCODING 9001
SWIDTH 1059 0
DWIDTH 24 0
BBX 24 24 0 -2
BITMAP
000000
300000
180000
0c0000
060000
060000
030000
030000
030000
030000
030000
030000
030000
030000
030000
030000
030000
030000
060000
060000
0c0000
180000
300000
000000
ENDCHAR
STARTCHAR J232a
ENCODING 9002
SWIDTH 1059 0
DWIDTH 24 0
BBX 24 24 0 -2
BITMAP
000000
000000
000000
001c00
001c00
001800
181830
1c18f0
071b80
01de00
007800
003800
00fe00
039b80
1e18f0
181830
001800
003800
003800
000000
000000
000000
000000
000000
ENDCHAR
STARTCHAR J232b
ENCODING 9003
SWIDTH 1059 0
DWIDTH 24 0
BBX 24 24 0 -2
BITMAP
000000
000000
001800
001800
001800
001800
001800
001800
001800
001800
001800
3ffffc
001800
001800
001800
001800
001800
001800
001800
001800
001800
000000
000000
000000
ENDCHAR
STARTCHAR J232c
ENCODING 9004
SWIDTH 1059 0
DWIDTH 24 0
BBX 24 24 0 -2
BITMAP
000000
000000
000000
000000
000000
000000
000000
000000
000000
000000
000000
000000
000000
000000
000000
000000
100000
380000
380000
180000
180000
100000
200000
000000
ENDCHAR
STARTCHAR J232d
ENCODING 9005
SWIDTH 1059 0
DWIDTH 24 0
BBX 24 24 0 -2
BITMAP
000000
000000
000000
000000
000000
000000
000000
000000
000000
000000
000000
3ffffc
000000
000000
000000
000000
000000
000000
000000
000000
000000
000000
000000
000000
ENDCHAR
STARTCHAR J232e
ENCODING 9006
SWIDTH 1059 0
DWIDTH 24 0
BBX 24 24 0 -2
BITMAP
000000
000000
000000
000000
000000
000000
000000
000000
000000
000000
000000
000000
000000
000000
000000
000000
000000
000000
180000
3c0000
3c0000
180000
000000
000000
ENDCHAR
STARTCHAR J232f
ENCODING 9007
SWIDTH 1059 0
DWIDTH 24 0
BBX 24 24 0 -2
BITMAP
000006
00000c
000018
000030
000060
0000c0
000180
000300
000300
000600
000c00
001800
003000
006000
00c000
018000
018000
030000
060000
0c0000
180000
300000
600000
c00000
ENDCHAR
STARTCHAR J2330
ENCODING 9008
SWIDTH 1059 0
DWIDTH 24 0
BBX 24 24 0 -2
BITMAP
000000
000000
003c00
00c300
018180
0300c0
0300c0
060060
060060
060060
060060
060060
060060
060060
060060
060060
060060
0300c0
0300c0
018180
00c300
003c00
000000
000000
ENDCHAR
STARTCHAR J2331
ENCODING 9009
SWIDTH 1059 0
DWIDTH 24 0
BBX 24 24 0 -2
BITMAP
000000
000000
001800
007800
01f800
001800
001800
001800
001800
001800
001800
001800
001800
001800
001800
001800
001800
001800
001800
001800
001800
01ff80
000000
000000
ENDCHAR
STARTCHAR J2332
ENCODING 9010
SWIDTH 1059 0
DWIDTH 24 0
BBX 24 24 0 -2
BITMAP
000000
000000
003e00
00c180
0180c0
030060
020060
040060
000060
0000c0
0000c0
000180
000300
000600
000c00
001000
002000
004020
008020
010060
03ffe0
07ffe0
000000
000000
ENDCHAR
STARTCHAR J2333
ENCODING 9011
SWIDTH 1059 0
DWIDTH 24 0
BBX 24 24 0 -2
BITMAP
000000
000000
007e00
01c780
030180
0401c0
0000c0
0000c0
000080
000100
007e00
00ff80
0003c0
0000e0
000060
000060
000060
0000e0
0000c0
000380
000e00
07f000
000000
000000
ENDCHAR
STARTCHAR J2334
ENCODING 9012
SWIDTH 1059 0
DWIDTH 24 0
BBX 24 24 0 -2
BITMAP
000000
000000
000300
000700
000b00
000b00
001300
002300
004300
004300
008300
010300
020300
020300
040300
080300
1fffe0
000300
000300
000300
000300
001fe0
000000
000000
ENDCHAR
STARTCHAR J2335
ENCODING 9013
SWIDTH 1059 0
DWIDTH 24 0
BBX 24 24 0 -2
BITMAP
000000
000000
03ffe0
03ffc0
020000
020000
020000
020000
020000
023e00
02ff80
0381c0
0200c0
000060
000060
000060
000040
0000c0
000180
000300
001c00
03e000
000000
000000
ENDCHAR
STARTCHAR J2336
ENCODING 9014
SWIDTH 1059 0
DWIDTH 24 0
BBX 24 24 0 -2
BITMAP
000000
000000
000f00
003000
004000
008000
018000
030000
030000
060000
067e00
078180
0600c0
0600c0
060060
060060
060060
0300c0
0300c0
018180
00c300
003c00
000000
000000
ENDCHAR
STARTCHAR J2337
ENCODING 9015
SWIDTH 1059 0
DWIDTH 24 0
BBX 24 24 0 -2
BITMAP
000000
000000
07ffe0
07ffe0
060020
040040
040080
000100
000100
000200
000600
000400
000c00
000c00
000800
001800
001800
001800
003000
003000
003000
003000
000000
000000
ENDCHAR
STARTCHAR J2338
ENCODING 9016
SWIDTH 1059 0
DWIDTH 24 0
BBX 24 24 0 -2
BITMAP
000000
000000
007e00
018180
0300c0
060060
060060
060060
070060
03c0c0
01f900
007e00
008f80
0303c0
0600e0
0c0070
0c0030
0c0030
0c0030
060060
0300c0
00ff00
000000
000000
ENDCHAR
STARTCHAR J2339
ENCODING 9017
SWIDTH 1059 0
DWIDTH 24 0
BBX 24 24 0 -2
BITMAP
000000
000000
003c00
00c300
018180
0300c0
0300c0
060060
060060
060060
030060
030060
018060
00c1e0
003e60
0000c0
0000c0
000180
000300
000600
003800
03c000
000000
000000
ENDCHAR
STARTCHAR J233a
ENCODING 9018
SWIDTH 1059 0
DWIDTH 24 0
BBX 24 24 0 -2
BITMAP
000000
000000
000000
000000
001800
003c00
003c00
001800
000000
000000
000000
000000
000000
000000
000000
001800
003c00
003c00
001800
000000
000000
000000
000000
000000
ENDCHAR
STARTCHAR J233b
ENCODING 9019
SWIDTH 1059 0
DWIDTH 24 0
BBX 24 24 0 -2
BITMAP
000000
000000
000000
000000
001800
003c00
003c00
001800
000000
000000
000000
000000
000000
000000
000000
001800
003c00
003c00
001800
001800
001000
002000
000000
000000
ENDCHAR
STARTCHAR J233c
ENCODING 9020
SWIDTH 1059 0
DWIDTH 24 0
BBX 24 24 0 -2
BITMAP
000000
000000
00001c
000070
0001c0
000700
001c00
007000
01c000
070000
1c0000
380000
1c0000
070000
01c000
007000
001c00
000700
0001c0
000070
00001c
000000
000000
000000
ENDCHAR
STARTCHAR J233d
ENCODING 9021
SWIDTH 1059 0
DWIDTH 24 0
BBX 24 24 0 -2
BITMAP
000000
000000
000000
000000
000000
000000
000000
000000
1ffff8
000000
000000
000000
000000
000000
1ffff8
000000
000000
000000
000000
000000
000000
000000
000000
000000
ENDCHAR
STARTCHAR J233e
ENCODING 9022
SWIDTH 1059 0
DWIDTH 24 0
BBX 24 24 0 -2
BITMAP
000000
000000
380000
0e0000
038000
00e000
003800
000e00
000380
0000e0
000038
00001c
000038
0000e0
000380
000e00
003800
00e000
038000
0e0000
380000
000000
000000
000000
ENDCHAR
STARTCHAR J233f
ENCODING 9023
SWIDTH 1059 0
DWIDTH 24 0
BBX 24 24 0 -2
BITMAP
000000
003c00
00ff00
018380
0301c0
0381c0
0381c0
0101c0
000380
000300
000600
000c00
000c00
001800
001800
001800
000000
001800
003c00
003c00
001800
000000
000000
000000
ENDCHAR
STARTCHAR J2340
ENCODING 9024
SWIDTH 1059 0
DWIDTH 24 0
BBX 24 24 0 -2
BITMAP
000000
000000
00fe00
038380
0600c0
0c0060
180060
187630
30ce30
318630
318630
318630
318660
318660
319ec0
18f38c
180018
0c0030
0600e0
038380
00fe00
000000
000000
000000
ENDCHAR
STARTCHAR J2341
ENCODING 9025
SWIDTH 1059 0
DWIDTH 24 0
BBX 24 24 0 -2
BITMAP
000000
000000
001000
001800
003800
002c00
002c00
004600
004600
004600
008300
008300
010180
010180
01ff80
0200c0
0200c0
040060
040060
0c0070
3f01fc
000000
000000
000000
ENDCHAR
STARTCHAR J2342
ENCODING 9026
SWIDTH 1059 0
DWIDTH 24 0
BBX 24 24 0 -2
BITMAP
000000
000000
0ffe00
030180
0300c0
030060
030060
030060
030060
0300c0
030080
03ff00
0300c0
030060
030030
030030
030030
030030
030060
0300c0
0fff00
000000
000000
000000
ENDCHAR
STARTCHAR J2343
ENCODING 9027
SWIDTH 1059 0
DWIDTH 24 0
BBX 24 24 0 -2
BITMAP
000000
000000
003c00
00c320
0300e0
060060
0c0020
0c0020
180000
180000
180000
180000
180000
180000
180000
0c0000
0c0010
060020
030040
00c180
003e00
000000
000000
000000
ENDCHAR
STARTCHAR J2344
ENCODING 9028
SWIDTH 1059 0
DWIDTH 24 0
BBX 24 24 0 -2
BITMAP
000000
000000
1ff800
060600
060180
0600c0
060060
060060
060030
060030
060030
060030
060030
060030
060030
060060
060060
0600c0
060180
060600
1ff800
000000
000000
000000
ENDCHAR
STARTCHAR J2345
ENCODING 9029
SWIDTH 1059 0
DWIDTH 24 0
BBX 24 24 0 -2
BITMAP
000000
000000
1fffc0
0600c0
060040
060020
060020
060000
060200
060200
060600
07fe00
060600
060200
060200
060000
060010
060010
060020
060060
1fffe0
000000
000000
000000
ENDCHAR
STARTCHAR J2346
ENCODING 9030
SWIDTH 1059 0
DWIDTH 24 0
BBX 24 24 0 -2
BITMAP
000000
000000
0fffe0
030060
030020
030010
030010
030000
030100
030100
030300
03ff00
030300
030100
030100
030000
030000
030000
030000
030000
0fc000
000000
000000
000000
ENDCHAR
STARTCHAR J2347
ENCODING 9031
SWIDTH 1059 0
DWIDTH 24 0
BBX 24 24 0 -2
BITMAP
000000
000000
003c00
00c320
0300e0
060060
0c0020
0c0020
180000
180000
180000
180000
1803fc
180060
180060
0c0060
0c0060
060060
0300e0
00c320
003c20
000000
000000
000000
ENDCHAR
STARTCHAR J2348
ENCODING 9032
SWIDTH 1059 0
DWIDTH 24 0
BBX 24 24 0 -2
BITMAP
000000
000000
1f81f8
060060
060060
060060
060060
060060
060060
060060
060060
07ffe0
060060
060060
060060
060060
060060
060060
060060
060060
1f81f8
000000
000000
000000
ENDCHAR
STARTCHAR J2349
ENCODING 9033
SWIDTH 1059 0
DWIDTH 24 0
BBX 24 24 0 -2
BITMAP
000000
000000
00ff00
001800
001800
001800
001800
001800
001800
001800
001800
001800
001800
001800
001800
001800
001800
001800
001800
001800
00ff00
000000
000000
000000
ENDCHAR
STARTCHAR J234a
ENCODING 9034
SWIDTH 1059 0
DWIDTH 24 0
BBX 24 24 0 -2
BITMAP
000000
000000
001fe0
000300
000300
000300
000300
000300
000300
000300
000300
000300
000300
000300
000300
030300
070300
060600
060600
030c00
00f000
000000
000000
000000
ENDCHAR
STARTCHAR J234b
ENCODING 9035
SWIDTH 1059 0
DWIDTH 24 0
BBX 24 24 0 -2
BITMAP
000000
000000
1f87e0
060180
060100
060200
060400
060800
061000
062000
066000
06f000
073800
061c00
060c00
060600
060700
060380
0601c0
0600e0
1f83f8
000000
000000
000000
ENDCHAR
STARTCHAR J234c
ENCODING 9036
SWIDTH 1059 0
DWIDTH 24 0
BBX 24 24 0 -2
BITMAP
000000
000000
0fc000
030000
030000
030000
030000
030000
030000
030000
030000
030000
030000
030000
030000
030000
030008
030008
030010
030030
0ffff0
000000
000000
000000
ENDCHAR
STARTCHAR J234d
ENCODING 9037
SWIDTH 1059 0
DWIDTH 24 0
BBX 24 24 0 -2
BITMAP
000000
000000
3f00fc
0b00b0
0b00b0
098130
098130
098130
098130
08c230
08c230
08c230
08c430
086430
086430
086830
082830
083830
083830
081030
3e10fc
000000
000000
000000
ENDCHAR
STARTCHAR J234e
ENCODING 9038
SWIDTH 1059 0
DWIDTH 24 0
BBX 24 24 0 -2
BITMAP
000000
000000
1f00f8
070020
058020
05c020
04c020
046020
047020
043020
041820
041c20
040c20
040620
040720
0403a0
0401a0
0400e0
0400e0
040060
1f0020
000000
000000
000000
ENDCHAR
STARTCHAR J234f
ENCODING 9039
SWIDTH 1059 0
DWIDTH 24 0
BBX 24 24 0 -2
BITMAP
000000
000000
007e00
018180
0300c0
060060
0c0030
0c0030
180018
180018
180018
180018
180018
180018
180018
0c0030
0c0030
060060
0300c0
018180
007e00
000000
000000
000000
ENDCHAR
STARTCHAR J2350
ENCODING 9040
SWIDTH 1059 0
DWIDTH 24 0
BBX 24 24 0 -2
BITMAP
000000
000000
0fff00
0300c0
030060
030030
030030
030030
030030
030030
030060
0300c0
03ff00
030000
030000
030000
030000
030000
030000
030000
0fc000
000000
000000
000000
ENDCHAR
STARTCHAR J2351
ENCODING 9041
SWIDTH 1059 0
DWIDTH 24 0
BBX 24 24 0 -2
BITMAP
000000
000000
007e00
018180
0300c0
060060
0c0030
0c0030
180018
180018
180018
180018
180018
180018
180018
0c0030
0c7830
068420
030240
00c280
003f04
000184
0000f8
000070
ENDCHAR
STARTCHAR J2352
ENCODING 9042
SWIDTH 1059 0
DWIDTH 24 0
BBX 24 24 0 -2
BITMAP
000000
000000
1ffe00
060180
0600c0
060060
060060
060060
060060
0600c0
060300
07fc00
060200
060100
060180
060180
060180
060180
060184
0601c8
1f80f0
000000
000000
000000
ENDCHAR
STARTCHAR J2353
ENCODING 9043
SWIDTH 1059 0
DWIDTH 24 0
BBX 24 24 0 -2
BITMAP
000000
000000
007c20
0183e0
0300e0
060060
060020
060020
070000
03c000
00f800
003f00
0007c0
0000e0
000070
040030
040030
060030
070060
07c0c0
043f00
000000
000000
000000
ENDCHAR
STARTCHAR J2354
ENCODING 9044
SWIDTH 1059 0
DWIDTH 24 0
BBX 24 24 0 -2
BITMAP
000000
000000
1ffff8
181818
101808
201804
201804
001800
001800
001800
001800
001800
001800
001800
001800
001800
001800
001800
001800
001800
007e00
000000
000000
000000
ENDCHAR
STARTCHAR J2355
ENCODING 9045
SWIDTH 1059 0
DWIDTH 24 0
BBX 24 24 0 -2
BITMAP
000000
000000
1f80f8
060020
060020
060020
060020
060020
060020
060020
060020
060020
060020
060020
060020
060020
060020
030040
030040
01c180
007e00
000000
000000
000000
ENDCHAR
STARTCHAR J2356
ENCODING 9046
SWIDTH 1059 0
DWIDTH 24 0
BBX 24 24 0 -2
BITMAP
000000
000000
3f80fc
0e0030
060020
060020
030040
030040
030040
018080
018080
00c100
00c100
00c100
006200
006200
003400
003400
001c00
001800
000800
000000
000000
000000
ENDCHAR
STARTCHAR J2357
ENCODING 9047
SWIDTH 1059 0
DWIDTH 24 0
BBX 24 24 0 -2
BITMAP
000000
000000
fe7f3f
381c0c
181c08
181c08
182608
0c2610
0c2610
0c2610
0c4610
0c4320
064320
064320
064320
068340
028140
028140
0381c0
010080
010080
000000
000000
000000
ENDCHAR
STARTCHAR J2358
ENCODING 9048
SWIDTH 1059 0
DWIDTH 24 0
BBX 24 24 0 -2
BITMAP
000000
000000
1f80f8
070060
030040
018080
01c100
00c100
006200
007400
003800
001800
001c00
002e00
004700
004300
008180
0101c0
0200e0
060070
1f00fc
000000
000000
000000
ENDCHAR
STARTCHAR J2359
ENCODING 9049
SWIDTH 1059 0
DWIDTH 24 0
BBX 24 24 0 -2
BITMAP
000000
000000
3f80fc
0e0030
060020
030040
038080
018080
00c100
00e200
006200
003400
003800
001800
001800
001800
001800
001800
001800
001800
007e00
000000
000000
000000
ENDCHAR
STARTCHAR J235a
ENCODING 9050
SWIDTH 1059 0
DWIDTH 24 0
BBX 24 24 0 -2
BITMAP
000000
000000
07fff0
0600e0
0401c0
080180
080380
000700
000600
000c00
001c00
003800
003000
006000
00e000
01c000
018010
030010
070020
0e0060
1fffe0
000000
000000
000000
ENDCHAR
STARTCHAR J235b
ENCODING 9051
SWIDTH 1059 0
DWIDTH 24 0
BBX 24 24 0 -2
BITMAP
000000
0000fc
0000c0
0000c0
0000c0
0000c0
0000c0
0000c0
0000c0
0000c0
0000c0
0000c0
0000c0
0000c0
0000c0
0000c0
0000c0
0000c0
0000c0
0000c0
0000c0
0000c0
0000fc
000000
ENDCHAR
STARTCHAR J235c
ENCODING 9052
SWIDTH 1059 0
DWIDTH 24 0
BBX 24 24 0 -2
BITMAP
000000
fc7e3e
383808
383808
383818
1c1c10
1c1c10
7ffffe
1c1c30
1c1c20
0e1e20
7ffffe
0e2e20
0e2e60
076740
074740
074740
07c7c0
038380
038380
038380
000000
000000
000000
ENDCHAR
STARTCHAR J235d
ENCODING 9053
SWIDTH 1059 0
DWIDTH 24 0
BBX 24 24 0 -2
BITMAP
000000
3f0000
030000
030000
030000
030000
030000
030000
030000
030000
030000
030000
030000
030000
030000
030000
030000
030000
030000
030000
030000
030000
3f0000
000000
ENDCHAR
STARTCHAR J235e
ENCODING 9054
SWIDTH 1059 0
DWIDTH 24 0
BBX 24 24 0 -2
BITMAP
000000
001000
003800
006c00
00c600
018300
000000
000000
000000
000000
000000
000000
000000
000000
000000
000000
000000
000000
000000
000000
000000
000000
000000
000000
ENDCHAR
STARTCHAR J235f
ENCODING 9055
SWIDTH 1059 0
DWIDTH 24 0
BBX 24 24 0 -2
BITMAP
000000
000000
000000
000000
000000
000000
000000
000000
000000
000000
000000
000000
000000
000000
000000
000000
000000
000000
000000
000000
000000
000000
ffffff
000000
ENDCHAR
STARTCHAR J2360
ENCODING 9056
SWIDTH 1059 0
DWIDTH 24 0
BBX 24 24 0 -2
BITMAP
000000
008000
006000
003000
001c00
000e00
000700
000700
000000
000000
000000
000000
000000
000000
000000
000000
000000
000000
000000
000000
000000
000000
000000
000000
ENDCHAR
STARTCHAR J2361
ENCODING 9057
SWIDTH 1059 0
DWIDTH 24 0
BBX 24 24 0 -2
BITMAP
000000
000000
000000
000000
000000
000000
000000
000000
00fc00
038300
030180
000180
000180
001f80
00e180
030180
060180
060180
060190
030790
00f8e0
000000
000000
000000
ENDCHAR
STARTCHAR J2362
ENCODING 9058
SWIDTH 1059 0
DWIDTH 24 0
BBX 24 24 0 -2
BITMAP
000000
000000
030000
0f0000
030000
030000
030000
030000
031e00
036180
0380c0
0300c0
030060
030060
030060
030060
030060
0300c0
0300c0
03c180
023e00
000000
000000
000000
ENDCHAR
STARTCHAR J2363
ENCODING 9059
SWIDTH 1059 0
DWIDTH 24 0
BBX 24 24 0 -2
BITMAP
000000
000000
000000
000000
000000
000000
000000
000000
003e00
00c180
0180c0
0300c0
030000
060000
060000
060000
030000
030000
018040
00c180
003e00
000000
000000
000000
ENDCHAR
STARTCHAR J2364
ENCODING 9060
SWIDTH 1059 0
DWIDTH 24 0
BBX 24 24 0 -2
BITMAP
000000
000000
0000c0
0003c0
0000c0
0000c0
0000c0
0000c0
0078c0
0186c0
0301c0
0300c0
0600c0
0600c0
0600c0
0600c0
0600c0
0300c0
0300c0
0183c0
007cf0
000000
000000
000000
ENDCHAR
STARTCHAR J2365
ENCODING 9061
SWIDTH 1059 0
DWIDTH 24 0
BBX 24 24 0 -2
BITMAP
000000
000000
000000
000000
000000
000000
000000
000000
003c00
00c300
018180
030180
0300c0
07ffc0
060000
060000
030000
030000
018040
00c180
003e00
000000
000000
000000
ENDCHAR
STARTCHAR J2366
ENCODING 9062
SWIDTH 1059 0
DWIDTH 24 0
BBX 24 24 0 -2
BITMAP
000000
000000
000380
000cc0
0018c0
001800
003000
003000
03ff00
003000
003000
003000
003000
003000
003000
003000
003000
003000
003000
003000
01fe00
000000
000000
000000
ENDCHAR
STARTCHAR J2367
ENCODING 9063
SWIDTH 1059 0
DWIDTH 24 0
BBX 24 24 0 -2
BITMAP
000000
000000
000000
000000
000000
000000
000000
000060
007cf0
018330
030180
030180
030180
018300
007c00
008000
018000
00ff00
013fc0
0200e0
060060
060060
0300c0
00ff00
ENDCHAR
STARTCHAR J2368
ENCODING 9064
SWIDTH 1059 0
DWIDTH 24 0
BBX 24 24 0 -2
BITMAP
000000
000000
030000
0f0000
030000
030000
030000
030000
031e00
036180
0380c0
0300c0
0300c0
0300c0
0300c0
0300c0
0300c0
0300c0
0300c0
0300c0
0fc3f0
000000
000000
000000
ENDCHAR
STARTCHAR J2369
ENCODING 9065
SWIDTH 1059 0
DWIDTH 24 0
BBX 24 24 0 -2
BITMAP
000000
000000
003800
003800
003800
000000
000000
000000
00f800
001800
001800
001800
001800
001800
001800
001800
001800
001800
001800
001800
00ff00
000000
000000
000000
ENDCHAR
STARTCHAR J236a
ENCODING 9066
SWIDTH 1059 0
DWIDTH 24 0
BBX 24 24 0 -2
BITMAP
000000
000000
000e00
000e00
000e00
000000
000000
000000
001e00
000600
000600
000600
000600
000600
000600
000600
000600
000600
000600
000600
000c00
060c00
061800
03e000
ENDCHAR
STARTCHAR J236b
ENCODING 9067
SWIDTH 1059 0
DWIDTH 24 0
BBX 24 24 0 -2
BITMAP
000000
000000
030000
0f0000
030000
030000
030000
030000
0307e0
030100
030200
030400
030800
033000
037800
039c00
030e00
030700
030380
0301c0
0fc7f0
000000
000000
000000
ENDCHAR
STARTCHAR J236c
ENCODING 9068
SWIDTH 1059 0
DWIDTH 24 0
BBX 24 24 0 -2
BITMAP
000000
000000
001800
007800
001800
001800
001800
001800
001800
001800
001800
001800
001800
001800
001800
001800
001800
001800
001800
001800
007e00
000000
000000
000000
ENDCHAR
STARTCHAR J236d
ENCODING 9069
SWIDTH 1059 0
DWIDTH 24 0
BBX 24 24 0 -2
BITMAP
000000
000000
000000
000000
000000
000000
000000
000000
0ce1c0
3f1620
0c1830
0c1830
0c1830
0c1830
0c1830
0c1830
0c1830
0c1830
0c1830
0c1830
3e3c7c
000000
000000
000000
ENDCHAR
STARTCHAR J236e
ENCODING 9070
SWIDTH 1059 0
DWIDTH 24 0
BBX 24 24 0 -2
BITMAP
000000
000000
000000
000000
000000
000000
000000
000000
019e00
07e180
0180c0
0180c0
0180c0
0180c0
0180c0
0180c0
0180c0
0180c0
0180c0
0180c0
07e3f0
000000
000000
000000
ENDCHAR
STARTCHAR J236f
ENCODING 9071
SWIDTH 1059 0
DWIDTH 24 0
BBX 24 24 0 -2
BITMAP
000000
000000
000000
000000
000000
000000
000000
000000
003c00
00c300
018180
0300c0
0300c0
060060
060060
060060
0300c0
0300c0
018180
00c300
003c00
000000
000000
000000
ENDCHAR
STARTCHAR J2370
ENCODING 9072
SWIDTH 1059 0
DWIDTH 24 0
BBX 24 24 0 -2
BITMAP
000000
000000
000000
000000
000000
000000
000000
000000
031e00
0f6180
0380c0
0300c0
030060
030060
030060
0300c0
0300c0
03c180
033e00
030000
030000
030000
030000
0fc000
ENDCHAR
STARTCHAR J2371
ENCODING 9073
SWIDTH 1059 0
DWIDTH 24 0
BBX 24 24 0 -2
BITMAP
000000
000000
000000
000000
000000
000000
000000
000000
007c40
0183c0
0300c0
0300c0
0600c0
0600c0
0600c0
0300c0
0300c0
0183c0
007cc0
0000c0
0000c0
0000c0
0000c0
0003f0
ENDCHAR
STARTCHAR J2372
ENCODING 9074
SWIDTH 1059 0
DWIDTH 24 0
BBX 24 24 0 -2
BITMAP
000000
000000
000000
000000
000000
000000
000000
000000
00c1c0
03c7e0
00cc60
00d000
00e000
00c000
00c000
00c000
00c000
00c000
00c000
00c000
03f000
000000
000000
000000
ENDCHAR
STARTCHAR J2373
ENCODING 9075
SWIDTH 1059 0
DWIDTH 24 0
BBX 24 24 0 -2
BITMAP
000000
000000
000000
000000
000000
000000
000000
000000
007c80
018380
030180
030080
038000
01f800
007f00
000780
0001c0
0200c0
0300c0
038180
027e00
000000
000000
000000
ENDCHAR
STARTCHAR J2374
ENCODING 9076
SWIDTH 1059 0
DWIDTH 24 0
BBX 24 24 0 -2
BITMAP
000000
000000
006000
006000
006000
006000
006000
006000
07ff00
006000
006000
006000
006000
006000
006000
006000
006000
006040
006040
003080
000f00
000000
000000
000000
ENDCHAR
STARTCHAR J2375
ENCODING 9077
SWIDTH 1059 0
DWIDTH 24 0
BBX 24 24 0 -2
BITMAP
000000
000000
000000
000000
000000
000000
000000
000000
030180
0f0780
030180
030180
030180
030180
030180
030180
030180
030180
030180
018780
0079e0
000000
000000
000000
ENDCHAR
STARTCHAR J2376
ENCODING 9078
SWIDTH 1059 0
DWIDTH 24 0
BBX 24 24 0 -2
BITMAP
000000
000000
000000
000000
000000
000000
000000
000000
0fc1f0
030040
018040
018080
00c080
00c100
006100
006200
003200
003400
001c00
001800
000800
000000
000000
000000
ENDCHAR
STARTCHAR J2377
ENCODING 9079
SWIDTH 1059 0
DWIDTH 24 0
BBX 24 24 0 -2
BITMAP
000000
000000
000000
000000
000000
000000
000000
000000
7e7e7e
181818
181810
0c2c10
0c2c10
0c2620
064620
064320
064340
028140
0381c0
010080
010080
000000
000000
000000
ENDCHAR
STARTCHAR J2378
ENCODING 9080
SWIDTH 1059 0
DWIDTH 24 0
BBX 24 24 0 -2
BITMAP
000000
000000
000000
000000
000000
000000
000000
000000
0fe3f0
038080
01c100
00e200
007400
003800
001c00
002e00
004700
008380
0101c0
0200e0
0f83f8
000000
000000
000000
ENDCHAR
STARTCHAR J2379
ENCODING 9081
SWIDTH 1059 0
DWIDTH 24 0
BBX 24 24 0 -2
BITMAP
000000
000000
000000
000000
000000
000000
000000
000000
07e1f0
018040
018080
00c080
00c100
006100
006200
003200
003400
001c00
000800
001000
001000
0c2000
0c4000
078000
ENDCHAR
STARTCHAR J237a
ENCODING 9082
SWIDTH 1059 0
DWIDTH 24 0
BBX 24 24 0 -2
BITMAP
000000
000000
000000
000000
000000
000000
000000
000000
03ffc0
030380
020700
040600
000e00
001c00
003800
007000
006000
00e020
01c040
0380c0
07ffc0
000000
000000
000000
ENDCHAR
STARTCHAR J237b
ENCODING 9083
SWIDTH 1059 0
DWIDTH 24 0
BBX 24 24 0 -2
BITMAP
000000
00001c
000030
000060
000060
000060
000060
000060
000060
000060
000060
0000c0
0000c0
000060
000060
000060
000060
000060
000060
000060
000060
000030
00001c
000000
ENDCHAR
STARTCHAR J237c
ENCODING 9084
SWIDTH 1059 0
DWIDTH 24 0
BBX 24 24 0 -2
BITMAP
001800
001800
001800
001800
001800
001800
001800
001800
001800
001800
001800
001800
001800
001800
001800
001800
001800
001800
001800
001800
001800
001800
001800
001800
ENDCHAR
STARTCHAR J237d
ENCODING 9085
SWIDTH 1059 0
DWIDTH 24 0
BBX 24 24 0 -2
BITMAP
000000
380000
0c0000
060000
060000
060000
060000
060000
060000
060000
060000
030000
030000
060000
060000
060000
060000
060000
060000
060000
060000
0c0000
380000
000000
ENDCHAR
STARTCHAR J237e
ENCODING 9086
SWIDTH 1059 0
DWIDTH 24 0
BBX 24 24 0 -2
BITMAP
000000
ffffff
000000
000000
000000
000000
000000
000000
000000
000000
000000
000000
000000
000000
000000
000000
000000
000000
000000
000000
000000
000000
000000
000000
ENDCHAR
STARTCHAR J2421
ENCODING 9249
SWIDTH 1059 0
DWIDTH 24 0
BBX 24 24 0 -2
BITMAP
000000
000000
000000
000000
000000
0800c0
07ffe0
0200c0
0000c0
0000c0
0000c0
0000c0
0000c0
0000c0
0000c0
0000c0
0000c0
0000c0
000080
000000
000000
000000
000000
000000
ENDCHAR
STARTCHAR J2422
ENCODING 9250
SWIDTH 1059 0
DWIDTH 24 0
BBX 24 24 0 -2
BITMAP
000000
000000
000000
000000
000000
101830
0ffff8
041830
001830
001830
001830
001830
001830
001830
001830
001830
001830
001830
001020
000000
000000
000000
000000
000000
ENDCHAR
STARTCHAR J2423
ENCODING 9251
SWIDTH 1059 0
DWIDTH 24 0
BBX 24 24 0 -2
BITMAP
000000
000000
000000
000000
000380
4060e0
3ff0c0
1060c0
0060c0
0060c0
006180
006180
0061c0
006320
006330
006618
00640c
00680e
005006
000000
000000
000000
000000
000000
ENDCHAR
STARTCHAR J2424
ENCODING 9252
SWIDTH 1059 0
DWIDTH 24 0
BBX 24 24 0 -2
BITMAP
000000
000000
000000
000000
000000
000000
000000
0c0000
070000
030000
030000
030000
030000
030000
030000
030060
01fff0
000000
000000
000000
000000
000000
000000
000000
ENDCHAR
STARTCHAR J2425
ENCODING 9253
SWIDTH 1059 0
DWIDTH 24 0
BBX 24 24 0 -2
BITMAP
000000
000000
000000
000000
000000
000000
608030
387ff8
182300
180300
180300
180380
180640
180620
186c30
1f9818
0e301c
00c00c
000000
000000
000000
000000
000000
000000
ENDCHAR
STARTCHAR J2426
ENCODING 9254
SWIDTH 1059 0
DWIDTH 24 0
BBX 24 24 0 -2
BITMAP
000000
000000
000000
000000
001040
000fe0
000000
608018
387ffc
182000
180000
180380
180c60
181830
181830
187830
1f9830
0e0c60
000380
000000
000000
000000
000000
000000
ENDCHAR
STARTCHAR J2427
ENCODING 9255
SWIDTH 1059 0
DWIDTH 24 0
BBX 24 24 0 -2
BITMAP
000000
000000
000000
000000
000000
000000
0e00c0
03ffe0
030000
030000
030000
030000
030000
030000
030000
030000
030060
01fff0
000000
000000
000000
000000
000000
000000
ENDCHAR
STARTCHAR J2428
ENCODING 9256
SWIDTH 1059 0
DWIDTH 24 0
BBX 24 24 0 -2
BITMAP
000000
000000
000000
000000
000000
000000
385860
0feff0
0c0c00
0c0c00
0c0c00
0c0c00
0c0c00
0c0c00
0c1c00
0c6c00
0fcc30
0707f8
000000
000000
000000
000000
000000
000000
ENDCHAR
STARTCHAR J2429
ENCODING 9257
SWIDTH 1059 0
DWIDTH 24 0
BBX 24 24 0 -2
BITMAP
000000
000000
000000
000000
000000
080180
07ffc0
020180
000180
000100
0e0100
03ffc0
030000
030000
030000
030000
030000
0300c0
01ffe0
000000
000000
000000
000000
000000
ENDCHAR
STARTCHAR J242a
ENCODING 9258
SWIDTH 1059 0
DWIDTH 24 0
BBX 24 24 0 -2
BITMAP
000000
000000
000000
000000
000000
40d030
3feff8
10c430
00c030
008030
008030
3fc030
180030
180030
183030
18e030
1f8030
0e0030
000020
000000
000000
000000
000000
000000
ENDCHAR
STARTCHAR J242b
ENCODING 9259
SWIDTH 1059 0
DWIDTH 24 0
BBX 24 24 0 -2
BITMAP
000000
000000
000000
000000
000000
40dc18
3fe7fc
10c618
00c618
008618
008618
7fc618
180618
180618
180610
180610
187610
1fc7fc
0e0600
000000
000000
000000
000000
000000
ENDCHAR
STARTCHAR J242c
ENCODING 9260
SWIDTH 1059 0
DWIDTH 24 0
BBX 24 24 0 -2
BITMAP
000000
000000
000000
000000
000000
40c060
3ff838
10ce18
00c618
008618
008618
7fc7f8
180618
180618
180618
180618
187618
1fc7f8
0e0410
000000
000000
000000
000000
000000
ENDCHAR
STARTCHAR J242d
ENCODING 9261
SWIDTH 1059 0
DWIDTH 24 0
BBX 24 24 0 -2
BITMAP
000000
000000
000000
000000
000600
40c380
3fe1c0
10c180
00c180
00c180
008180
3fc340
180320
180630
180618
186c18
1f980c
0e600c
000000
000000
000000
000000
000000
000000
ENDCHAR
STARTCHAR J242e
ENCODING 9262
SWIDTH 1059 0
DWIDTH 24 0
BBX 24 24 0 -2
BITMAP
000000
000000
000000
000000
000000
40dc30
3fe7f8
10c600
00c600
008600
008630
7fc7f8
180600
180600
180600
180600
18e600
1f8618
0e03fc
000000
000000
000000
000000
000000
ENDCHAR
STARTCHAR J242f
ENCODING 9263
SWIDTH 1059 0
DWIDTH 24 0
BBX 24 24 0 -2
BITMAP
000000
000000
000000
000000
000000
40c030
3feff8
10c000
00c000
008818
008418
7fc618
180630
180320
180320
180320
186018
1f9ffc
0e0800
000000
000000
000000
000000
000000
ENDCHAR
STARTCHAR J2430
ENCODING 9264
SWIDTH 1059 0
DWIDTH 24 0
BBX 24 24 0 -2
BITMAP
000000
000000
000000
000000
000000
40c420
3fe3f0
10c000
00e018
009ffc
008800
3fc000
1801c0
180630
180c18
180c18
186c18
1f8630
0e01c0
000000
000000
000000
000000
000000
ENDCHAR
STARTCHAR J2431
ENCODING 9265
SWIDTH 1059 0
DWIDTH 24 0
BBX 24 24 0 -2
BITMAP
000000
000000
000000
000000
000000
0e00c0
03ffe0
0300c0
0300c0
0300c0
0300c0
0300c0
030080
030080
030080
030080
03ffe0
030000
000000
000000
000000
000000
000000
000000
ENDCHAR
STARTCHAR J2432
ENCODING 9266
SWIDTH 1059 0
DWIDTH 24 0
BBX 24 24 0 -2
BITMAP
000000
000000
000000
000000
000180
0600e0
038060
018060
018060
018060
01ffe0
018060
018060
018060
018060
018060
018060
01ffe0
010040
000000
000000
000000
000000
000000
ENDCHAR
STARTCHAR J2433
ENCODING 9267
SWIDTH 1059 0
DWIDTH 24 0
BBX 24 24 0 -2
BITMAP
000000
000000
000000
000000
000060
000038
00cc18
187718
0e3318
063318
063318
07f3f8
063318
063318
063318
063318
063318
07f3f8
042210
000000
000000
000000
000000
000000
ENDCHAR
STARTCHAR J2434
ENCODING 9268
SWIDTH 1059 0
DWIDTH 24 0
BBX 24 24 0 -2
BITMAP
000000
000000
000000
000000
000000
000380
0180e0
60e0c0
3860c0
1860c0
1860c0
1fe0c0
1861a0
186190
186318
186308
18660c
1fec06
105006
000000
000000
000000
000000
000000
ENDCHAR
STARTCHAR J2435
ENCODING 9269
SWIDTH 1059 0
DWIDTH 24 0
BBX 24 24 0 -2
BITMAP
000000
000000
000000
000000
006000
003800
001c00
001800
001800
001800
001800
003400
003200
006100
00c180
0180c0
030060
060070
180030
000000
000000
000000
000000
000000
ENDCHAR
STARTCHAR J2436
ENCODING 9270
SWIDTH 1059 0
DWIDTH 24 0
BBX 24 24 0 -2
BITMAP
000000
000000
000000
000000
000300
0301c0
01c0e0
00e0c0
00c0c0
00c0c0
018180
018180
034340
033320
061e10
0c0c18
18180c
60300e
00c006
000000
000000
000000
000000
000000
ENDCHAR
STARTCHAR J2437
ENCODING 9271
SWIDTH 1059 0
DWIDTH 24 0
BBX 24 24 0 -2
BITMAP
000000
000000
000000
000000
000000
006000
003000
007c00
01c700
030180
0600c0
0600c0
0600c0
0600c0
0600c0
0600c0
030180
01c700
007c00
000000
000000
000000
000000
000000
ENDCHAR
STARTCHAR J2438
ENCODING 9272
SWIDTH 1059 0
DWIDTH 24 0
BBX 24 24 0 -2
BITMAP
000000
000000
000000
000000
000000
100060
0ffff0
041800
001800
001800
001800
003400
003200
006100
00c180
0180c0
030060
060070
180030
000000
000000
000000
000000
000000
ENDCHAR
STARTCHAR J2439
ENCODING 9273
SWIDTH 1059 0
DWIDTH 24 0
BBX 24 24 0 -2
BITMAP
000000
000000
000000
000000
000000
203018
1ffffc
098180
018180
018180
018180
034180
032340
063320
0c3610
180c18
30180c
40300e
00c006
000000
000000
000000
000000
000000
ENDCHAR
STARTCHAR J243a
ENCODING 9274
SWIDTH 1059 0
DWIDTH 24 0
BBX 24 24 0 -2
BITMAP
000000
000000
000000
000000
008200
007f00
000000
080060
07fff0
021800
001800
001800
003400
003200
006100
00c180
0180c0
0300e0
0c0060
000000
000000
000000
000000
000000
ENDCHAR
STARTCHAR J243b
ENCODING 9275
SWIDTH 1059 0
DWIDTH 24 0
BBX 24 24 0 -2
BITMAP
000000
000000
000000
000000
000000
040060
03fff0
010060
000060
000060
000060
0003e0
083c60
07e060
030060
000060
000060
000060
000040
000000
000000
000000
000000
000000
ENDCHAR
STARTCHAR J243c
ENCODING 9276
SWIDTH 1059 0
DWIDTH 24 0
BBX 24 24 0 -2
BITMAP
000000
000000
000000
000000
000000
0e0180
03ffc0
030000
030000
030000
030000
030300
03ff80
030000
030000
030000
030000
0300c0
01ffe0
000000
000000
000000
000000
000000
ENDCHAR
STARTCHAR J243d
ENCODING 9277
SWIDTH 1059 0
DWIDTH 24 0
BBX 24 24 0 -2
BITMAP
000000
000000
000000
000000
000000
0800c0
07ffe0
020000
000000
0100c0
0080c0
00c180
004180
006100
006100
006200
100230
0ffff8
040000
000000
000000
000000
000000
000000
ENDCHAR
STARTCHAR J243e
ENCODING 9278
SWIDTH 1059 0
DWIDTH 24 0
BBX 24 24 0 -2
BITMAP
000000
000000
000000
000000
000000
006000
003e00
000000
100030
0ffff8
042000
001800
007e00
01c380
0300c0
0300c0
0300c0
018180
00e700
003c00
000000
000000
000000
000000
ENDCHAR
STARTCHAR J243f
ENCODING 9279
SWIDTH 1059 0
DWIDTH 24 0
BBX 24 24 0 -2
BITMAP
000000
006000
003800
001800
001800
001800
001800
001800
001800
001800
001800
0018c0
001fe0
001800
001800
001800
001800
001800
001800
001800
001800
001800
001000
000000
ENDCHAR
STARTCHAR J2440
ENCODING 9280
SWIDTH 1059 0
DWIDTH 24 0
BBX 24 24 0 -2
BITMAP
000000
001800
000e00
030600
01c600
00c600
00c600
00c600
00c600
00c600
00c600
00c600
00fe00
00c600
00c600
00c600
00c600
00c600
00c600
00c600
008600
000600
000400
000000
ENDCHAR
STARTCHAR J2441
ENCODING 9281
SWIDTH 1059 0
DWIDTH 24 0
BBX 24 24 0 -2
BITMAP
000000
006000
003800
001800
001800
001800
001800
001800
001980
001fc0
001800
001800
001800
001980
001fc0
001800
001800
001800
001800
001800
001800
001800
001000
000000
ENDCHAR
STARTCHAR J2442
ENCODING 9282
SWIDTH 1059 0
DWIDTH 24 0
BBX 24 24 0 -2
BITMAP
000000
001800
000e00
030600
01c600
00c600
00c600
00c600
00fe00
00c600
00c600
00c600
00c600
00c600
00fe00
00c600
00c600
00c600
00c600
00c600
008600
000600
000400
000000
ENDCHAR
STARTCHAR J2443
ENCODING 9283
SWIDTH 1059 0
DWIDTH 24 0
BBX 24 24 0 -2
BITMAP
000000
000600
000380
000180
000180
000180
000180
000180
000180
000180
000180
000180
00ff80
007180
000180
000180
000180
000180
000180
000180
000180
000180
000100
000000
ENDCHAR
STARTCHAR J2444
ENCODING 9284
SWIDTH 1059 0
DWIDTH 24 0
BBX 24 24 0 -2
BITMAP
000000
000300
0001c0
0060c0
0038c0
0018c0
0018c0
0018c0
0018c0
0018c0
0018c0
03f8c0
0198c0
0018c0
0018c0
0018c0
0018c0
0018c0
0018c0
0018c0
0010c0
0000c0
000080
000000
ENDCHAR
STARTCHAR J2445
ENCODING 9285
SWIDTH 1059 0
DWIDTH 24 0
BBX 24 24 0 -2
BITMAP
000000
000600
000380
000180
000180
000180
000180
000180
00ff80
007180
000180
000180
000180
00ff80
007180
000180
000180
000180
000180
000180
000180
000180
000100
000000
ENDCHAR
STARTCHAR J2446
ENCODING 9286
SWIDTH 1059 0
DWIDTH 24 0
BBX 24 24 0 -2
BITMAP
000000
000300
0001c0
0060c0
0038c0
0018c0
0018c0
0018c0
0018c0
03f8c0
0198c0
0018c0
0018c0
03f8c0
0198c0
0018c0
0018c0
0018c0
0018c0
0018c0
0010c0
0000c0
000080
000000
ENDCHAR
STARTCHAR J2447
ENCODING 9287
SWIDTH 1059 0
DWIDTH 24 0
BBX 24 24 0 -2
BITMAP
000000
000000
000000
000000
000000
000000
000000
001800
000c00
000c00
000c00
000c00
000c00
000c00
400c0c
3ffffe
100000
000000
000000
000000
000000
000000
000000
000000
ENDCHAR
STARTCHAR J2448
ENCODING 9288
SWIDTH 1059 0
DWIDTH 24 0
BBX 24 24 0 -2
BITMAP
000000
000180
0000e0
000060
000060
000060
000060
00c060
006060
006060
00606c
00607e
006060
006060
0063e0
40fc60
3fc060
1c0060
000060
000060
000060
000060
000040
000000
ENDCHAR
STARTCHAR J2449
ENCODING 9289
SWIDTH 1059 0
DWIDTH 24 0
BBX 24 24 0 -2
BITMAP
000000
0000c0
000070
000c30
000730
000330
018330
00c330
00c330
00c330
00c330
00c330
00c3f0
00c330
40fb30
3fc330
1c0330
000330
000330
000330
000230
000030
000020
000000
ENDCHAR
STARTCHAR J244a
ENCODING 9290
SWIDTH 1059 0
DWIDTH 24 0
BBX 24 24 0 -2
BITMAP
000000
0000c0
000070
000030
000030
000030
000030
00c030
006030
006030
006030
006030
006030
006030
0063b0
40fc30
3fc030
1c0030
000030
000030
000030
000030
000020
000000
ENDCHAR
STARTCHAR J244b
ENCODING 9291
SWIDTH 1059 0
DWIDTH 24 0
BBX 24 24 0 -2
BITMAP
000000
000000
000000
000000
000000
000000
000000
000600
000300
018300
00c300
00c300
00c300
00c300
40c30c
3ffffe
100000
000000
000000
000000
000000
000000
000000
000000
ENDCHAR
STARTCHAR J244c
ENCODING 9292
SWIDTH 1059 0
DWIDTH 24 0
BBX 24 24 0 -2
BITMAP
000000
000000
000000
000000
000000
000000
000000
40000c
3ffffe
101800
001800
001800
001800
001800
001800
001800
001800
001800
001800
001800
001000
000000
000000
000000
ENDCHAR
STARTCHAR J244d
ENCODING 9293
SWIDTH 1059 0
DWIDTH 24 0
BBX 24 24 0 -2
BITMAP
000000
0000c0
000070
000030
000030
000030
000030
000030
000030
0003b0
403c30
3fe030
1cc030
00c030
00dff0
00c630
00c030
00c030
00c030
00c030
008030
000030
000020
000000
ENDCHAR
STARTCHAR J244e
ENCODING 9294
SWIDTH 1059 0
DWIDTH 24 0
BBX 24 24 0 -2
BITMAP
000000
0000c0
000070
000c30
000730
000330
000330
000330
000330
000330
41fb30
3f8330
198330
018330
01bf30
019330
018330
018330
018330
010230
000030
000030
000020
000000
ENDCHAR
STARTCHAR J244f
ENCODING 9295
SWIDTH 1059 0
DWIDTH 24 0
BBX 24 24 0 -2
BITMAP
000000
0000c0
000070
000030
000030
000030
000030
000030
000030
000030
0003b0
407c30
3fe030
1c6030
006030
006030
006030
006030
006030
006030
004030
000030
000020
000000
ENDCHAR
STARTCHAR J2450
ENCODING 9296
SWIDTH 1059 0
DWIDTH 24 0
BBX 24 24 0 -2
BITMAP
000000
000000
000000
000000
000000
000000
000000
40000c
3ffffe
10c300
00c300
00c300
00c300
00c300
00c300
00c300
00c300
00c300
008300
000300
000200
000000
000000
000000
ENDCHAR
STARTCHAR J2451
ENCODING 9297
SWIDTH 1059 0
DWIDTH 24 0
BBX 24 24 0 -2
BITMAP
000000
000000
000000
000000
000000
000000
000000
000000
000000
000000
000000
20000c
1ffffe
080000
000000
000000
000000
000000
000000
000000
000000
000000
000000
000000
ENDCHAR
STARTCHAR J2452
ENCODING 9298
SWIDTH 1059 0
DWIDTH 24 0
BBX 24 24 0 -2
BITMAP
000000
0000c0
000070
000030
000030
000030
000030
000030
000030
000030
000030
000030
0003b0
407c30
3fe030
1c0030
000030
000030
000030
000030
000030
000030
000020
000000
ENDCHAR
STARTCHAR J2453
ENCODING 9299
SWIDTH 1059 0
DWIDTH 24 0
BBX 24 24 0 -2
BITMAP
000000
006000
003800
001800
001800
001800
001800
001800
001800
001800
001800
001800
001800
001800
001800
001800
001800
001800
001800
001800
001800
001800
001000
000000
ENDCHAR
STARTCHAR J2454
ENCODING 9300
SWIDTH 1059 0
DWIDTH 24 0
BBX 24 24 0 -2
BITMAP
000000
000000
000000
000000
000000
000000
000000
000000
000000
000000
000000
000000
000000
000000
000000
000000
000000
000000
000000
000000
000000
000000
000000
000000
ENDCHAR
STARTCHAR J2455
ENCODING 9301
SWIDTH 1059 0
DWIDTH 24 0
BBX 24 24 0 -2
BITMAP
000000
000000
000000
000000
000000
000000
603000
381c00
180c00
180c00
180c00
180c00
180c00
180c00
186c00
1f8c18
0e07fc
000000
000000
000000
000000
000000
000000
000000
ENDCHAR
STARTCHAR J2456
ENCODING 9302
SWIDTH 1059 0
DWIDTH 24 0
BBX 24 24 0 -2
BITMAP
000000
000000
000000
000000
000000
000000
601830
380ff8
180c00
180c00
180c00
180c00
180c00
180c00
186c00
1f8c18
0e07fc
000000
000000
000000
000000
000000
000000
000000
ENDCHAR
STARTCHAR J2457
ENCODING 9303
SWIDTH 1059 0
DWIDTH 24 0
BBX 24 24 0 -2
BITMAP
000000
000000
000000
000000
000000
000380
0000e0
6000c0
3000c0
1800c0
180180
180180
180340
180320
180630
18ec18
1f880c
0e100e
002006
000000
000000
000000
000000
000000
ENDCHAR
STARTCHAR J2458
ENCODING 9304
SWIDTH 1059 0
DWIDTH 24 0
BBX 24 24 0 -2
BITMAP
000000
000000
000000
000000
000000
000080
600080
3801c0
180140
180360
180220
180630
180410
180c18
180808
18f80c
1f9004
0e3ffe
000000
000000
000000
000000
000000
000000
ENDCHAR
STARTCHAR J2459
ENCODING 9305
SWIDTH 1059 0
DWIDTH 24 0
BBX 24 24 0 -2
BITMAP
000000
000000
000000
000000
000000
0000c0
868670
7f7f38
262630
060630
060630
040630
7e0670
300668
3006c4
300cc6
330c86
3c0903
181603
000000
000000
000000
000000
000000
ENDCHAR
STARTCHAR J245a
ENCODING 9306
SWIDTH 1059 0
DWIDTH 24 0
BBX 24 24 0 -2
BITMAP
000000
000000
000000
000000
000000
40cc18
3fe7fc
10c600
00c600
008600
008600
7fc600
180600
180600
180600
180600
18660c
1f83fe
0e0000
000000
000000
000000
000000
000000
ENDCHAR
STARTCHAR J245b
ENCODING 9307
SWIDTH 1059 0
DWIDTH 24 0
BBX 24 24 0 -2
BITMAP
000000
000000
000000
000000
000000
0018c0
868e70
7f6638
266630
066630
066630
047e30
7e6670
306668
3066c4
3066c6
336686
3c7d03
184603
000000
000000
000000
000000
000000
ENDCHAR
STARTCHAR J245c
ENCODING 9308
SWIDTH 1059 0
DWIDTH 24 0
BBX 24 24 0 -2
BITMAP
000000
000000
000000
000000
000000
40c080
3fe080
10c1c0
00c140
008360
008220
7fc630
180410
180c18
180808
18180c
18f004
1f9ffe
0e0000
000000
000000
000000
000000
000000
ENDCHAR
STARTCHAR J245d
ENCODING 9309
SWIDTH 1059 0
DWIDTH 24 0
BBX 24 24 0 -2
BITMAP
000000
000000
000000
000000
000000
40c000
3fe000
10c000
00e018
009ffc
008800
3fc000
1801c0
180630
180c18
180c18
186c18
1f8630
0e01c0
000000
000000
000000
000000
000000
ENDCHAR
STARTCHAR J245e
ENCODING 9310
SWIDTH 1059 0
DWIDTH 24 0
BBX 24 24 0 -2
BITMAP
000000
000000
000000
000000
000000
000030
306c1c
1ff70c
18630c
18630c
18630c
1863fc
18630c
18630c
18430c
18430c
18430c
1fe3fc
100208
000000
000000
000000
000000
000000
ENDCHAR
STARTCHAR J245f
ENCODING 9311
SWIDTH 1059 0
DWIDTH 24 0
BBX 24 24 0 -2
BITMAP
000000
000000
000000
000000
000600
60c380
3fe1c0
30c180
30c180
30c180
30c180
30c340
308320
308630
308618
3fec18
20180c
00600c
000000
000000
000000
000000
000000
000000
ENDCHAR
STARTCHAR J2460
ENCODING 9312
SWIDTH 1059 0
DWIDTH 24 0
BBX 24 24 0 -2
BITMAP
000000
000000
000000
000000
000000
60c080
3fe080
30c1c0
30c140
30c360
30c220
308630
308410
308c18
308808
30980c
3fd004
203ffe
000000
000000
000000
000000
000000
000000
ENDCHAR
STARTCHAR J2461
ENCODING 9313
SWIDTH 1059 0
DWIDTH 24 0
BBX 24 24 0 -2
BITMAP
000000
000000
180000
0ffff8
0c0030
0c0030
0c0030
0c0020
0c0020
0ffff0
080000
003000
001800
00ff00
0381c0
060060
0c0030
0c0030
0c0030
060060
0381c0
00ff00
000000
000000
ENDCHAR
STARTCHAR J2462
ENCODING 9314
SWIDTH 1059 0
DWIDTH 24 0
BBX 24 24 0 -2
BITMAP
000000
000000
000000
000000
000000
018000
60e818
3867fc
186218
186018
186018
1fe018
186018
186018
186018
186018
186018
1fe018
104010
000000
000000
000000
000000
000000
ENDCHAR
STARTCHAR J2463
ENCODING 9315
SWIDTH 1059 0
DWIDTH 24 0
BBX 24 24 0 -2
BITMAP
000000
000000
000000
000000
000000
018000
60ec30
3867f8
186600
186600
186600
1fe600
186600
186600
186600
186600
186618
1fe3fc
104000
000000
000000
000000
000000
000000
ENDCHAR
STARTCHAR J2464
ENCODING 9316
SWIDTH 1059 0
DWIDTH 24 0
BBX 24 24 0 -2
BITMAP
000000
000000
000000
000000
000000
0c6000
473a0c
331dfe
33188c
33180c
33180c
3f180c
33380c
33340c
33620c
33630c
33430c
3e818c
230188
000000
000000
000000
000000
000000
ENDCHAR
STARTCHAR J2465
ENCODING 9317
SWIDTH 1059 0
DWIDTH 24 0
BBX 24 24 0 -2
BITMAP
000000
000000
000000
000000
000000
18c000
8e7198
6638fc
6630c0
6630c0
6630c0
7e30c0
6670c0
6668c0
66c4c0
66c6c0
6686cc
7d037e
460300
000000
000000
000000
000000
000000
ENDCHAR
STARTCHAR J2466
ENCODING 9318
SWIDTH 1059 0
DWIDTH 24 0
BBX 24 24 0 -2
BITMAP
000000
000000
000000
000000
000000
03200c
61dffe
30c980
30c180
3fc180
30c180
30c340
30c340
30c620
30c630
3fcc18
30d81c
20a00c
000000
000000
000000
000000
000000
000000
ENDCHAR
STARTCHAR J2467
ENCODING 9319
SWIDTH 1059 0
DWIDTH 24 0
BBX 24 24 0 -2
BITMAP
000000
000000
000000
000000
000000
018000
60ec30
3867f8
186600
186600
186600
1fe618
1867fc
186600
186600
186600
186618
1fe3fc
104000
000000
000000
000000
000000
000000
ENDCHAR
STARTCHAR J2468
ENCODING 9320
SWIDTH 1059 0
DWIDTH 24 0
BBX 24 24 0 -2
BITMAP
000000
0000c0
180070
0c0030
0c0030
0ffff0
0c0030
0c0030
0c0030
0ffff0
080020
003000
001800
00ff00
0381c0
060060
0c0030
0c0030
0c0030
060060
0381c0
00ff00
000000
000000
ENDCHAR
STARTCHAR J2469
ENCODING 9321
SWIDTH 1059 0
DWIDTH 24 0
BBX 24 24 0 -2
BITMAP
000000
0180c0
18ec70
0c6630
0c6630
0fe7f0
0c6630
0c6630
0c6630
0fe7f0
084420
003000
001800
00ff00
0381c0
060060
0c0030
0c0030
0c0030
060060
0381c0
00ff00
000000
000000
ENDCHAR
STARTCHAR J246a
ENCODING 9322
SWIDTH 1059 0
DWIDTH 24 0
BBX 24 24 0 -2
BITMAP
000000
000000
000000
000000
070000
01d00c
018ffe
01840c
01800c
01800c
03000c
03000c
06800c
06400c
0c600c
18300c
10180c
201c08
400c08
000000
000000
000000
000000
000000
ENDCHAR
STARTCHAR J246b
ENCODING 9323
SWIDTH 1059 0
DWIDTH 24 0
BBX 24 24 0 -2
BITMAP
000000
000000
000000
000000
0e0000
03c000
019800
018e00
030600
030600
060600
060600
0d0600
0c8600
18c600
306600
20360c
403bfe
801800
000000
000000
000000
000000
000000
ENDCHAR
STARTCHAR J246c
ENCODING 9324
SWIDTH 1059 0
DWIDTH 24 0
BBX 24 24 0 -2
BITMAP
000000
000000
000000
000000
0e0000
038000
030c18
0307fc
030600
030600
060600
060600
0d0600
0c8600
18c600
306600
20360c
403bfe
801800
000000
000000
000000
000000
000000
ENDCHAR
STARTCHAR J246d
ENCODING 9325
SWIDTH 1059 0
DWIDTH 24 0
BBX 24 24 0 -2
BITMAP
000000
000000
000000
000000
0e0018
03800e
030606
030306
030306
030306
060306
0603fe
0d0306
0c8306
18c306
306306
203306
403bfe
801a04
000000
000000
000000
000000
000000
ENDCHAR
STARTCHAR J246e
ENCODING 9326
SWIDTH 1059 0
DWIDTH 24 0
BBX 24 24 0 -2
BITMAP
000000
000000
000000
000000
0e0000
038000
03200c
031ffe
0308c0
0300c0
0600c0
0600c0
0d0180
0c81a0
18c310
306318
20360c
403406
801806
000000
000000
000000
000000
000000
ENDCHAR
STARTCHAR J246f
ENCODING 9327
SWIDTH 1059 0
DWIDTH 24 0
BBX 24 24 0 -2
BITMAP
000000
000000
000000
000000
000000
001800
001800
002400
002400
006600
004200
00c300
008100
018180
010080
0300c0
020040
060060
0ffff0
000000
000000
000000
000000
000000
ENDCHAR
STARTCHAR J2470
ENCODING 9328
SWIDTH 1059 0
DWIDTH 24 0
BBX 24 24 0 -2
BITMAP
000000
000000
000000
000000
000000
0c00c0
060060
1f81f8
30c30c
606606
606606
606606
606606
606606
606606
606606
606606
30c30c
1f81f8
000000
000000
000000
000000
000000
ENDCHAR
STARTCHAR J2471
ENCODING 9329
SWIDTH 1059 0
DWIDTH 24 0
BBX 24 24 0 -2
BITMAP
000000
000000
000000
007000
001800
001800
007e00
01c380
0300c0
060060
0c0030
0c0030
0c0030
0c0030
0c0030
0c0030
0c0030
060060
0300c0
01c380
007e00
000000
000000
000000
ENDCHAR
STARTCHAR J2472
ENCODING 9330
SWIDTH 1059 0
DWIDTH 24 0
BBX 24 24 0 -2
BITMAP
000000
000000
000000
000000
0c0380
0600e0
1f80c0
30c0c0
6060c0
6060c0
606180
606180
606340
606320
606630
606618
606c0c
30d80e
1fa006
000000
000000
000000
000000
000000
ENDCHAR
STARTCHAR J2473
ENCODING 9331
SWIDTH 1059 0
DWIDTH 24 0
BBX 24 24 0 -2
BITMAP
000000
000000
000000
000000
0c0000
060080
1f8080
30c1c0
606140
606360
606220
606220
606630
606410
606410
606c18
606808
30d80c
1fbffe
000000
000000
000000
000000
000000
ENDCHAR
STARTCHAR J2474
ENCODING 9332
SWIDTH 1059 0
DWIDTH 24 0
BBX 24 24 0 -2
BITMAP
000000
000000
1000c0
0fffe0
040000
000700
060380
038300
218660
1ffff0
080000
003000
001800
00ff00
0381c0
060060
0c0030
0c0030
0c0030
060060
0381c0
00ff00
000000
000000
ENDCHAR
STARTCHAR J2475
ENCODING 9333
SWIDTH 1059 0
DWIDTH 24 0
BBX 24 24 0 -2
BITMAP
000000
000000
000000
000000
000000
210210
1f81f8
000000
40680c
3ff7fe
100200
000000
0700e0
18c318
30660c
30660c
30660c
18c318
0700e0
000000
000000
000000
000000
000000
ENDCHAR
STARTCHAR J2476
ENCODING 9334
SWIDTH 1059 0
DWIDTH 24 0
BBX 24 24 0 -2
BITMAP
000000
000000
000000
000000
000000
100030
0ffff8
040000
000000
001800
000c00
003f00
00c0c0
018060
018060
018060
018060
00c0c0
003f00
000000
000000
000000
000000
000000
ENDCHAR
STARTCHAR J2477
ENCODING 9335
SWIDTH 1059 0
DWIDTH 24 0
BBX 24 24 0 -2
BITMAP
000000
000180
0000e0
000060
000060
000060
000060
003060
001860
00186c
06187e
031860
031860
03186c
031bfe
43fc60
3fc060
1c0060
000060
000060
000060
000060
000040
000000
ENDCHAR
STARTCHAR J2478
ENCODING 9336
SWIDTH 1059 0
DWIDTH 24 0
BBX 24 24 0 -2
BITMAP
000000
0000c0
000070
000c30
000730
000330
00c330
006330
006330
0c63f0
066330
066330
066330
0663f0
46fb30
3fc330
1c0330
000330
000330
000330
000230
000030
000020
000000
ENDCHAR
STARTCHAR J2479
ENCODING 9337
SWIDTH 1059 0
DWIDTH 24 0
BBX 24 24 0 -2
BITMAP
000000
0000c0
000070
000030
000030
000030
000030
006030
003030
003030
063030
033030
033030
033030
0333b0
43fc30
3fc030
1c0030
000030
000030
000030
000030
000020
000000
ENDCHAR
STARTCHAR J247a
ENCODING 9338
SWIDTH 1059 0
DWIDTH 24 0
BBX 24 24 0 -2
BITMAP
000000
0000c0
000070
000030
000030
000030
000030
000030
000030
0003b0
407c30
3fd830
199bf0
0199b0
019830
019bf0
0199b0
019830
019830
019830
011030
000030
000020
000000
ENDCHAR
STARTCHAR J247b
ENCODING 9339
SWIDTH 1059 0
DWIDTH 24 0
BBX 24 24 0 -2
BITMAP
000000
0000c0
000070
000c30
000730
000330
000330
000330
000330
000330
41fb30
3f6330
167f30
066b30
066330
067f30
066b30
066330
066330
044230
000030
000030
000020
000000
ENDCHAR
STARTCHAR J247c
ENCODING 9340
SWIDTH 1059 0
DWIDTH 24 0
BBX 24 24 0 -2
BITMAP
000000
0000c0
000070
000030
000030
000030
000030
000030
000030
000030
0003b0
407c30
3fec30
198c30
018c30
018c30
018c30
018c30
018c30
018c30
010830
000030
000020
000000
ENDCHAR
STARTCHAR J247d
ENCODING 9341
SWIDTH 1059 0
DWIDTH 24 0
BBX 24 24 0 -2
BITMAP
000000
000000
000000
000000
000000
000000
000000
000000
000000
000000
003800
007c00
003800
000000
000000
000000
000000
000000
000000
000000
000000
000000
000000
000000
ENDCHAR
STARTCHAR J247e
ENCODING 9342
SWIDTH 1059 0
DWIDTH 24 0
BBX 24 24 0 -2
BITMAP
000000
000600
000380
000180
000180
000180
000180
000180
000180
000180
000180
000180
000180
01c180
03e180
01c180
000180
000180
000180
000180
000180
000180
000100
000000
ENDCHAR
STARTCHAR J2521
ENCODING 9505
SWIDTH 1059 0
DWIDTH 24 0
BBX 24 24 0 -2
BITMAP
000000
001800
001800
000000
000000
000000
000000
000000
001800
003800
001800
001800
001800
001800
001800
001800
001800
001800
001800
001800
003c00
000000
000000
000000
ENDCHAR
STARTCHAR J2522
ENCODING 9506
SWIDTH 1059 0
DWIDTH 24 0
BBX 24 24 0 -2
BITMAP
000000
00c300
00c300
000000
000000
000000
000000
00c300
01c700
00c300
00c300
00c300
00c300
00c300
00c300
00c300
00c300
00c300
00c300
00c300
01e780
000000
000000
000000
ENDCHAR
STARTCHAR J2523
ENCODING 9507
SWIDTH 1059 0
DWIDTH 24 0
BBX 24 24 0 -2
BITMAP
000000
0318c0
0318c0
000000
000000
000000
000000
0318c0
0739c0
0318c0
0318c0
0318c0
0318c0
0318c0
0318c0
0318c0
0318c0
0318c0
0318c0
0318c0
07bde0
000000
000000
000000
ENDCHAR
STARTCHAR J2524
ENCODING 9508
SWIDTH 1059 0
DWIDTH 24 0
BBX 24 24 0 -2
BITMAP
000000
0c0000
0c0000
000000
000000
000000
000000
0cf0f0
1c6060
0c6060
0c30c0
0c30c0
0c30c0
0c1980
0c1980
0c1980
0c0f00
0c0f00
0c0600
0c0600
1e0600
000000
000000
000000
ENDCHAR
STARTCHAR J2525
ENCODING 9509
SWIDTH 1059 0
DWIDTH 24 0
BBX 24 24 0 -2
BITMAP
000000
000000
000000
000000
000000
000000
000000
03c3c0
018180
018180
00c300
00c300
00c300
006600
006600
006600
003c00
003c00
001800
001800
001800
000000
000000
000000
ENDCHAR
STARTCHAR J2526
ENCODING 9510
SWIDTH 1059 0
DWIDTH 24 0
BBX 24 24 0 -2
BITMAP
000000
000060
000060
000000
000000
000000
000000
1e1e60
0c0ce0
0c0c60
061860
061860
061860
033060
033060
033060
01e060
01e060
00c060
00c060
00c0f0
000000
000000
000000
ENDCHAR
STARTCHAR J2527
ENCODING 9511
SWIDTH 1059 0
DWIDTH 24 0
BBX 24 24 0 -2
BITMAP
000000
00018c
00018c
000000
000000
000000
000000
78798c
30339c
30318c
18618c
18618c
18618c
0cc18c
0cc18c
0cc18c
07818c
07818c
03018c
03018c
0303de
000000
000000
000000
ENDCHAR
STARTCHAR J2528
ENCODING 9512
SWIDTH 1059 0
DWIDTH 24 0
BBX 24 24 0 -2
BITMAP
000000
000666
000666
000000
000000
000000
000000
f0f666
606eee
606666
30c666
30c666
30c666
30c666
198666
198666
198666
0f0666
0f0666
060666
060fff
000000
000000
000000
ENDCHAR
STARTCHAR J2529
ENCODING 9513
SWIDTH 1059 0
DWIDTH 24 0
BBX 24 24 0 -2
BITMAP
000000
180000
180000
000000
000000
000000
000000
18f078
386030
183060
1818c0
1818c0
180d80
180700
180700
180d80
1818c0
1818c0
183060
186030
3cf078
000000
000000
000000
ENDCHAR
STARTCHAR J252a
ENCODING 9514
SWIDTH 1059 0
DWIDTH 24 0
BBX 24 24 0 -2
BITMAP
000000
000000
000000
000000
000000
000000
000000
0781e0
0300c0
018180
00c300
006600
003c00
001800
001800
003c00
006600
00c300
018180
0300c0
0781e0
000000
000000
000000
ENDCHAR
STARTCHAR J2530
ENCODING 9520
SWIDTH 1059 0
DWIDTH 24 0
BBX 24 24 0 -2
BITMAP
000000
007e00
001800
001800
001800
001800
001800
001800
001800
001800
001800
001800
001800
001800
001800
001800
001800
001800
001800
001800
007e00
000000
000000
000000
ENDCHAR
STARTCHAR J2531
ENCODING 9521
SWIDTH 1059 0
DWIDTH 24 0
BBX 24 24 0 -2
BITMAP
000000
03ff80
00c600
00c600
00c600
00c600
00c600
00c600
00c600
00c600
00c600
00c600
00c600
00c600
00c600
00c600
00c600
00c600
00c600
00c600
03ff80
000000
000000
000000
ENDCHAR
STARTCHAR J2532
ENCODING 9522
SWIDTH 1059 0
DWIDTH 24 0
BBX 24 24 0 -2
BITMAP
000000
07ffe0
019980
019980
019980
019980
019980
019980
019980
019980
019980
019980
019980
019980
019980
019980
019980
019980
019980
019980
07ffe0
000000
000000
000000
ENDCHAR
STARTCHAR J2533
ENCODING 9523
SWIDTH 1059 0
DWIDTH 24 0
BBX 24 24 0 -2
BITMAP
000000
1ff9f8
066060
066060
066060
066060
066060
0630c0
0630c0
0630c0
0630c0
0630c0
061980
061980
061980
061980
060f00
060f00
060600
060600
1f8600
000000
000000
000000
ENDCHAR
STARTCHAR J2534
ENCODING 9524
SWIDTH 1059 0
DWIDTH 24 0
BBX 24 24 0 -2
BITMAP
000000
0fc3f0
0300c0
0300c0
0300c0
018180
018180
018180
018180
00c300
00c300
00c300
006600
006600
006600
003c00
003c00
003c00
001800
001800
001800
000000
000000
000000
ENDCHAR
STARTCHAR J2535
ENCODING 9525
SWIDTH 1059 0
DWIDTH 24 0
BBX 24 24 0 -2
BITMAP
000000
1f9ff8
060660
060660
060660
060660
030c60
030c60
030c60
030c60
030c60
019860
019860
019860
019860
019860
00f060
00f060
006060
006060
0061f8
000000
000000
000000
ENDCHAR
STARTCHAR J2536
ENCODING 9526
SWIDTH 1059 0
DWIDTH 24 0
BBX 24 24 0 -2
BITMAP
000000
7e3ffc
181b30
181b30
181b30
181b30
0c3330
0c3330
0c3330
0c3330
0c3330
066330
066330
066330
066330
066330
03c330
03c330
018330
018330
018ffc
000000
000000
000000
ENDCHAR
STARTCHAR J2537
ENCODING 9527
SWIDTH 1059 0
DWIDTH 24 0
BBX 24 24 0 -2
BITMAP
000000
f0ffff
606ccc
606ccc
606ccc
606ccc
30cccc
30cccc
30cccc
30cccc
30cccc
198ccc
198ccc
198ccc
198ccc
198ccc
0f0ccc
0f0ccc
060ccc
060ccc
063fff
000000
000000
000000
ENDCHAR
STARTCHAR J2538
ENCODING 9528
SWIDTH 1059 0
DWIDTH 24 0
BBX 24 24 0 -2
BITMAP
000000
3fc1f8
0d8060
0cc0c0
0cc0c0
0c6180
0c6300
0c3300
0c3600
0c1e00
0c0c00
0c1c00
0c1e00
0c3600
0c3300
0c6300
0cc180
0cc0c0
0d80c0
0f0060
3fc3f8
000000
000000
000000
ENDCHAR
STARTCHAR J2539
ENCODING 9529
SWIDTH 1059 0
DWIDTH 24 0
BBX 24 24 0 -2
BITMAP
000000
1f81f8
060060
0300c0
0300c0
018180
00c300
006300
006600
003600
003c00
001800
003c00
006600
006600
00c300
018180
0180c0
0300c0
060060
1f81f8
000000
000000
000000
ENDCHAR
STARTCHAR J2541
ENCODING 9537
SWIDTH 1059 0
DWIDTH 24 0
BBX 24 24 0 -2
BITMAP
000000
000c00
000c00
001e00
001e00
003e00
003700
006700
006700
006700
00c380
00c380
018380
01ff80
0301c0
0301c0
0601c0
0601c0
0c00e0
0c00e0
3f03f8
000000
000000
000000
ENDCHAR
STARTCHAR J2542
ENCODING 9538
SWIDTH 1059 0
DWIDTH 24 0
BBX 24 24 0 -2
BITMAP
000000
03ff00
00e1c0
00e060
00e070
00e070
00e070
00e070
01c0e0
01c1c0
01ff00
01c1c0
01c0e0
01c070
01c070
038070
038070
038070
0380e0
0383c0
0fff00
000000
000000
000000
ENDCHAR
STARTCHAR J2543
ENCODING 9539
SWIDTH 1059 0
DWIDTH 24 0
BBX 24 24 0 -2
BITMAP
000000
03ffe0
00e0e0
00e070
00e030
00e010
00e010
00e000
00e000
01c000
01c000
01c000
01c000
01c000
01c000
01c000
038000
038000
038000
038000
0fe000
000000
000000
000000
ENDCHAR
STARTCHAR J2544
ENCODING 9540
SWIDTH 1059 0
DWIDTH 24 0
BBX 24 24 0 -2
BITMAP
000000
000600
000e00
000f00
001f00
001f00
003700
003380
006380
006380
00c380
00c1c0
0181c0
0181c0
0300e0
0300e0
0600e0
0600e0
0c0070
0c0070
1ffff8
000000
000000
000000
ENDCHAR
STARTCHAR J2545
ENCODING 9541
SWIDTH 1059 0
DWIDTH 24 0
BBX 24 24 0 -2
BITMAP
000000
07ffe0
01c0e0
01c070
01c030
01c010
01c000
038100
038100
038300
03ff00
038300
038100
038100
038000
070020
070060
070060
0700c0
0701c0
1fffc0
000000
000000
000000
ENDCHAR
STARTCHAR J2546
ENCODING 9542
SWIDTH 1059 0
DWIDTH 24 0
BBX 24 24 0 -2
BITMAP
000000
01fff0
018070
0300e0
0601c0
000380
000380
000700
000e00
000e00
001c00
003800
007000
007000
00e000
01c000
01c000
038060
0700c0
0e0180
0fff80
000000
000000
000000
ENDCHAR
STARTCHAR J2547
ENCODING 9543
SWIDTH 1059 0
DWIDTH 24 0
BBX 24 24 0 -2
BITMAP
000000
0fe3f8
0380e0
0380e0
0380e0
0380e0
0380e0
0701c0
0701c0
0701c0
07ffc0
0701c0
0701c0
0701c0
0701c0
0e0380
0e0380
0e0380
0e0380
0e0380
3f8fe0
000000
000000
000000
ENDCHAR
STARTCHAR J2548
ENCODING 9544
SWIDTH 1059 0
DWIDTH 24 0
BBX 24 24 0 -2
BITMAP
000000
007f00
01c1c0
0380e0
0700e0
070070
0e0070
0e0070
0e0070
0e8170
1cfe70
1dfe70
1d02e0
1c00e0
1c00e0
1c00e0
1c01c0
0e01c0
0e0380
070700
01fc00
000000
000000
000000
ENDCHAR
STARTCHAR J2549
ENCODING 9545
SWIDTH 1059 0
DWIDTH 24 0
BBX 24 24 0 -2
BITMAP
000000
007f00
001c00
001c00
001c00
001c00
001c00
003800
003800
003800
003800
003800
003800
003800
007000
007000
007000
007000
007000
007000
01fc00
000000
000000
000000
ENDCHAR
STARTCHAR J254a
ENCODING 9546
SWIDTH 1059 0
DWIDTH 24 0
BBX 24 24 0 -2
BITMAP
000000
0fe1f8
038060
0380c0
038180
038300
038600
070c00
071800
073000
076000
07f000
07f800
073c00
071e00
0e0e00
0e0f00
0e0780
0e03c0
0e01e0
3f87f8
000000
000000
000000
ENDCHAR
STARTCHAR J254b
ENCODING 9547
SWIDTH 1059 0
DWIDTH 24 0
BBX 24 24 0 -2
BITMAP
000000
000700
000700
000f80
000f80
001f80
001b80
003380
003380
006380
0061c0
00c1c0
00c1c0
0181c0
0181c0
0301c0
0300e0
0600e0
0600e0
0c00e0
3f03f8
000000
000000
000000
ENDCHAR
STARTCHAR J254c
ENCODING 9548
SWIDTH 1059 0
DWIDTH 24 0
BBX 24 24 0 -2
BITMAP
000000
3e003e
0e0078
0f0078
0f00f8
0f00f8
0f81b8
0f81b8
1fc370
1dc370
1dc670
1ce670
1cec70
1cec70
1c7870
1c7870
3830e0
3830e0
3800e0
3800e0
fe03f8
000000
000000
000000
ENDCHAR
STARTCHAR J254d
ENCODING 9549
SWIDTH 1059 0
DWIDTH 24 0
BBX 24 24 0 -2
BITMAP
000000
0f00fc
038030
038030
03c030
03e030
03e030
067060
067060
063860
063860
061c60
061c60
060e60
060e60
0c07c0
0c07c0
0c03c0
0c01c0
0c01c0
3f00c0
000000
000000
000000
ENDCHAR
STARTCHAR J254e
ENCODING 9550
SWIDTH 1059 0
DWIDTH 24 0
BBX 24 24 0 -2
BITMAP
000000
020008
020008
07fff8
07fff0
040010
080010
080000
000000
008080
00ff80
00ff80
010100
010100
000000
000020
100020
1fffe0
1fffc0
200040
200040
000000
000000
000000
ENDCHAR
STARTCHAR J254f
ENCODING 9551
SWIDTH 1059 0
DWIDTH 24 0
BBX 24 24 0 -2
BITMAP
000000
007f00
01c1c0
0380e0
0700e0
070070
0e0070
0e0070
0e0070
0e0070
1c0070
1c0070
1c00e0
1c00e0
1c00e0
1c00e0
1c01c0
0e01c0
0e0380
070700
01fc00
000000
000000
000000
ENDCHAR
STARTCHAR J2550
ENCODING 9552
SWIDTH 1059 0
DWIDTH 24 0
BBX 24 24 0 -2
BITMAP
000000
0ffff8
0380e0
0380e0
0380e0
0380e0
0380e0
0380e0
0701c0
0701c0
0701c0
0701c0
0701c0
0701c0
0701c0
0e0380
0e0380
0e0380
0e0380
0e0380
3f8fe0
000000
000000
000000
ENDCHAR
STARTCHAR J2551
ENCODING 9553
SWIDTH 1059 0
DWIDTH 24 0
BBX 24 24 0 -2
BITMAP
000000
03ffc0
00e070
00e038
00e038
00e038
00e038
00e070
01c1e0
01ff00
01c000
01c000
01c000
01c000
01c000
038000
038000
038000
038000
038000
0fe000
000000
000000
000000
ENDCHAR
STARTCHAR J2552
ENCODING 9554
SWIDTH 1059 0
DWIDTH 24 0
BBX 24 24 0 -2
BITMAP
000000
07ffe0
0380e0
01c060
00e030
007010
003800
003800
001c00
000e00
000700
000600
000c00
001800
003000
006000
00c040
0180c0
030180
060380
0fff80
000000
000000
000000
ENDCHAR
STARTCHAR J2553
ENCODING 9555
SWIDTH 1059 0
DWIDTH 24 0
BBX 24 24 0 -2
BITMAP
000000
0fffe0
0e38e0
0c3860
183830
103810
003800
003800
007000
007000
007000
007000
007000
007000
00e000
00e000
00e000
00e000
00e000
00e000
03f800
000000
000000
000000
ENDCHAR
STARTCHAR J2554
ENCODING 9556
SWIDTH 1059 0
DWIDTH 24 0
BBX 24 24 0 -2
BITMAP
000000
0001c0
0007e0
0e0ce0
039840
00f000
00e000
00e000
00e000
00e000
01c000
01c000
01c000
01c000
01c000
038000
038000
038000
038000
038000
0fe000
000000
000000
000000
ENDCHAR
STARTCHAR J2555
ENCODING 9557
SWIDTH 1059 0
DWIDTH 24 0
BBX 24 24 0 -2
BITMAP
000000
007f00
001c00
001c00
00ff00
039dc0
071ce0
0e3870
1c3870
1c3870
1c3870
1c3870
1c3870
1c3870
1c70e0
0e71c0
077380
01fe00
007000
007000
01fc00
000000
000000
000000
ENDCHAR
STARTCHAR J2556
ENCODING 9558
SWIDTH 1059 0
DWIDTH 24 0
BBX 24 24 0 -2
BITMAP
000000
0fc0fc
038030
038060
01c0c0
00e180
00e180
007300
007600
003c00
003c00
003c00
006e00
006e00
00c700
018700
018380
030380
0601c0
0c01c0
3f03f0
000000
000000
000000
ENDCHAR
STARTCHAR J2557
ENCODING 9559
SWIDTH 1059 0
DWIDTH 24 0
BBX 24 24 0 -2
BITMAP
000000
007f00
001c00
001c00
001c00
3c1c1e
0e1c38
073838
073870
073870
0e38e0
0e38e0
0e39c0
0e39c0
0e7380
077700
03fc00
007000
007000
007000
01fc00
000000
000000
000000
ENDCHAR
STARTCHAR J2558
ENCODING 9560
SWIDTH 1059 0
DWIDTH 24 0
BBX 24 24 0 -2
BITMAP
000000
000000
001f80
0070e0
00c030
01c038
03801c
03801c
07001c
07001c
07001c
070038
070038
030070
038060
0180c0
00c180
204204
30420c
1fc3f8
1f81f8
000000
000000
000000
ENDCHAR
STARTCHAR J2561
ENCODING 9569
SWIDTH 1059 0
DWIDTH 24 0
BBX 24 24 0 -2
BITMAP
000000
000000
000000
000000
000000
000000
000000
000000
000000
000000
000000
003860
00cc60
0186c0
0306c0
030380
060300
060700
060d80
063980
03e0e0
000000
000000
000000
ENDCHAR
STARTCHAR J2562
ENCODING 9570
SWIDTH 1059 0
DWIDTH 24 0
BBX 24 24 0 -2
BITMAP
000000
000000
000000
000000
000000
000780
000cc0
001860
003060
003060
006060
0060c0
00c780
00c180
00c0c0
0180c0
0180c0
01c0c0
036180
033f00
031c00
060000
060000
000000
ENDCHAR
STARTCHAR J2563
ENCODING 9571
SWIDTH 1059 0
DWIDTH 24 0
BBX 24 24 0 -2
BITMAP
000000
000000
000000
000000
000000
000000
000000
000000
000000
000000
000000
03c0c0
0663c0
003600
003c00
003800
001800
003000
003000
006000
006000
00c000
00c000
000000
ENDCHAR
STARTCHAR J2564
ENCODING 9572
SWIDTH 1059 0
DWIDTH 24 0
BBX 24 24 0 -2
BITMAP
000000
000000
000000
000000
007c00
00c700
018180
018000
01c000
00f000
007c00
003e00
00e700
018700
030380
030380
030380
030380
038700
01fe00
007800
000000
000000
000000
ENDCHAR
STARTCHAR J2565
ENCODING 9573
SWIDTH 1059 0
DWIDTH 24 0
BBX 24 24 0 -2
BITMAP
000000
000000
000000
000000
000000
000000
000000
000000
000000
000000
007c00
00c700
018300
018000
00c000
01e000
038000
030000
030180
018700
00fc00
000000
000000
000000
ENDCHAR
STARTCHAR J2566
ENCODING 9574
SWIDTH 1059 0
DWIDTH 24 0
BBX 24 24 0 -2
BITMAP
000000
000000
000000
000000
007000
00c300
007e00
001c00
003000
006000
00c000
00c000
018000
018000
018000
01c000
00f000
007c00
001e00
000700
00c300
00e300
003e00
000000
ENDCHAR
STARTCHAR J2567
ENCODING 9575
SWIDTH 1059 0
DWIDTH 24 0
BBX 24 24 0 -2
BITMAP
000000
000000
000000
000000
000000
000000
000000
000000
000000
000000
000000
01e780
033cc0
0618c0
0430c0
003180
006180
006300
00c300
00c600
000600
000e00
000c00
000000
ENDCHAR
STARTCHAR J2568
ENCODING 9576
SWIDTH 1059 0
DWIDTH 24 0
BBX 24 24 0 -2
BITMAP
000000
000000
000000
000000
000000
001e00
003300
006180
006180
00c180
00c300
00c300
01ff00
018600
018600
030600
030c00
030c00
031800
031800
01e000
000000
000000
000000
ENDCHAR
STARTCHAR J2569
ENCODING 9577
SWIDTH 1059 0
DWIDTH 24 0
BBX 24 24 0 -2
BITMAP
000000
000000
000000
000000
000000
000000
000000
000000
000000
000000
000000
003000
003000
006000
006000
006000
00c000
00c200
00cc00
00f800
007000
000000
000000
000000
ENDCHAR
STARTCHAR J256a
ENCODING 9578
SWIDTH 1059 0
DWIDTH 24 0
BBX 24 24 0 -2
BITMAP
000000
000000
000000
000000
000000
000000
000000
000000
000000
000000
000000
01c1c0
00c3c0
00c600
018c00
01f000
01b000
019800
030c40
030f80
030700
000000
000000
000000
ENDCHAR
STARTCHAR J256b
ENCODING 9579
SWIDTH 1059 0
DWIDTH 24 0
BBX 24 24 0 -2
BITMAP
000000
000000
000000
000000
000000
000000
000000
000000
00c000
003000
001800
000c00
000c00
001c00
001c00
003c00
006c00
00c600
018600
038300
0301c0
000000
000000
000000
ENDCHAR
STARTCHAR J256c
ENCODING 9580
SWIDTH 1059 0
DWIDTH 24 0
BBX 24 24 0 -2
BITMAP
000000
000000
000000
000000
000000
000000
000000
000000
000000
000000
000000
018180
018180
038300
030300
030300
060600
060600
060c00
071e60
0df3c0
0c0000
0c0000
000000
ENDCHAR
STARTCHAR J256d
ENCODING 9581
SWIDTH 1059 0
DWIDTH 24 0
BBX 24 24 0 -2
BITMAP
000000
000000
000000
000000
000000
000000
000000
000000
000000
000000
000000
01e300
006180
006180
00c300
00c300
00c600
018c00
019800
037000
03c000
000000
000000
000000
ENDCHAR
STARTCHAR J256e
ENCODING 9582
SWIDTH 1059 0
DWIDTH 24 0
BBX 24 24 0 -2
BITMAP
000000
000000
00c000
00c380
007f80
001e00
007000
00c000
00c380
007f80
000e00
003800
006000
00c000
018000
018000
018000
00e000
003e00
000380
000180
006380
003e00
000000
ENDCHAR
STARTCHAR J256f
ENCODING 9583
SWIDTH 1059 0
DWIDTH 24 0
BBX 24 24 0 -2
BITMAP
000000
000000
000000
000000
000000
000000
000000
000000
000000
000000
000000
001f00
003180
006180
00c180
00c180
018300
018300
018600
018c00
00f800
000000
000000
000000
ENDCHAR
STARTCHAR J2570
ENCODING 9584
SWIDTH 1059 0
DWIDTH 24 0
BBX 24 24 0 -2
BITMAP
000000
000000
000000
000000
000000
000000
000000
000000
000000
000000
000000
01ffc0
07ffc0
066300
006600
006600
00cc00
00cc00
018c00
038f80
030700
000000
000000
000000
ENDCHAR
STARTCHAR J2571
ENCODING 9585
SWIDTH 1059 0
DWIDTH 24 0
BBX 24 24 0 -2
BITMAP
000000
000000
000000
000000
000000
000000
000000
000000
000000
000000
000000
003e00
006300
00c180
00c180
018180
018180
018300
018300
034600
033c00
030000
030000
030000
ENDCHAR
STARTCHAR J2572
ENCODING 9586
SWIDTH 1059 0
DWIDTH 24 0
BBX 24 24 0 -2
BITMAP
000000
000000
000000
000000
000000
000000
000000
000000
000000
000000
000000
001f80
007000
00c600
018300
018300
030300
030600
030600
031c00
01f000
000000
000000
000000
ENDCHAR
STARTCHAR J2573
ENCODING 9587
SWIDTH 1059 0
DWIDTH 24 0
BBX 24 24 0 -2
BITMAP
000000
000000
000000
000000
000000
000000
000000
000000
000000
000000
000000
007fc0
01ffc0
018c00
000c00
000c00
001800
001800
001800
001e00
000e00
000000
000000
000000
ENDCHAR
STARTCHAR J2574
ENCODING 9588
SWIDTH 1059 0
DWIDTH 24 0
BBX 24 24 0 -2
BITMAP
000000
000000
000000
000000
000000
000000
000000
000000
000000
000000
000000
03c180
0070c0
0030c0
0030c0
0030c0
006180
006180
00c300
00c600
007800
000000
000000
000000
ENDCHAR
STARTCHAR J2575
ENCODING 9589
SWIDTH 1059 0
DWIDTH 24 0
BBX 24 24 0 -2
BITMAP
000000
000000
000000
000000
000000
000000
000000
000000
000000
000000
000000
018780
030cc0
061860
061860
063060
0630c0
03b380
00fe00
003000
006000
006000
006000
000000
ENDCHAR
STARTCHAR J2576
ENCODING 9590
SWIDTH 1059 0
DWIDTH 24 0
BBX 24 24 0 -2
BITMAP
000000
000000
000000
000000
000000
000000
000000
000000
000000
000000
000000
01e0c0
01b180
001b00
000e00
001c00
003c00
006c00
00c600
0186c0
0303c0
000000
000000
000000
ENDCHAR
STARTCHAR J2577
ENCODING 9591
SWIDTH 1059 0
DWIDTH 24 0
BBX 24 24 0 -2
BITMAP
000000
000000
000000
000800
001c00
001c00
001800
001800
001800
001800
001800
01b180
0330c0
0330c0
0630c0
063180
066180
066300
036e00
01f800
006000
00c000
00c000
00c000
ENDCHAR
STARTCHAR J2578
ENCODING 9592
SWIDTH 1059 0
DWIDTH 24 0
BBX 24 24 0 -2
BITMAP
000000
000000
000000
000000
000000
000000
000000
000000
000000
000000
000000
00c180
0181c0
030060
060060
060060
0c0060
0c3060
0e30c0
07ff80
03cf00
000000
000000
000000
ENDCHAR
STARTCHAR J2621
ENCODING 9761
SWIDTH 1059 0
DWIDTH 24 0
BBX 24 24 0 -2
BITMAP
000000
000000
000000
000000
000000
000000
000000
000000
000000
000000
000000
ffffff
000000
000000
000000
000000
000000
000000
000000
000000
000000
000000
000000
000000
ENDCHAR
STARTCHAR J2622
ENCODING 9762
SWIDTH 1059 0
DWIDTH 24 0
BBX 24 24 0 -2
BITMAP
001000
001000
001000
001000
001000
001000
001000
001000
001000
001000
001000
001000
001000
001000
001000
001000
001000
001000
001000
001000
001000
001000
001000
001000
ENDCHAR
STARTCHAR J2623
ENCODING 9763
SWIDTH 1059 0
DWIDTH 24 0
BBX 24 24 0 -2
BITMAP
000000
000000
000000
000000
000000
000000
000000
000000
000000
000000
000000
001fff
001000
001000
001000
001000
001000
001000
001000
001000
001000
001000
001000
001000
ENDCHAR
STARTCHAR J2624
ENCODING 9764
SWIDTH 1059 0
DWIDTH 24 0
BBX 24 24 0 -2
BITMAP
000000
000000
000000
000000
000000
000000
000000
000000
000000
000000
000000
fff000
001000
001000
001000
001000
001000
001000
001000
001000
001000
001000
001000
001000
ENDCHAR
STARTCHAR J2625
ENCODING 9765
SWIDTH 1059 0
DWIDTH 24 0
BBX 24 24 0 -2
BITMAP
001000
001000
001000
001000
001000
001000
001000
001000
001000
001000
001000
fff000
000000
000000
000000
000000
000000
000000
000000
000000
000000
000000
000000
000000
ENDCHAR
STARTCHAR J2626
ENCODING 9766
SWIDTH 1059 0
DWIDTH 24 0
BBX 24 24 0 -2
BITMAP
001000
001000
001000
001000
001000
001000
001000
001000
001000
001000
001000
001fff
000000
000000
000000
000000
000000
000000
000000
000000
000000
000000
000000
000000
ENDCHAR
STARTCHAR J2627
ENCODING 9767
SWIDTH 1059 0
DWIDTH 24 0
BBX 24 24 0 -2
BITMAP
001000
001000
001000
001000
001000
001000
001000
001000
001000
001000
001000
001fff
001000
001000
001000
001000
001000
001000
001000
001000
001000
001000
001000
001000
ENDCHAR
STARTCHAR J2628
ENCODING 9768
SWIDTH 1059 0
DWIDTH 24 0
BBX 24 24 0 -2
BITMAP
000000
000000
000000
000000
000000
000000
000000
000000
000000
000000
000000
ffffff
001000
001000
001000
001000
001000
001000
001000
001000
001000
001000
001000
001000
ENDCHAR
STARTCHAR J2629
ENCODING 9769
SWIDTH 1059 0
DWIDTH 24 0
BBX 24 24 0 -2
BITMAP
001000
001000
001000
001000
001000
001000
001000
001000
001000
001000
001000
fff000
001000
001000
001000
001000
001000
001000
001000
001000
001000
001000
001000
001000
ENDCHAR
STARTCHAR J262a
ENCODING 9770
SWIDTH 1059 0
DWIDTH 24 0
BBX 24 24 0 -2
BITMAP
001000
001000
001000
001000
001000
001000
001000
001000
001000
001000
001000
ffffff
000000
000000
000000
000000
000000
000000
000000
000000
000000
000000
000000
000000
ENDCHAR
STARTCHAR J262b
ENCODING 9771
SWIDTH 1059 0
DWIDTH 24 0
BBX 24 24 0 -2
BITMAP
001000
001000
001000
001000
001000
001000
001000
001000
001000
001000
001000
ffffff
001000
001000
001000
001000
001000
001000
001000
001000
001000
001000
001000
001000
ENDCHAR
STARTCHAR J262c
ENCODING 9772
SWIDTH 1059 0
DWIDTH 24 0
BBX 24 24 0 -2
BITMAP
000000
000000
000000
000000
000000
000000
000000
000000
000000
000000
ffffff
ffffff
ffffff
000000
000000
000000
000000
000000
000000
000000
000000
000000
000000
000000
ENDCHAR
STARTCHAR J262d
ENCODING 9773
SWIDTH 1059 0
DWIDTH 24 0
BBX 24 24 0 -2
BITMAP
003800
003800
003800
003800
003800
003800
003800
003800
003800
003800
003800
003800
003800
003800
003800
003800
003800
003800
003800
003800
003800
003800
003800
003800
ENDCHAR
STARTCHAR J262e
ENCODING 9774
SWIDTH 1059 0
DWIDTH 24 0
BBX 24 24 0 -2
BITMAP
000000
000000
000000
000000
000000
000000
000000
000000
000000
000000
003fff
003fff
003fff
003800
003800
003800
003800
003800
003800
003800
003800
003800
003800
003800
ENDCHAR
STARTCHAR J262f
ENCODING 9775
SWIDTH 1059 0
DWIDTH 24 0
BBX 24 24 0 -2
BITMAP
000000
000000
000000
000000
000000
000000
000000
000000
000000
000000
fff800
fff800
fff800
003800
003800
003800
003800
003800
003800
003800
003800
003800
003800
003800
ENDCHAR
STARTCHAR J2630
ENCODING 9776
SWIDTH 1059 0
DWIDTH 24 0
BBX 24 24 0 -2
BITMAP
003800
003800
003800
003800
003800
003800
003800
003800
003800
003800
fff800
fff800
fff800
000000
000000
000000
000000
000000
000000
000000
000000
000000
000000
000000
ENDCHAR
STARTCHAR J2631
ENCODING 9777
SWIDTH 1059 0
DWIDTH 24 0
BBX 24 24 0 -2
BITMAP
003800
003800
003800
003800
003800
003800
003800
003800
003800
003800
003fff
003fff
003fff
000000
000000
000000
000000
000000
000000
000000
000000
000000
000000
000000
ENDCHAR
STARTCHAR J2632
ENCODING 9778
SWIDTH 1059 0
DWIDTH 24 0
BBX 24 24 0 -2
BITMAP
003800
003800
003800
003800
003800
003800
003800
003800
003800
003800
003fff
003fff
003fff
003800
003800
003800
003800
003800
003800
003800
003800
003800
003800
003800
ENDCHAR
STARTCHAR J2633
ENCODING 9779
SWIDTH 1059 0
DWIDTH 24 0
BBX 24 24 0 -2
BITMAP
000000
000000
000000
000000
000000
000000
000000
000000
000000
000000
ffffff
ffffff
ffffff
003800
003800
003800
003800
003800
003800
003800
003800
003800
003800
003800
ENDCHAR
STARTCHAR J2634
ENCODING 9780
SWIDTH 1059 0
DWIDTH 24 0
BBX 24 24 0 -2
BITMAP
003800
003800
003800
003800
003800
003800
003800
003800
003800
003800
fff800
fff800
fff800
003800
003800
003800
003800
003800
003800
003800
003800
003800
003800
003800
ENDCHAR
STARTCHAR J2635
ENCODING 9781
SWIDTH 1059 0
DWIDTH 24 0
BBX 24 24 0 -2
BITMAP
003800
003800
003800
003800
003800
003800
003800
003800
003800
003800
ffffff
ffffff
ffffff
000000
000000
000000
000000
000000
000000
000000
000000
000000
000000
000000
ENDCHAR
STARTCHAR J2636
ENCODING 9782
SWIDTH 1059 0
DWIDTH 24 0
BBX 24 24 0 -2
BITMAP
003800
003800
003800
003800
003800
003800
003800
003800
003800
003800
ffffff
ffffff
ffffff
003800
003800
003800
003800
003800
003800
003800
003800
003800
003800
003800
ENDCHAR
STARTCHAR J2637
ENCODING 9783
SWIDTH 1059 0
DWIDTH 24 0
BBX 24 24 0 -2
BITMAP
003800
003800
003800
003800
003800
003800
003800
003800
003800
003800
003800
003fff
003800
003800
003800
003800
003800
003800
003800
003800
003800
003800
003800
003800
ENDCHAR
STARTCHAR J2638
ENCODING 9784
SWIDTH 1059 0
DWIDTH 24 0
BBX 24 24 0 -2
BITMAP
000000
000000
000000
000000
000000
000000
000000
000000
000000
000000
ffffff
ffffff
ffffff
001000
001000
001000
001000
001000
001000
001000
001000
001000
001000
001000
ENDCHAR
STARTCHAR J2639
ENCODING 9785
SWIDTH 1059 0
DWIDTH 24 0
BBX 24 24 0 -2
BITMAP
003800
003800
003800
003800
003800
003800
003800
003800
003800
003800
003800
fff800
003800
003800
003800
003800
003800
003800
003800
003800
003800
003800
003800
003800
ENDCHAR
STARTCHAR J263a
ENCODING 9786
SWIDTH 1059 0
DWIDTH 24 0
BBX 24 24 0 -2
BITMAP
001000
001000
001000
001000
001000
001000
001000
001000
001000
001000
ffffff
ffffff
ffffff
000000
000000
000000
000000
000000
000000
000000
000000
000000
000000
000000
ENDCHAR
STARTCHAR J263b
ENCODING 9787
SWIDTH 1059 0
DWIDTH 24 0
BBX 24 24 0 -2
BITMAP
001000
001000
001000
001000
001000
001000
001000
001000
001000
001000
ffffff
ffffff
ffffff
001000
001000
001000
001000
001000
001000
001000
001000
001000
001000
001000
ENDCHAR
STARTCHAR J263c
ENCODING 9788
SWIDTH 1059 0
DWIDTH 24 0
BBX 24 24 0 -2
BITMAP
001000
001000
001000
001000
001000
001000
001000
001000
001000
001000
001fff
001fff
001fff
001000
001000
001000
001000
001000
001000
001000
001000
001000
001000
001000
ENDCHAR
STARTCHAR J263d
ENCODING 9789
SWIDTH 1059 0
DWIDTH 24 0
BBX 24 24 0 -2
BITMAP
000000
000000
000000
000000
000000
000000
000000
000000
000000
000000
000000
ffffff
003800
003800
003800
003800
003800
003800
003800
003800
003800
003800
003800
003800
ENDCHAR
STARTCHAR J263e
ENCODING 9790
SWIDTH 1059 0
DWIDTH 24 0
BBX 24 24 0 -2
BITMAP
001000
001000
001000
001000
001000
001000
001000
001000
001000
001000
fff000
fff000
fff000
001000
001000
001000
001000
001000
001000
001000
001000
001000
001000
001000
ENDCHAR
STARTCHAR J263f
ENCODING 9791
SWIDTH 1059 0
DWIDTH 24 0
BBX 24 24 0 -2
BITMAP
003800
003800
003800
003800
003800
003800
003800
003800
003800
003800
003800
ffffff
000000
000000
000000
000000
000000
000000
000000
000000
000000
000000
000000
000000
ENDCHAR
STARTCHAR J2640
ENCODING 9792
SWIDTH 1059 0
DWIDTH 24 0
BBX 24 24 0 -2
BITMAP
003800
003800
003800
003800
003800
003800
003800
003800
003800
003800
003800
ffffff
003800
003800
003800
003800
003800
003800
003800
003800
003800
003800
003800
003800
ENDCHAR
STARTCHAR J2641
ENCODING 9793
SWIDTH 1059 0
DWIDTH 24 0
BBX 24 24 0 -2
BITMAP
000000
000000
000000
000000
000000
000000
000000
000000
000000
000000
000000
fff800
003800
003800
003800
003800
003800
003800
003800
003800
003800
003800
003800
003800
ENDCHAR
STARTCHAR J2642
ENCODING 9794
SWIDTH 1059 0
DWIDTH 24 0
BBX 24 24 0 -2
BITMAP
000000
000000
000000
000000
000000
000000
000000
000000
000000
000000
fff000
fff000
fff000
001000
001000
001000
001000
001000
001000
001000
001000
001000
001000
001000
ENDCHAR
STARTCHAR J2643
ENCODING 9795
SWIDTH 1059 0
DWIDTH 24 0
BBX 24 24 0 -2
BITMAP
003800
003800
003800
003800
003800
003800
003800
003800
003800
003800
003800
fff800
000000
000000
000000
000000
000000
000000
000000
000000
000000
000000
000000
000000
ENDCHAR
STARTCHAR J2644
ENCODING 9796
SWIDTH 1059 0
DWIDTH 24 0
BBX 24 24 0 -2
BITMAP
001000
001000
001000
001000
001000
001000
001000
001000
001000
001000
fff000
fff000
fff000
000000
000000
000000
000000
000000
000000
000000
000000
000000
000000
000000
ENDCHAR
STARTCHAR J2645
ENCODING 9797
SWIDTH 1059 0
DWIDTH 24 0
BBX 24 24 0 -2
BITMAP
003800
003800
003800
003800
003800
003800
003800
003800
003800
003800
003800
003fff
000000
000000
000000
000000
000000
000000
000000
000000
000000
000000
000000
000000
ENDCHAR
STARTCHAR J2646
ENCODING 9798
SWIDTH 1059 0
DWIDTH 24 0
BBX 24 24 0 -2
BITMAP
001000
001000
001000
001000
001000
001000
001000
001000
001000
001000
001fff
001fff
001fff
000000
000000
000000
000000
000000
000000
000000
000000
000000
000000
000000
ENDCHAR
STARTCHAR J2647
ENCODING 9799
SWIDTH 1059 0
DWIDTH 24 0
BBX 24 24 0 -2
BITMAP
000000
000000
000000
000000
000000
000000
000000
000000
000000
000000
000000
003fff
003800
003800
003800
003800
003800
003800
003800
003800
003800
003800
003800
003800
ENDCHAR
STARTCHAR J2648
ENCODING 9800
SWIDTH 1059 0
DWIDTH 24 0
BBX 24 24 0 -2
BITMAP
000000
000000
000000
000000
000000
000000
000000
000000
000000
000000
001fff
001fff
001fff
001000
001000
001000
001000
001000
001000
001000
001000
001000
001000
001000
ENDCHAR
STARTCHAR J2649
ENCODING 9801
SWIDTH 1059 0
DWIDTH 24 0
BBX 24 24 0 -2
BITMAP
003800
003800
003800
003800
003800
003800
003800
003800
003800
003800
003800
003fff
001000
001000
001000
001000
001000
001000
001000
001000
001000
001000
001000
001000
ENDCHAR
STARTCHAR J264a
ENCODING 9802
SWIDTH 1059 0
DWIDTH 24 0
BBX 24 24 0 -2
BITMAP
001000
001000
001000
001000
001000
001000
001000
001000
001000
001000
001000
003fff
003800
003800
003800
003800
003800
003800
003800
003800
003800
003800
003800
003800
ENDCHAR
STARTCHAR J264b
ENCODING 9803
SWIDTH 1059 0
DWIDTH 24 0
BBX 24 24 0 -2
BITMAP
003800
003800
003800
003800
003800
003800
003800
003800
003800
003800
003fff
003fff
003fff
001000
001000
001000
001000
001000
001000
001000
001000
001000
001000
001000
ENDCHAR
STARTCHAR J264c
ENCODING 9804
SWIDTH 1059 0
DWIDTH 24 0
BBX 24 24 0 -2
BITMAP
001000
001000
001000
001000
001000
001000
001000
001000
001000
001000
003fff
003fff
003fff
003800
003800
003800
003800
003800
003800
003800
003800
003800
003800
003800
ENDCHAR
STARTCHAR J264d
ENCODING 9805
SWIDTH 1059 0
DWIDTH 24 0
BBX 24 24 0 -2
BITMAP
003800
003800
003800
003800
003800
003800
003800
003800
003800
003800
003800
fff800
001000
001000
001000
001000
001000
001000
001000
001000
001000
001000
001000
001000
ENDCHAR
STARTCHAR J264e
ENCODING 9806
SWIDTH 1059 0
DWIDTH 24 0
BBX 24 24 0 -2
BITMAP
001000
001000
001000
001000
001000
001000
001000
001000
001000
001000
001000
fff800
003800
003800
003800
003800
003800
003800
003800
003800
003800
003800
003800
003800
ENDCHAR
STARTCHAR J264f
ENCODING 9807
SWIDTH 1059 0
DWIDTH 24 0
BBX 24 24 0 -2
BITMAP
003800
003800
003800
003800
003800
003800
003800
003800
003800
003800
fff800
fff800
fff800
001000
001000
001000
001000
001000
001000
001000
001000
001000
001000
001000
ENDCHAR
STARTCHAR J2650
ENCODING 9808
SWIDTH 1059 0
DWIDTH 24 0
BBX 24 24 0 -2
BITMAP
001000
001000
001000
001000
001000
001000
001000
001000
001000
001000
fff800
fff800
fff800
003800
003800
003800
003800
003800
003800
003800
003800
003800
003800
003800
ENDCHAR
STARTCHAR J2651
ENCODING 9809
SWIDTH 1059 0
DWIDTH 24 0
BBX 24 24 0 -2
BITMAP
000000
000000
000000
000000
000000
000000
000000
000000
000000
000000
fff000
ffffff
fff000
001000
001000
001000
001000
001000
001000
001000
001000
001000
001000
001000
ENDCHAR
STARTCHAR J2652
ENCODING 9810
SWIDTH 1059 0
DWIDTH 24 0
BBX 24 24 0 -2
BITMAP
000000
000000
000000
000000
000000
000000
000000
000000
000000
000000
001fff
ffffff
001fff
001000
001000
001000
001000
001000
001000
001000
001000
001000
001000
001000
ENDCHAR
STARTCHAR J2653
ENCODING 9811
SWIDTH 1059 0
DWIDTH 24 0
BBX 24 24 0 -2
BITMAP
000000
000000
000000
000000
000000
000000
000000
000000
000000
000000
fff800
ffffff
fff800
003800
003800
003800
003800
003800
003800
003800
003800
003800
003800
003800
ENDCHAR
STARTCHAR J2654
ENCODING 9812
SWIDTH 1059 0
DWIDTH 24 0
BBX 24 24 0 -2
BITMAP
000000
000000
000000
000000
000000
000000
000000
000000
000000
000000
003fff
ffffff
003fff
003800
003800
003800
003800
003800
003800
003800
003800
003800
003800
003800
ENDCHAR
STARTCHAR J2655
ENCODING 9813
SWIDTH 1059 0
DWIDTH 24 0
BBX 24 24 0 -2
BITMAP
001000
001000
001000
001000
001000
001000
001000
001000
001000
001000
fff000
ffffff
fff000
000000
000000
000000
000000
000000
000000
000000
000000
000000
000000
000000
ENDCHAR
STARTCHAR J2656
ENCODING 9814
SWIDTH 1059 0
DWIDTH 24 0
BBX 24 24 0 -2
BITMAP
001000
001000
001000
001000
001000
001000
001000
001000
001000
001000
001fff
ffffff
001fff
000000
000000
000000
000000
000000
000000
000000
000000
000000
000000
000000
ENDCHAR
STARTCHAR J2657
ENCODING 9815
SWIDTH 1059 0
DWIDTH 24 0
BBX 24 24 0 -2
BITMAP
003800
003800
003800
003800
003800
003800
003800
003800
003800
003800
fff800
ffffff
fff800
000000
000000
000000
000000
000000
000000
000000
000000
000000
000000
000000
ENDCHAR
STARTCHAR J2658
ENCODING 9816
SWIDTH 1059 0
DWIDTH 24 0
BBX 24 24 0 -2
BITMAP
003800
003800
003800
003800
003800
003800
003800
003800
003800
003800
003fff
ffffff
003fff
000000
000000
000000
000000
000000
000000
000000
000000
000000
000000
000000
ENDCHAR
STARTCHAR J2659
ENCODING 9817
SWIDTH 1059 0
DWIDTH 24 0
BBX 24 24 0 -2
BITMAP
001000
001000
001000
001000
001000
001000
001000
001000
001000
001000
fff000
ffffff
fff000
001000
001000
001000
001000
001000
001000
001000
001000
001000
001000
001000
ENDCHAR
STARTCHAR J265a
ENCODING 9818
SWIDTH 1059 0
DWIDTH 24 0
BBX 24 24 0 -2
BITMAP
001000
001000
001000
001000
001000
001000
001000
001000
001000
001000
001fff
ffffff
001fff
001000
001000
001000
001000
001000
001000
001000
001000
001000
001000
001000
ENDCHAR
STARTCHAR J265b
ENCODING 9819
SWIDTH 1059 0
DWIDTH 24 0
BBX 24 24 0 -2
BITMAP
003800
003800
003800
003800
003800
003800
003800
003800
003800
003800
003800
ffffff
001000
001000
001000
001000
001000
001000
001000
001000
001000
001000
001000
001000
ENDCHAR
STARTCHAR J265c
ENCODING 9820
SWIDTH 1059 0
DWIDTH 24 0
BBX 24 24 0 -2
BITMAP
001000
001000
001000
001000
001000
001000
001000
001000
001000
001000
001000
ffffff
003800
003800
003800
003800
003800
003800
003800
003800
003800
003800
003800
003800
ENDCHAR
STARTCHAR J265d
ENCODING 9821
SWIDTH 1059 0
DWIDTH 24 0
BBX 24 24 0 -2
BITMAP
003800
003800
003800
003800
003800
003800
003800
003800
003800
003800
fff800
ffffff
fff000
001000
001000
001000
001000
001000
001000
001000
001000
001000
001000
001000
ENDCHAR
STARTCHAR J265e
ENCODING 9822
SWIDTH 1059 0
DWIDTH 24 0
BBX 24 24 0 -2
BITMAP
003800
003800
003800
003800
003800
003800
003800
003800
003800
003800
003fff
ffffff
001fff
001000
001000
001000
001000
001000
001000
001000
001000
001000
001000
001000
ENDCHAR
STARTCHAR J265f
ENCODING 9823
SWIDTH 1059 0
DWIDTH 24 0
BBX 24 24 0 -2
BITMAP
001000
001000
001000
001000
001000
001000
001000
001000
001000
001000
fff000
ffffff
fff800
003800
003800
003800
003800
003800
003800
003800
003800
003800
003800
003800
ENDCHAR
STARTCHAR J2660
ENCODING 9824
SWIDTH 1059 0
DWIDTH 24 0
BBX 24 24 0 -2
BITMAP
001000
001000
001000
001000
001000
001000
001000
001000
001000
001000
001fff
ffffff
003fff
003800
003800
003800
003800
003800
003800
003800
003800
003800
003800
003800
ENDCHAR
STARTCHAR J2661
ENCODING 9825
SWIDTH 1059 0
DWIDTH 24 0
BBX 24 24 0 -2
BITMAP
003800
003800
003800
003800
003800
003800
003800
003800
003800
003800
ffffff
ffffff
ffffff
001000
001000
001000
001000
001000
001000
001000
001000
001000
001000
001000
ENDCHAR
STARTCHAR J2662
ENCODING 9826
SWIDTH 1059 0
DWIDTH 24 0
BBX 24 24 0 -2
BITMAP
001000
001000
001000
001000
001000
001000
001000
001000
001000
001000
ffffff
ffffff
ffffff
003800
003800
003800
003800
003800
003800
003800
003800
003800
003800
003800
ENDCHAR
STARTCHAR J2663
ENCODING 9827
SWIDTH 1059 0
DWIDTH 24 0
BBX 24 24 0 -2
BITMAP
003800
003800
003800
003800
003800
003800
003800
003800
003800
003800
fff800
ffffff
fff800
003800
003800
003800
003800
003800
003800
003800
003800
003800
003800
003800
ENDCHAR
STARTCHAR J2664
ENCODING 9828
SWIDTH 1059 0
DWIDTH 24 0
BBX 24 24 0 -2
BITMAP
003800
003800
003800
003800
003800
003800
003800
003800
003800
003800
003fff
ffffff
003fff
003800
003800
003800
003800
003800
003800
003800
003800
003800
003800
003800
ENDCHAR
STARTCHAR J2721
ENCODING 10017
SWIDTH 1059 0
DWIDTH 24 0
BBX 24 24 0 -2
BITMAP
000000
000070
0000d8
0000d8
000198
000198
000198
000198
000198
0c3198
0c3318
0c3330
0c3330
0c3330
186360
186364
1863c4
18638c
186188
1ce798
3738f0
300000
300000
300000
ENDCHAR
STARTCHAR J2722
ENCODING 10018
SWIDTH 1059 0
DWIDTH 24 0
BBX 24 24 0 -2
BITMAP
000000
000038
00006c
00006c
0000cc
0000cc
0000cc
0000cc
0000cc
339ccc
77bccc
39ccd8
318cd8
318cd8
318cf0
318ce2
318ce2
318cc2
318cc6
318cfc
7bdf38
000000
000000
000000
ENDCHAR
STARTCHAR J2723
ENCODING 10019
SWIDTH 1059 0
DWIDTH 24 0
BBX 24 24 0 -2
BITMAP
000000
0060e0
00e1b0
0061b0
006330
006330
006330
006330
006630
0f6630
18e630
306660
606660
606660
606664
6066c4
6066c4
60638c
30630c
18e7f8
0f3cf0
000000
000000
000000
ENDCHAR
STARTCHAR J2724
ENCODING 10020
SWIDTH 1059 0
DWIDTH 24 0
BBX 24 24 0 -2
BITMAP
000000
000780
000cc0
0018c0
0018c0
0030c0
0030c0
0030c0
0030c0
006180
006180
006300
006300
006620
006c20
007820
007060
006040
00e0c0
013180
061f00
000000
000000
000000
ENDCHAR
STARTCHAR J2725
ENCODING 10021
SWIDTH 1059 0
DWIDTH 24 0
BBX 24 24 0 -2
BITMAP
000000
300070
7000d8
300198
300198
300198
300318
300318
300318
31f318
30c318
318330
330330
360330
3f0332
3b8362
31c362
30e1c6
307184
303fcc
787c78
000000
000000
000000
ENDCHAR
STARTCHAR J2726
ENCODING 10022
SWIDTH 1059 0
DWIDTH 24 0
BBX 24 24 0 -2
BITMAP
000000
000000
000000
000000
000000
000000
000000
000000
000000
1f01f0
30c30c
60c60c
600600
600600
600600
600600
600600
600600
606606
30c31c
1f01f0
000000
000000
000000
ENDCHAR
STARTCHAR J2727
ENCODING 10023
SWIDTH 1059 0
DWIDTH 24 0
BBX 24 24 0 -2
BITMAP
000000
00001c
000022
000002
00000c
000002
000022
00001c
000000
6ee6ee
f76f76
666666
666666
666666
666666
666666
666666
666666
666666
666666
ef7777
000000
000000
000000
ENDCHAR
STARTCHAR J2728
ENCODING 10024
SWIDTH 1059 0
DWIDTH 24 0
BBX 24 24 0 -2
BITMAP
000000
00001c
000022
000002
00001c
000002
000022
00001c
000000
1e1ddc
31aeec
618ccc
600ccc
600ccc
600ccc
600ccc
600ccc
600ccc
60cccc
338ccc
1e1dee
000000
000000
000000
ENDCHAR
STARTCHAR J2729
ENCODING 10025
SWIDTH 1059 0
DWIDTH 24 0
BBX 24 24 0 -2
BITMAP
000000
000070
000088
000008
000070
000008
000088
000070
000000
0ce380
1df7c0
0e38c0
0c30c0
0c30c0
0c30c0
0c30c0
0c30c0
0c30c0
0c30c0
0c30c0
1e79e0
000000
000000
000000
ENDCHAR
STARTCHAR J272a
ENCODING 10026
SWIDTH 1059 0
DWIDTH 24 0
BBX 24 24 0 -2
BITMAP
000000
60001c
e00022
600002
60001c
600002
600022
60001c
600000
61eddc
60deec
618ccc
630ccc
660ccc
6e0ccc
7e0ccc
670ccc
638ccc
61cccc
60eccc
f1fdfe
000000
000000
000000
ENDCHAR
STARTCHAR J272b
ENCODING 10027
SWIDTH 1059 0
DWIDTH 24 0
BBX 24 24 0 -2
BITMAP
000000
070000
0dc000
18c000
180000
180000
180000
180000
180000
7f6e70
18fff8
187398
186318
186318
186318
186318
186318
186318
186318
186318
3cf7bc
000000
000000
000000
ENDCHAR
STARTCHAR J272c
ENCODING 10028
SWIDTH 1059 0
DWIDTH 24 0
BBX 24 24 0 -2
BITMAP
000000
000000
000000
000000
000000
000000
000000
000000
000000
6e3738
ff7ffc
7339cc
63318c
63318c
63318c
63318c
63318c
63318c
63318c
63318c
f77bde
000000
000000
000000
ENDCHAR
STARTCHAR J272d
ENCODING 10029
SWIDTH 1059 0
DWIDTH 24 0
BBX 24 24 0 -2
BITMAP
000000
000000
000000
000000
000000
000000
000000
000000
000000
633738
637ffc
6339cc
63318c
63318c
63318c
c6318c
c6318c
c6318c
c6318c
ce318c
fbbbde
c00000
c00000
c00000
ENDCHAR
STARTCHAR J272e
ENCODING 10030
SWIDTH 1059 0
DWIDTH 24 0
BBX 24 24 0 -2
BITMAP
000000
000000
000000
000000
000000
000000
000000
000000
000000
6ee6ee
f76f76
666666
666666
666666
666666
666666
666666
666666
666666
666666
ef7777
000000
000000
000000
ENDCHAR
STARTCHAR J272f
ENCODING 10031
SWIDTH 1059 0
DWIDTH 24 0
BBX 24 24 0 -2
BITMAP
000000
000000
000000
000000
000000
000000
000000
000000
000000
1f0ddc
30deec
60cccc
600ccc
600ccc
600ccc
600ccc
600ccc
600ccc
606ccc
31cccc
1f1dee
000000
000000
000000
ENDCHAR
STARTCHAR J2730
ENCODING 10032
SWIDTH 1059 0
DWIDTH 24 0
BBX 24 24 0 -2
BITMAP
000000
600000
e00000
600000
600000
600000
600000
600000
600000
61f9dc
60ceec
618ccc
630ccc
660ccc
6e0ccc
7e0ccc
670ccc
638ccc
61cccc
60eccc
f1fdfe
000000
000000
000000
ENDCHAR
STARTCHAR J2731
ENCODING 10033
SWIDTH 1059 0
DWIDTH 24 0
BBX 24 24 0 -2
BITMAP
000000
00001c
000022
000002
00000c
000010
000020
00003e
000000
6ee6ee
f76f76
666666
666666
666666
666666
666666
666666
666666
666666
666666
ef7777
000000
000000
000000
ENDCHAR
STARTCHAR J2732
ENCODING 10034
SWIDTH 1059 0
DWIDTH 24 0
BBX 24 24 0 -2
BITMAP
000000
00001c
000022
000002
00000c
000010
000020
00003e
000000
1e1ddc
31aeec
618ccc
600ccc
600ccc
600ccc
600ccc
600ccc
600ccc
60cccc
338ccc
1e1dee
000000
000000
000000
ENDCHAR
STARTCHAR J2733
ENCODING 10035
SWIDTH 1059 0
DWIDTH 24 0
BBX 24 24 0 -2
BITMAP
000000
000070
000088
000008
000030
000040
000080
0000f8
000000
0ce380
1df7c0
0e38c0
0c30c0
0c30c0
0c30c0
0c30c0
0c30c0
0c30c0
0c30c0
0c30c0
1e79e0
000000
000000
000000
ENDCHAR
STARTCHAR J2734
ENCODING 10036
SWIDTH 1059 0
DWIDTH 24 0
BBX 24 24 0 -2
BITMAP
000000
60001c
e00022
600002
60000c
600010
600020
60003e
600000
61eddc
60deec
618ccc
630ccc
660ccc
6e0ccc
7e0ccc
670ccc
638ccc
61cccc
60eccc
f1fdfe
000000
000000
000000
ENDCHAR
STARTCHAR J2735
ENCODING 10037
SWIDTH 1059 0
DWIDTH 24 0
BBX 24 24 0 -2
BITMAP
000000
300000
700000
300000
300000
300000
300000
300000
300000
31c3f0
37ee18
3c6c18
306018
306078
306398
306618
306c18
306c18
306c38
306ff8
78f7ce
000000
000000
000000
ENDCHAR
STARTCHAR J2736
ENCODING 10038
SWIDTH 1059 0
DWIDTH 24 0
BBX 24 24 0 -2
BITMAP
000000
000000
000000
000000
000000
000000
000000
000000
000006
0000ee
1861f8
186318
186318
186338
1861f0
30c300
30c3f8
30c1fc
30c70e
39c606
3f7606
30070e
3003fc
3000f0
ENDCHAR
STARTCHAR J2737
ENCODING 10039
SWIDTH 1059 0
DWIDTH 24 0
BBX 24 24 0 -2
BITMAP
000000
000000
000000
000000
000000
000000
000000
000000
000006
3770ee
7bb1f8
333318
333318
333338
3331f0
333300
3333f8
3331fc
33370e
333606
777e06
00070e
0003fc
0000f0
ENDCHAR
STARTCHAR J2738
ENCODING 10040
SWIDTH 1059 0
DWIDTH 24 0
BBX 24 24 0 -2
BITMAP
000000
300000
700000
300000
300000
300000
300000
300000
300006
31f0ee
30c1f8
318318
330318
360318
3e01f0
370300
3383f0
31c1fc
30e30e
307606
7cfe06
00070e
0003fc
0001f0
ENDCHAR
STARTCHAR J2739
ENCODING 10041
SWIDTH 1059 0
DWIDTH 24 0
BBX 24 24 0 -2
BITMAP
000000
300000
700000
300000
300000
300040
300040
300040
3000c0
31f3f0
30c0c0
3180c0
3300c0
3600c0
3e00c0
3700c0
3380c0
31c0c0
30e0c6
3070fc
7cf870
000000
000000
000000
ENDCHAR
STARTCHAR J273a
ENCODING 10042
SWIDTH 1059 0
DWIDTH 24 0
BBX 24 24 0 -2
BITMAP
000000
00000c
00001c
00000c
00000c
00000c
00000c
00000c
00000c
1e0f8c
31b8cc
61b0cc
6000cc
6007cc
6018cc
6030cc
6030cc
6030cc
60f0cc
33b1cc
1e1f7e
000000
000000
000000
ENDCHAR
STARTCHAR J273b
ENCODING 10043
SWIDTH 1059 0
DWIDTH 24 0
BBX 24 24 0 -2
BITMAP
000000
600006
e0000e
600006
600006
600006
600006
600006
600006
67b8e6
636b36
66c736
6cc036
78c0f6
78c336
6cc336
6cc336
66c336
66c336
6367f6
f7b9df
000000
000000
000000
ENDCHAR
STARTCHAR J273c
ENCODING 10044
SWIDTH 1059 0
DWIDTH 24 0
BBX 24 24 0 -2
BITMAP
000000
00dff0
01cc18
00cc0c
00cc0c
00cc0c
00cc0c
00cc0c
00cc0c
3ecc18
63cff8
c0cc1c
c0cc06
c0cc06
c0cc06
c0cc06
c0cc06
c0cc06
c0cc06
63cc0c
3cdff8
000000
000000
000000
ENDCHAR
STARTCHAR J273d
ENCODING 10045
SWIDTH 1059 0
DWIDTH 24 0
BBX 24 24 0 -2
BITMAP
000006
6ee00c
f76018
666030
666030
666060
6660c0
666180
666300
666300
666600
666cfc
ef7b8c
001b02
003300
0061c0
00c070
00c01c
018006
030006
060206
0c038c
1802f8
000000
ENDCHAR
STARTCHAR J273e
ENCODING 10046
SWIDTH 1059 0
DWIDTH 24 0
BBX 24 24 0 -2
BITMAP
000030
6ee030
f7606e
6660d1
6660c1
666186
666308
666310
66661f
666c00
666c00
6678fc
ef7b8c
003302
006300
0061c0
00c070
01801c
030006
030006
060206
0c038c
1802f8
000000
ENDCHAR
STARTCHAR J273f
ENCODING 10047
SWIDTH 1059 0
DWIDTH 24 0
BBX 24 24 0 -2
BITMAP
000000
000000
000000
000000
000000
000000
000000
000000
000000
31c1fc
76670c
383602
303600
303780
3031f0
30307c
30300e
303006
3c6406
37c30c
3003f8
300000
300000
780000
ENDCHAR
STARTCHAR J2740
ENCODING 10048
SWIDTH 1059 0
DWIDTH 24 0
BBX 24 24 0 -2
BITMAP
000000
000000
000000
000000
000000
000000
000000
000000
000000
33c1fc
7fe70c
386602
306600
306780
3061f0
30607c
30600e
306006
306406
30630c
78f3f8
000000
000000
000000
ENDCHAR
STARTCHAR J2741
ENCODING 10049
SWIDTH 1059 0
DWIDTH 24 0
BBX 24 24 0 -2
BITMAP
000000
000000
000000
000000
000000
000000
000000
000000
000000
1831fc
18370c
183602
183600
183780
1831f0
30607c
30600e
306006
306406
38e30c
3fbbf8
300000
300000
300000
ENDCHAR
STARTCHAR J2742
ENCODING 10050
SWIDTH 1059 0
DWIDTH 24 0
BBX 24 24 0 -2
BITMAP
000000
000000
000000
000000
000000
000000
000000
000000
000000
6f78fe
f39b86
631b01
631b00
631bc0
6318f8
63183e
631807
631803
631a03
631986
f7bdfc
000000
000000
000000
ENDCHAR
STARTCHAR J2743
ENCODING 10051
SWIDTH 1059 0
DWIDTH 24 0
BBX 24 24 0 -2
BITMAP
000000
00780e
003004
003004
00300c
001808
001808
001818
000c10
638c10
eccc10
706c30
606620
606620
606620
606360
606340
606340
78c3c0
6f8180
600180
600000
600000
f00000
ENDCHAR
STARTCHAR J2744
ENCODING 10052
SWIDTH 1059 0
DWIDTH 24 0
BBX 24 24 0 -2
BITMAP
000000
00780e
003004
003004
00300c
001808
001808
001818
000c10
31cc10
77ec10
386c30
306620
306620
306620
306360
306340
306340
3063c0
306180
78f180
000000
000000
000000
ENDCHAR
STARTCHAR J2745
ENCODING 10053
SWIDTH 1059 0
DWIDTH 24 0
BBX 24 24 0 -2
BITMAP
000000
00780e
003004
003004
00300c
001808
001808
001818
000c10
306c10
306c10
306c30
306620
306620
60c620
60c360
60c340
60c340
60c3c0
71c980
7f7180
600000
600000
600000
ENDCHAR
STARTCHAR J2746
ENCODING 10054
SWIDTH 1059 0
DWIDTH 24 0
BBX 24 24 0 -2
BITMAP
000000
00780e
003004
003004
00300c
001808
001808
001818
000c10
6eec10
f76c10
666c30
666620
666620
666620
666360
666340
666340
6663c0
666180
f77180
000000
000000
000000
ENDCHAR
STARTCHAR J2747
ENCODING 10055
SWIDTH 1059 0
DWIDTH 24 0
BBX 24 24 0 -2
BITMAP
000000
30780e
703004
303004
30300c
301808
301808
301818
300c10
31fc10
30cc10
318c30
330620
360620
3e0620
3f0360
338340
31c340
30e3c0
307180
78fd80
000000
000000
000000
ENDCHAR
STARTCHAR J2748
ENCODING 10056
SWIDTH 1059 0
DWIDTH 24 0
BBX 24 24 0 -2
BITMAP
000000
e03f07
707602
707602
707602
58f606
58b304
58b304
58b304
58b30c
593188
4d3188
4d3188
4d3198
4d30d0
4d30d0
4f30d0
4630f0
463060
463060
e67860
000000
000000
000000
ENDCHAR
STARTCHAR J2749
ENCODING 10057
SWIDTH 1059 0
DWIDTH 24 0
BBX 24 24 0 -2
BITMAP
000000
0000c0
0000c0
0001e0
000160
000160
000330
000230
000230
638230
ecc618
706418
606418
6067f8
606c0c
60680c
60680c
60680c
78d806
6f9006
60380f
600000
600000
f00000
ENDCHAR
STARTCHAR J274a
ENCODING 10058
SWIDTH 1059 0
DWIDTH 24 0
BBX 24 24 0 -2
BITMAP
000000
0000c0
0000c0
0001e0
000160
000160
000330
000230
000230
678230
efc618
78c418
60c418
60c7f8
60cc0c
60c80c
60c80c
60c80c
60d806
60d006
f1f80f
000000
000000
000000
ENDCHAR
STARTCHAR J274b
ENCODING 10059
SWIDTH 1059 0
DWIDTH 24 0
BBX 24 24 0 -2
BITMAP
000000
0000c0
0000c0
000160
000160
000160
000330
000230
000230
60c230
60c618
60c418
60c418
60c7f8
60cc0c
c1880c
c1880c
c1880c
c19806
e39006
fef80f
c00000
c00000
c00000
ENDCHAR
STARTCHAR J274c
ENCODING 10060
SWIDTH 1059 0
DWIDTH 24 0
BBX 24 24 0 -2
BITMAP
000000
0000c0
0000c0
000160
000160
000160
000330
000230
000230
6ee230
f76218
666618
666418
6667f8
66640c
66640c
66640c
666c0c
666806
666806
f6fc0f
000000
000000
000000
ENDCHAR
STARTCHAR J274d
ENCODING 10061
SWIDTH 1059 0
DWIDTH 24 0
BBX 24 24 0 -2
BITMAP
000000
6000c0
e000c0
600160
600160
600160
600330
600230
600230
61f230
60c218
618618
630418
6607f8
6e040c
7e040c
77040c
638c0c
61c806
60e806
f1fc0f
000000
000000
000000
ENDCHAR
STARTCHAR J274e
ENCODING 10062
SWIDTH 1059 0
DWIDTH 24 0
BBX 24 24 0 -2
BITMAP
000000
01e787
00c302
00c302
00c306
006184
006184
006184
00618c
673188
e9b188
70f0c8
60f0d8
60d8d0
60d9d0
60d9d0
60dad0
60ce60
798c60
6f0c60
600c60
600000
600000
f00000
ENDCHAR
STARTCHAR J274f
ENCODING 10063
SWIDTH 1059 0
DWIDTH 24 0
BBX 24 24 0 -2
BITMAP
000000
01e787
00c302
00c302
00c306
006184
006184
006184
00618c
673188
efb188
71b0c8
61b0d8
6198d0
6199d0
6199d0
619ad0
618e60
618c60
618c60
f3cc60
000000
000000
000000
ENDCHAR
STARTCHAR J2750
ENCODING 10064
SWIDTH 1059 0
DWIDTH 24 0
BBX 24 24 0 -2
BITMAP
000000
01e787
00c302
00c302
00c306
006184
006184
006184
00618c
61b188
61b188
61b0c8
61b0d8
6198d0
6199d0
6199d0
c31ad0
c30e60
c30c60
e78c60
fcec60
c00000
c00000
c00000
ENDCHAR
STARTCHAR J2751
ENCODING 10065
SWIDTH 1059 0
DWIDTH 24 0
BBX 24 24 0 -2
BITMAP
000000
007bc7
003182
003182
003182
0018c6
0018c4
0018c4
0018c4
6ef8c4
f76cc4
666c6c
666c68
666c68
666ce8
666ce8
666d68
666730
666630
666630
f77630
000000
000000
000000
ENDCHAR
STARTCHAR J2752
ENCODING 10066
SWIDTH 1059 0
DWIDTH 24 0
BBX 24 24 0 -2
BITMAP
000000
61e787
e0c302
60c302
60c306
606184
606184
606184
60618c
61f188
60f188
61b0c8
6330d8
6618d0
6c19d0
7c19d0
6e1ad0
670e60
638c60
61cc60
f1fc60
000000
000000
000000
ENDCHAR
STARTCHAR J2753
ENCODING 10067
SWIDTH 1059 0
DWIDTH 24 0
BBX 24 24 0 -2
BITMAP
000000
e1fde7
61d8c2
71d8c2
71d8c2
71d8c2
71d8c2
5ad8c2
5ad8c2
5ad866
5acc64
5acc64
4ecc64
4ecc64
4ecce4
4ecce4
4ecd3c
44c618
44c618
44c618
e5e618
000000
000000
000000
ENDCHAR
STARTCHAR J2754
ENCODING 10068
SWIDTH 1059 0
DWIDTH 24 0
BBX 24 24 0 -2
BITMAP
000000
787800
303000
303000
303000
303000
303000
303000
303000
3031fe
3ff186
30330c
303018
303030
303030
303060
3030c0
3030c0
303186
30330c
787bfc
000000
000000
000000
ENDCHAR
STARTCHAR J2755
ENCODING 10069
SWIDTH 1059 0
DWIDTH 24 0
BBX 24 24 0 -2
BITMAP
000000
60f3c0
e06180
606180
606180
606180
606180
606180
606180
63e1bf
617fb3
6261a3
646186
686186
78618c
78618c
6c6198
666198
6661b1
6361b3
f7f3bf
000000
000000
000000
ENDCHAR
STARTCHAR J2756
ENCODING 10070
SWIDTH 1059 0
DWIDTH 24 0
BBX 24 24 0 -2
BITMAP
000000
e3fbc0
63b180
63b180
63b180
63b180
77b180
55b180
55b180
55b1bf
55bfb3
55b1a2
55b186
55b184
55b184
55b18c
5db188
49b198
49b191
49b1b3
ebfbbf
000000
000000
000000
ENDCHAR
STARTCHAR J2757
ENCODING 10071
SWIDTH 1059 0
DWIDTH 24 0
BBX 24 24 0 -2
BITMAP
000000
3e7bc0
633180
c13180
c03180
c03180
c03180
c03180
c03180
c031bf
c03fb3
c031a2
c7b186
c33184
c33184
c3318c
c33188
c33198
c33191
6731b3
3bbbbf
000000
000000
000000
ENDCHAR
STARTCHAR J2758
ENCODING 10072
SWIDTH 1059 0
DWIDTH 24 0
BBX 24 24 0 -2
BITMAP
000000
ff7bc0
db3180
993180
183180
183180
183180
183180
183180
1831bf
183fb3
1831a2
183186
183184
183184
18318c
183188
183198
183191
1831b3
3c3bbf
000000
000000
000000
ENDCHAR
STARTCHAR J2759
ENCODING 10073
SWIDTH 1059 0
DWIDTH 24 0
BBX 24 24 0 -2
BITMAP
000000
000000
007e00
01c380
0381c0
0700e0
0e0070
0e0070
0e0070
0e0070
0e0070
0e0070
0e0070
0e0070
0700e0
0300c0
018180
204204
30420c
1fc3f8
1f81f8
000000
000000
000000
ENDCHAR
STARTCHAR J275a
ENCODING 10074
SWIDTH 1059 0
DWIDTH 24 0
BBX 24 24 0 -2
BITMAP
000000
600000
e007e0
601c38
60381c
60700e
60700e
60700e
60700e
63f00e
61f00e
63700e
66700e
6c301c
781818
780c30
6c0660
664241
636243
61be7e
f3fc3e
000000
000000
000000
ENDCHAR
STARTCHAR J275b
ENCODING 10075
SWIDTH 1059 0
DWIDTH 24 0
BBX 24 24 0 -2
BITMAP
000000
e1e000
61c3f0
61c618
61cc0c
61d806
61d806
73d806
52d806
52d806
52d806
52d806
52d806
52d806
52cc0c
5ec618
4cc330
4ce121
4cf123
4cdf3e
edfe1e
000000
000000
000000
ENDCHAR
STARTCHAR J275c
ENCODING 10076
SWIDTH 1059 0
DWIDTH 24 0
BBX 24 24 0 -2
BITMAP
000000
000ffc
00060c
000606
000606
000600
000600
000610
000610
6387f8
ecc608
706608
606600
606600
606600
606600
606600
606600
78c600
6f8600
600f00
600000
600000
f00000
ENDCHAR
STARTCHAR J275d
ENCODING 10077
SWIDTH 1059 0
DWIDTH 24 0
BBX 24 24 0 -2
BITMAP
000000
000ffc
00060c
000606
000606
000600
000600
000610
000610
3387f8
77c608
38c608
30c600
30c600
30c600
30c600
30c600
30c600
30c600
30c600
79ef00
000000
000000
000000
ENDCHAR
STARTCHAR J275e
ENCODING 10078
SWIDTH 1059 0
DWIDTH 24 0
BBX 24 24 0 -2
BITMAP
000000
000ffc
00060c
000606
000606
000600
000600
000610
000618
30c7f8
30c608
30c608
30c600
30c600
30c600
618600
618600
618600
618600
738600
7eef00
600000
600000
600000
ENDCHAR
STARTCHAR J275f
ENCODING 10079
SWIDTH 1059 0
DWIDTH 24 0
BBX 24 24 0 -2
BITMAP
000000
000006
00000e
000006
000006
000006
000006
000006
000006
6ee7e6
f76c36
666c36
666c36
666c36
666c36
666c36
666c36
666c36
666c36
666c36
f777ef
000000
000000
000000
ENDCHAR
STARTCHAR J2760
ENCODING 10080
SWIDTH 1059 0
DWIDTH 24 0
BBX 24 24 0 -2
BITMAP
000000
00000c
00001c
00000c
00000c
00000c
00000c
00000c
00000c
1f83ec
30e63c
606c0c
600c0c
600c0c
600c0c
600c0c
600c0c
600c0c
603c0c
30e63c
1f83ee
000000
000000
000000
ENDCHAR
STARTCHAR J2761
ENCODING 10081
SWIDTH 1059 0
DWIDTH 24 0
BBX 24 24 0 -2
BITMAP
000000
000006
00000e
000006
000006
000006
000006
000006
000006
6ef876
f38cce
618d86
600d86
600d86
607d86
618d86
630d86
630d86
630d86
633cce
f1e677
000000
000000
000000
ENDCHAR
STARTCHAR J2762
ENCODING 10082
SWIDTH 1059 0
DWIDTH 24 0
BBX 24 24 0 -2
BITMAP
000303
000706
000306
00030c
6d8f0c
f2db18
66db18
61db30
66db30
66db60
66db60
66dbc0
66cfde
f3e3b1
0001b1
000330
000618
00060c
000c06
000c03
001823
003023
00601e
000000
ENDCHAR
STARTCHAR J2763
ENCODING 10083
SWIDTH 1059 0
DWIDTH 24 0
BBX 24 24 0 -2
BITMAP
00030c
00070c
000318
000318
6d8f30
f2db37
66db69
61db61
66db62
66dbc4
66dbcf
66dbc0
66cfbe
f3e3e2
000361
000360
000638
00060c
000c06
000c03
001843
001823
00303e
000000
ENDCHAR
STARTCHAR J2764
ENCODING 10084
SWIDTH 1059 0
DWIDTH 24 0
BBX 24 24 0 -2
BITMAP
000000
000000
000000
000000
000000
000000
000000
000000
000000
0f418c
18c3bc
3021c0
300180
1c0180
070180
01c180
006180
006180
206180
1cc180
1783c0
000000
000000
000000
ENDCHAR
STARTCHAR J2765
ENCODING 10085
SWIDTH 1059 0
DWIDTH 24 0
BBX 24 24 0 -2
BITMAP
000000
7f8000
30c000
306000
306000
306000
306000
306000
306000
3063f0
30ce18
3f8c18
300018
300078
300398
300618
300c18
300c18
300c38
300ff8
7807ce
000000
000000
000000
ENDCHAR
STARTCHAR J2766
ENCODING 10086
SWIDTH 1059 0
DWIDTH 24 0
BBX 24 24 0 -2
BITMAP
000000
607e00
e03300
603180
603180
603180
603180
603180
603180
67b1bc
633346
663ec6
6c3006
78301e
783066
7c30c6
6e3186
673186
63b186
61b18e
f1f8f3
000000
000000
000000
ENDCHAR
STARTCHAR J2767
ENCODING 10087
SWIDTH 1059 0
DWIDTH 24 0
BBX 24 24 0 -2
BITMAP
000000
e3fe00
63b300
63b180
63b180
63b180
77b180
55b180
55b180
55b1bc
55b346
55bec6
55b006
55b01e
55b066
5db0c6
49b186
49b186
49b186
49b18e
ebf8f3
000000
000000
000000
ENDCHAR
STARTCHAR J2768
ENCODING 10088
SWIDTH 1059 0
DWIDTH 24 0
BBX 24 24 0 -2
BITMAP
000000
1e7e00
633300
c1b180
c03180
c03180
c03180
c03180
c03180
c031bc
c03346
c03ec6
c03006
c7b01e
c33066
c330c6
c33186
c33186
c33186
67318e
3978f3
000000
000000
000000
ENDCHAR
STARTCHAR J2769
ENCODING 10089
SWIDTH 1059 0
DWIDTH 24 0
BBX 24 24 0 -2
BITMAP
000000
f79f00
630b00
630b00
630b00
630b00
630b00
631b00
631300
319378
31938c
319306
31b306
33a306
33a306
35a306
1ce306
18c306
18c306
18c3cc
18c370
000000
000000
000000
ENDCHAR
STARTCHAR J276a
ENCODING 10090
SWIDTH 1059 0
DWIDTH 24 0
BBX 24 24 0 -2
BITMAP
000000
180000
380000
180000
180000
180000
180000
180000
180000
183318
1877bc
1839cc
18318c
18318c
18318c
18318c
18318c
18318c
18318c
18318c
3c7bde
000000
000000
000000
ENDCHAR
STARTCHAR J276b
ENCODING 10091
SWIDTH 1059 0
DWIDTH 24 0
BBX 24 24 0 -2
BITMAP
000000
180000
380000
180000
180000
180000
180000
180000
180000
187838
183010
181820
180c40
180680
180300
180300
180580
1808c0
181060
182030
3c7078
000000
000000
000000
ENDCHAR
STARTCHAR J276c
ENCODING 10092
SWIDTH 1059 0
DWIDTH 24 0
BBX 24 24 0 -2
BITMAP
000000
7f0000
30c000
306000
306000
306000
306000
306000
306000
30c1ec
3f831c
30660c
30360c
30360c
30360c
30360c
30360c
30360c
30331c
3061ec
7f800c
00000c
00000c
00001e
ENDCHAR
STARTCHAR J276d
ENCODING 10093
SWIDTH 1059 0
DWIDTH 24 0
BBX 24 24 0 -2
BITMAP
000000
0fa000
306000
603000
601000
c00000
c00000
c00000
c00000
c00f0f
c00602
c00306
c00304
c0798c
c03188
c030d8
c030d0
c03070
607070
30b020
1f3060
000040
000340
000380
ENDCHAR
STARTCHAR J276e
ENCODING 10094
SWIDTH 1059 0
DWIDTH 24 0
BBX 24 24 0 -2
BITMAP
000000
0fd000
303000
601800
600800
600000
600000
700000
380000
1e0f0e
078604
01e604
007308
003b08
001988
001988
0018d0
4018d0
6018f0
383060
2fc060
000000
000000
000000
ENDCHAR
STARTCHAR J276f
ENCODING 10095
SWIDTH 1059 0
DWIDTH 24 0
BBX 24 24 0 -2
BITMAP
0000c0
3c0180
660300
c30600
c00c00
c01800
c03000
c36000
62c000
3db000
01f000
0333c7
06319c
0c3336
183636
303c1c
603c30
c03e38
00371e
0033b7
0031e3
0079e3
00003f
00001e
ENDCHAR
STARTCHAR J2821
ENCODING 10273
SWIDTH 1059 0
DWIDTH 24 0
BBX 24 24 0 -2
BITMAP
000000
000000
000000
000000
00ffe0
00c020
01e010
016000
033000
023020
063020
041ff0
041810
0c0c00
0ffc00
180c00
100600
100602
300302
200302
f80fff
000000
000000
000000
ENDCHAR
STARTCHAR J2822
ENCODING 10274
SWIDTH 1059 0
DWIDTH 24 0
BBX 24 24 0 -2
BITMAP
000000
000000
000000
0fff80
0300e0
030030
030018
030018
030018
030018
030018
1fe018
030018
030018
030018
030018
030018
030018
030030
0300e0
0fff80
000000
000000
000000
ENDCHAR
STARTCHAR J2823
ENCODING 10275
SWIDTH 1059 0
DWIDTH 24 0
BBX 24 24 0 -2
BITMAP
000000
000000
000000
000000
000000
000000
000000
000000
01fc00
070600
060300
000300
000300
003f00
01c300
060300
0c0300
0c0300
0c0320
060f20
01f1c0
000000
3ffff8
000000
ENDCHAR
STARTCHAR J2824
ENCODING 10276
SWIDTH 1059 0
DWIDTH 24 0
BBX 24 24 0 -2
BITMAP
000000
000000
000000
000000
0f00f0
060060
060060
3ffffc
060060
060060
060060
060060
07ffe0
060060
060060
060060
060060
060060
060060
060060
0f00f0
000000
000000
000000
ENDCHAR
STARTCHAR J2826
ENCODING 10278
SWIDTH 1059 0
DWIDTH 24 0
BBX 24 24 0 -2
BITMAP
000000
000000
000000
000000
1f83f0
0600c0
0600c0
0600c0
0600c0
0600c0
0600c0
0600c0
0600c0
0600c0
0600c0
0600c0
0600c0
0600c0
0600c0
0600c0
1f80c0
0030c0
003180
001f00
ENDCHAR
STARTCHAR J2828
ENCODING 10280
SWIDTH 1059 0
DWIDTH 24 0
BBX 24 24 0 -2
BITMAP
000000
000000
000000
1e0000
0c0000
0c0000
0c0000
0c0000
0c0070
0c00d8
0c0070
0c0000
0c0000
0c0000
0c0000
0c0000
0c0000
0c0020
0c0040
0c00c0
1fffc0
000000
000000
000000
ENDCHAR
STARTCHAR J2829
ENCODING 10281
SWIDTH 1059 0
DWIDTH 24 0
BBX 24 24 0 -2
BITMAP
000000
000000
000000
078000
030000
030c00
033000
03c000
070000
1b0000
030000
030000
030000
030000
030000
030000
030018
030018
030030
030070
07fff0
000000
000000
000000
ENDCHAR
STARTCHAR J282a
ENCODING 10282
SWIDTH 1059 0
DWIDTH 24 0
BBX 24 24 0 -2
BITMAP
000000
000000
000040
000080
007f00
01c180
0302c0
060260
060460
0c0830
0c0830
0c1030
0c1030
0c2030
0c2030
0c4030
068060
068060
0300c0
01c380
027e00
040000
000000
000000
ENDCHAR
STARTCHAR J282b
ENCODING 10283
SWIDTH 1059 0
DWIDTH 24 0
BBX 24 24 0 -2
BITMAP
000000
000000
000000
000000
03effe
0e3e02
180e02
300e00
300600
600600
600600
600604
6007fc
600604
600600
600600
300600
300e00
180e02
0e3e02
03effe
000000
000000
000000
ENDCHAR
STARTCHAR J282c
ENCODING 10284
SWIDTH 1059 0
DWIDTH 24 0
BBX 24 24 0 -2
BITMAP
000000
000000
000000
000000
000000
000000
000000
000000
003c00
00c300
018180
0300c0
0300c0
0300c0
0300c0
0300c0
0300c0
0300c0
018180
00c300
003c00
000000
0ffff0
000000
ENDCHAR
STARTCHAR J282d
ENCODING 10285
SWIDTH 1059 0
DWIDTH 24 0
BBX 24 24 0 -2
BITMAP
000000
000000
000000
000000
0ff000
018000
018000
01bfe0
01c030
018018
018018
018018
018018
018018
018018
018018
01c030
01bfe0
018000
018000
0ffe00
000000
000000
000000
ENDCHAR
STARTCHAR J282e
ENCODING 10286
SWIDTH 1059 0
DWIDTH 24 0
BBX 24 24 0 -2
BITMAP
000000
000000
000000
0ffff0
0c1830
181818
101808
001800
001800
001800
001800
0ffff0
001800
001800
001800
001800
001800
001800
001800
007e00
000000
000000
000000
000000
ENDCHAR
STARTCHAR J282f
ENCODING 10287
SWIDTH 1059 0
DWIDTH 24 0
BBX 24 24 0 -2
BITMAP
000000
000000
000000
0fc000
030000
030000
031f80
0360c0
038060
030030
030030
030030
030030
030030
030030
030030
030060
030060
0300c0
030f00
0fc000
000000
000000
000000
ENDCHAR
STARTCHAR J2831
ENCODING 10289
SWIDTH 1059 0
DWIDTH 24 0
BBX 24 24 0 -2
BITMAP
000000
01ff80
0700e0
0c0030
180018
30000c
34018c
63ffc6
610186
600186
600186
600186
600186
600186
600186
600186
30018c
30010c
180018
0c0030
0700e0
01ff80
000000
000000
ENDCHAR
STARTCHAR J2832
ENCODING 10290
SWIDTH 1059 0
DWIDTH 24 0
BBX 24 24 0 -2
BITMAP
000000
01ff80
0700e0
0c0030
180018
30000c
30000c
660006
638006
618006
618006
618006
618006
618006
618006
6180c6
30ffec
30000c
180018
0c0030
0700e0
01ff80
000000
000000
ENDCHAR
STARTCHAR J2833
ENCODING 10291
SWIDTH 1059 0
DWIDTH 24 0
BBX 24 24 0 -2
BITMAP
000000
01ff80
0700e0
0c0030
180018
30000c
37018c
61ffc6
618006
618006
618006
618006
618006
618006
6180c6
60ffe6
30000c
30000c
180018
0c0030
0700e0
01ff80
000000
000000
ENDCHAR
STARTCHAR J2834
ENCODING 10292
SWIDTH 1059 0
DWIDTH 24 0
BBX 24 24 0 -2
BITMAP
000000
01ff80
0700e0
0c0030
180018
34018c
33ffcc
610186
600186
600106
600106
67ff86
618006
618006
618006
618186
30ffcc
30000c
180018
0c0030
0700e0
01ff80
000000
000000
ENDCHAR
STARTCHAR J2835
ENCODING 10293
SWIDTH 1059 0
DWIDTH 24 0
BBX 24 24 0 -2
BITMAP
000000
01ff80
0700e0
0c0030
180018
30000c
3e00cc
63ffe6
6300c6
6300c6
6300c6
6300c6
630086
630086
630086
63ffc6
32000c
30000c
180018
0c0030
0700e0
01ff80
000000
000000
ENDCHAR
STARTCHAR J2836
ENCODING 10294
SWIDTH 1059 0
DWIDTH 24 0
BBX 24 24 0 -2
BITMAP
000000
01ff80
0700e0
0c0030
180318
3001cc
3600cc
6380c6
6180c6
61ffc6
6180c6
6180c6
6180c6
6180c6
6180c6
61ffc6
31008c
30000c
180018
0c0030
0700e0
01ff80
000000
000000
ENDCHAR
STARTCHAR J2837
ENCODING 10295
SWIDTH 1059 0
DWIDTH 24 0
BBX 24 24 0 -2
BITMAP
000000
01ff80
0700e0
0c0030
183818
300e0c
300c0c
600c06
600c06
601806
601c06
603306
6031c6
6060e6
60c076
618036
32000c
30000c
180018
0c0030
0700e0
01ff80
000000
000000
ENDCHAR
STARTCHAR J2838
ENCODING 10296
SWIDTH 1059 0
DWIDTH 24 0
BBX 24 24 0 -2
BITMAP
000000
01ff80
0700e0
0c0030
183018
30180c
307e0c
61c386
6300c6
660066
660066
660066
660066
660066
6300c6
61c386
307e0c
30000c
180018
0c0030
0700e0
01ff80
000000
000000
ENDCHAR
STARTCHAR J2839
ENCODING 10297
SWIDTH 1059 0
DWIDTH 24 0
BBX 24 24 0 -2
BITMAP
000000
01ff80
0700e0
0c0030
180018
34006c
33fffc
610c06
600c06
601806
601c06
603206
603186
6060c6
60c0e6
618066
32000c
30000c
180018
0c0030
0700e0
01ff80
000000
000000
ENDCHAR
STARTCHAR J283a
ENCODING 10298
SWIDTH 1059 0
DWIDTH 24 0
BBX 24 24 0 -2
BITMAP
000000
01ff80
0700e0
0c0030
188118
307f8c
30200c
640066
63fff6
610c06
600c06
601c06
601b06
6031c6
6060e6
60c066
33000c
30000c
180018
0c0030
0700e0
01ff80
000000
000000
ENDCHAR
STARTCHAR J283b
ENCODING 10299
SWIDTH 1059 0
DWIDTH 24 0
BBX 24 24 0 -2
BITMAP
000000
01ff80
0700e0
0c0030
180018
34018c
33ffcc
610186
600186
600186
681f86
67e186
630306
600306
600306
600606
30040c
30080c
180018
0c0030
0700e0
01ff80
000000
000000
ENDCHAR
STARTCHAR J283c
ENCODING 10300
SWIDTH 1059 0
DWIDTH 24 0
BBX 24 24 0 -2
BITMAP
000000
01ff80
0700e0
0c0030
180018
30000c
37018c
61ffc6
618006
618006
618186
61ffc6
618006
618006
618006
6180c6
30ffec
30000c
180018
0c0030
0700e0
01ff80
000000
000000
ENDCHAR
STARTCHAR J283d
ENCODING 10301
SWIDTH 1059 0
DWIDTH 24 0
BBX 24 24 0 -2
BITMAP
000000
01ff80
0700e0
0c0030
180018
30000c
30000c
620186
61ffc6
608006
600306
6181c6
60e186
606306
606306
646346
33ffec
31000c
180018
0c0030
0700e0
01ff80
000000
000000
ENDCHAR
STARTCHAR J283e
ENCODING 10302
SWIDTH 1059 0
DWIDTH 24 0
BBX 24 24 0 -2
BITMAP
000000
01ff80
0700e0
0c0030
180018
30820c
307f0c
600006
680066
67fff6
621006
601806
607e06
60c306
618186
618186
30c30c
307e0c
180018
0c0030
0700e0
01ff80
000000
000000
ENDCHAR
STARTCHAR J283f
ENCODING 10303
SWIDTH 1059 0
DWIDTH 24 0
BBX 24 24 0 -2
BITMAP
000000
03ffc0
0e0070
180618
30038c
30018c
681986
67fd86
621986
601986
6031b6
6031fe
606186
60c186
618186
630186
6c0186
30018c
30018c
180118
0e0070
03ffc0
000000
000000
ENDCHAR
STARTCHAR J2840
ENCODING 10304
SWIDTH 1059 0
DWIDTH 24 0
BBX 24 24 0 -2
BITMAP
000000
03ffc0
0e0070
180618
30038c
30018c
600186
6c0186
660186
660186
6601b6
6601fe
660786
663986
67e186
638186
600186
30018c
30018c
180198
0e0170
03ffc0
000000
000000
ENDCHAR
STARTCHAR J2841
ENCODING 10305
SWIDTH 1059 0
DWIDTH 24 0
BBX 24 24 0 -2
BITMAP
000000
03ffc0
0e0070
180618
30038c
30018c
6c1986
67fd86
660186
660186
6601b6
6601fe
660186
660d86
67f186
638186
600186
30018c
30018c
180198
0e0170
03ffc0
000000
000000
ENDCHAR
STARTCHAR J2842
ENCODING 10306
SWIDTH 1059 0
DWIDTH 24 0
BBX 24 24 0 -2
BITMAP
000000
03ffc0
0e0670
180398
30018c
30198c
6ffd86
641986
601986
601186
6ff9b6
6601fe
660186
660586
661986
67e186
638186
30018c
30018c
180198
0e0170
03ffc0
000000
000000
ENDCHAR
STARTCHAR J2843
ENCODING 10307
SWIDTH 1059 0
DWIDTH 24 0
BBX 24 24 0 -2
BITMAP
000000
03ffc0
0e0670
180398
30018c
30018c
6c1986
67fd86
661986
661986
6619b6
6611fe
661186
661186
67f986
640186
600186
30018c
30018c
180198
0e0170
03ffc0
000000
000000
ENDCHAR
STARTCHAR J2844
ENCODING 10308
SWIDTH 1059 0
DWIDTH 24 0
BBX 24 24 0 -2
BITMAP
000000
03ffc0
0e0670
180398
30018c
30618c
603986
781986
6e1986
661986
67f9b6
6619fe
661986
661986
67f986
641186
600186
30018c
30018c
180198
0e0170
03ffc0
000000
000000
ENDCHAR
STARTCHAR J2845
ENCODING 10309
SWIDTH 1059 0
DWIDTH 24 0
BBX 24 24 0 -2
BITMAP
000000
03ffc0
0e0670
180398
30018c
31c18c
606186
606186
60c186
618186
6341b6
6621fe
6c3186
703186
600186
600186
600186
30018c
30018c
180118
0e0070
03ffc0
000000
000000
ENDCHAR
STARTCHAR J2846
ENCODING 10310
SWIDTH 1059 0
DWIDTH 24 0
BBX 24 24 0 -2
BITMAP
000000
03ffc0
0e0670
180398
30018c
30018c
63e186
663186
6c1986
6c1986
6c19b6
6c19fe
6c1986
663186
63e186
600186
600186
30018c
30018c
180198
0e0170
03ffc0
000000
000000
ENDCHAR
STARTCHAR J2847
ENCODING 10311
SWIDTH 1059 0
DWIDTH 24 0
BBX 24 24 0 -2
BITMAP
000000
03ffc0
0e0670
180398
30018c
30018c
701986
6ffd86
641986
603186
6061b6
60c1fe
61a186
631186
661986
781986
600186
30018c
30018c
180198
0e0170
03ffc0
000000
000000
ENDCHAR
STARTCHAR J2848
ENCODING 10312
SWIDTH 1059 0
DWIDTH 24 0
BBX 24 24 0 -2
BITMAP
000000
03ffc0
0e0670
180398
34018c
33e18c
600186
701986
6ffd86
641986
6031b6
6061fe
60e186
619186
631986
661986
680186
30018c
30018c
180198
0e0170
03ffc0
000000
000000
ENDCHAR
STARTCHAR J2849
ENCODING 10313
SWIDTH 1059 0
DWIDTH 24 0
BBX 24 24 0 -2
BITMAP
000000
03ffc0
0e0670
180398
30018c
30198c
6ffd86
641986
601986
61f1b6
7f31fe
686186
60c186
618186
630186
660186
680186
30018c
30018c
180198
0e0170
03ffc0
000000
000000
ENDCHAR
STARTCHAR J284a
ENCODING 10314
SWIDTH 1059 0
DWIDTH 24 0
BBX 24 24 0 -2
BITMAP
000000
03ffc0
0e0670
180398
30018c
30018c
6c1986
67fd86
660186
663186
67f9b6
6601fe
660186
660d86
67f186
638186
60018c
30018c
300198
180198
0e0170
03ffc0
000000
000000
ENDCHAR
STARTCHAR J284b
ENCODING 10315
SWIDTH 1059 0
DWIDTH 24 0
BBX 24 24 0 -2
BITMAP
000000
03ffc0
0e0670
180398
30018c
30018c
703186
6ff986
600186
647186
6231b6
6331fe
632186
614586
60f986
7f8186
680186
30018c
30018c
180198
0e0170
03ffc0
000000
000000
ENDCHAR
STARTCHAR J284c
ENCODING 10316
SWIDTH 1059 0
DWIDTH 24 0
BBX 24 24 0 -2
BITMAP
000000
03ffc0
0e0670
180398
34018c
33f18c
600186
701986
6ffd86
640186
60c1b6
6331fe
661986
661986
661986
633186
60c186
30018c
30018c
180198
0e0170
03ffc0
000000
000000
ENDCHAR
STARTCHAR J284d
ENCODING 10317
SWIDTH 1059 0
DWIDTH 24 0
BBX 24 24 0 -2
BITMAP
000000
01ff80
0700e0
0c0030
180018
30000c
30000c
600006
607e06
61c306
618186
600186
603f86
60e186
618186
618186
31878c
30fccc
180018
0c0030
0700e0
01ff80
000000
000000
ENDCHAR
STARTCHAR J284e
ENCODING 10318
SWIDTH 1059 0
DWIDTH 24 0
BBX 24 24 0 -2
BITMAP
000000
01ff80
0700e0
0cc030
19c018
30c00c
30c00c
60c006
60df06
60e186
60c0c6
60c0c6
60c0c6
60c0c6
60c0c6
60c0c6
30e18c
30de0c
180018
0c0030
0700e0
01ff80
000000
000000
ENDCHAR
STARTCHAR J284f
ENCODING 10319
SWIDTH 1059 0
DWIDTH 24 0
BBX 24 24 0 -2
BITMAP
000000
01ff80
0700e0
0c0030
180018
30000c
30000c
600006
603e06
60c386
618186
618006
618006
618006
618006
6180c6
30c38c
307e0c
180018
0c0030
0700e0
01ff80
000000
000000
ENDCHAR
STARTCHAR J2850
ENCODING 10320
SWIDTH 1059 0
DWIDTH 24 0
BBX 24 24 0 -2
BITMAP
000000
01ff80
0700e0
0c0330
180718
30030c
30030c
600306
60fb06
618706
630306
630306
630306
630306
630306
630306
31870c
30fb8c
180018
0c0030
0700e0
01ff80
000000
000000
ENDCHAR
STARTCHAR J2851
ENCODING 10321
SWIDTH 1059 0
DWIDTH 24 0
BBX 24 24 0 -2
BITMAP
000000
01ff80
0700e0
0c0030
180018
30000c
30000c
600006
60fe06
618306
630186
630186
63ff86
630006
630006
630186
31870c
30fc0c
180018
0c0030
0700e0
01ff80
000000
000000
ENDCHAR
STARTCHAR J2852
ENCODING 10322
SWIDTH 1059 0
DWIDTH 24 0
BBX 24 24 0 -2
BITMAP
000000
01ff80
0700e0
0c1e30
183318
30300c
30300c
603006
60fc06
603006
603006
603006
603006
603006
603006
603006
30300c
30780c
180018
0c0030
0700e0
01ff80
000000
000000
ENDCHAR
STARTCHAR J2853
ENCODING 10323
SWIDTH 1059 0
DWIDTH 24 0
BBX 24 24 0 -2
BITMAP
000000
01ff80
0700e0
0c0030
180018
30000c
30018c
600206
607e06
60c306
618186
618186
60c306
61fe06
630006
63ff06
31ffcc
3300cc
1b00d8
0dffb0
0700e0
01ff80
000000
000000
ENDCHAR
STARTCHAR J2854
ENCODING 10324
SWIDTH 1059 0
DWIDTH 24 0
BBX 24 24 0 -2
BITMAP
000000
01ff80
0700e0
0cc030
19c018
30c00c
30c00c
60c006
60cf06
60f186
60c186
60c186
60c186
60c186
60c186
60c186
30c18c
31e3cc
180018
0c0030
0700e0
01ff80
000000
000000
ENDCHAR
STARTCHAR J2855
ENCODING 10325
SWIDTH 1059 0
DWIDTH 24 0
BBX 24 24 0 -2
BITMAP
000000
01ff80
0700e0
0c1830
181818
30000c
30000c
600006
601806
603806
601806
601806
601806
601806
601806
601806
30180c
303c0c
180018
0c0030
0700e0
01ff80
000000
000000
ENDCHAR
STARTCHAR J2856
ENCODING 10326
SWIDTH 1059 0
DWIDTH 24 0
BBX 24 24 0 -2
BITMAP
000000
01ff80
0700e0
0c1830
181818
30000c
30000c
600006
601806
603806
601806
601806
601806
601806
601806
601806
30180c
30180c
18d818
0cd830
0770e0
01ff80
000000
000000
ENDCHAR
STARTCHAR J2857
ENCODING 10327
SWIDTH 1059 0
DWIDTH 24 0
BBX 24 24 0 -2
BITMAP
000000
01ff80
0700e0
0d8030
1b8018
31800c
31800c
618006
618786
618206
618c06
61b006
61f006
619806
618c06
618606
31830c
33c3cc
180018
0c0030
0700e0
01ff80
000000
000000
ENDCHAR
STARTCHAR J2858
ENCODING 10328
SWIDTH 1059 0
DWIDTH 24 0
BBX 24 24 0 -2
BITMAP
000000
01ff80
0700e0
0c1830
183818
30180c
30180c
601806
601806
601806
601806
601806
601806
601806
601806
601806
30180c
303c0c
180018
0c0030
0700e0
01ff80
000000
000000
ENDCHAR
STARTCHAR J2859
ENCODING 10329
SWIDTH 1059 0
DWIDTH 24 0
BBX 24 24 0 -2
BITMAP
000000
01ff80
0700e0
0c0030
180018
30000c
30000c
600006
637bc6
679cc6
6318c6
6318c6
6318c6
6318c6
6318c6
6318c6
3318cc
37bdec
180018
0c0030
0700e0
01ff80
000000
000000
ENDCHAR
STARTCHAR J285a
ENCODING 10330
SWIDTH 1059 0
DWIDTH 24 0
BBX 24 24 0 -2
BITMAP
000000
01ff80
0700e0
0c0030
180018
30000c
30000c
600006
60cf06
61d186
60e186
60c186
60c186
60c186
60c186
60c186
30c18c
31e3cc
180018
0c0030
0700e0
01ff80
000000
000000
ENDCHAR
STARTCHAR J285b
ENCODING 10331
SWIDTH 1059 0
DWIDTH 24 0
BBX 24 24 0 -2
BITMAP
000000
01ff80
0700e0
0c0030
180018
30000c
30000c
600006
607e06
60c306
618186
618186
618186
618186
618186
618186
30c306
307e0c
18000c
0c0018
070070
01ffc0
000000
000000
ENDCHAR
STARTCHAR J285c
ENCODING 10332
SWIDTH 1059 0
DWIDTH 24 0
BBX 24 24 0 -2
BITMAP
000000
01ff80
0700e0
0c0030
180018
30000c
30000c
600006
61df06
60e186
60c0c6
60c0c6
60c0c6
60c0c6
60c0c6
60c0c6
30e38c
30de0c
18c018
0cc030
07e0e0
01ff80
000000
000000
ENDCHAR
STARTCHAR J285d
ENCODING 10333
SWIDTH 1059 0
DWIDTH 24 0
BBX 24 24 0 -2
BITMAP
000000
01ff80
0700e0
0c0030
180018
30000c
30000c
600006
607d86
60c386
618186
618186
618186
618186
618186
618186
30c38c
307d8c
180198
0c01b0
0703e0
01ff80
000000
000000
ENDCHAR
STARTCHAR J285e
ENCODING 10334
SWIDTH 1059 0
DWIDTH 24 0
BBX 24 24 0 -2
BITMAP
000000
01ff80
0700e0
0c0030
180018
30000c
30000c
600006
60c786
61d986
60e006
60c006
60c006
60c006
60c006
60c006
30c00c
31e00c
180018
0c0030
0700e0
01ff80
000000
000000
ENDCHAR
STARTCHAR J285f
ENCODING 10335
SWIDTH 1059 0
DWIDTH 24 0
BBX 24 24 0 -2
BITMAP
000000
01ff80
0700e0
0c0030
180018
30000c
30000c
600006
607f06
61c186
618086
61e006
607c06
600f06
600186
610186
31838c
30fe0c
180018
0c0030
0700e0
01ff80
000000
000000
ENDCHAR
STARTCHAR J2860
ENCODING 10336
SWIDTH 1059 0
DWIDTH 24 0
BBX 24 24 0 -2
BITMAP
000000
01ff80
0700e0
0c0030
180018
30000c
30100c
603006
603006
60fc06
603006
603006
603006
603006
603006
603006
30330c
301c0c
180018
0c0030
0700e0
01ff80
000000
000000
ENDCHAR
STARTCHAR J2861
ENCODING 10337
SWIDTH 1059 0
DWIDTH 24 0
BBX 24 24 0 -2
BITMAP
000000
01ff80
0700e0
0c0030
180018
30000c
30000c
600006
618306
638706
618306
618306
618306
618306
618306
618306
318f0c
30f38c
180018
0c0030
0700e0
01ff80
000000
000000
ENDCHAR
STARTCHAR J2862
ENCODING 10338
SWIDTH 1059 0
DWIDTH 24 0
BBX 24 24 0 -2
BITMAP
000000
01ff80
0700e0
0c0030
180018
30000c
30000c
600006
67c1c6
618086
618086
60c106
60c106
606206
606206
603406
30340c
30180c
180018
0c0030
0700e0
01ff80
000000
000000
ENDCHAR
STARTCHAR J2863
ENCODING 10339
SWIDTH 1059 0
DWIDTH 24 0
BBX 24 24 0 -2
BITMAP
000000
01ff80
0700e0
0c0030
180018
30000c
30000c
600006
6f7876
663026
663046
631846
631886
618c86
619d06
61ef06
30c60c
30c60c
180018
0c0030
0700e0
01ff80
000000
000000
ENDCHAR
STARTCHAR J2864
ENCODING 10340
SWIDTH 1059 0
DWIDTH 24 0
BBX 24 24 0 -2
BITMAP
000000
01ff80
0700e0
0c0030
180018
30000c
30000c
600006
63c1c6
60c086
606106
603206
601c06
601806
602c06
604606
30830c
3383cc
180018
0c0030
0700e0
01ff80
000000
000000
ENDCHAR
STARTCHAR J2865
ENCODING 10341
SWIDTH 1059 0
DWIDTH 24 0
BBX 24 24 0 -2
BITMAP
000000
01ff80
0700e0
0c0030
180018
30000c
30000c
600006
63c1c6
618186
60c106
606306
606206
603606
603c06
601806
30180c
30100c
183018
0ce030
07c0e0
01ff80
000000
000000
ENDCHAR
STARTCHAR J2866
ENCODING 10342
SWIDTH 1059 0
DWIDTH 24 0
BBX 24 24 0 -2
BITMAP
000000
01ff80
0700e0
0c0030
180018
30000c
30000c
600006
607f86
606186
608306
600606
600c06
601806
603006
606086
30c30c
30ff0c
180018
0c0030
0700e0
01ff80
000000
000000
ENDCHAR
STARTCHAR J2867
ENCODING 10343
SWIDTH 1059 0
DWIDTH 24 0
BBX 24 24 0 -2
BITMAP
000000
01ff80
0700e0
0c1830
187818
30180c
30180c
601806
601806
601806
601806
601806
601806
601806
601806
601806
30180c
30180c
187e18
0c0030
0700e0
01ff80
000000
000000
ENDCHAR
STARTCHAR J2868
ENCODING 10344
SWIDTH 1059 0
DWIDTH 24 0
BBX 24 24 0 -2
BITMAP
000000
01ff80
0700e0
0c7e30
18c318
31818c
31c18c
608186
600306
600606
601c06
603006
606006
60c006
618006
6180c6
31818c
31ff8c
180018
0c0030
0700e0
01ff80
000000
000000
ENDCHAR
STARTCHAR J2869
ENCODING 10345
SWIDTH 1059 0
DWIDTH 24 0
BBX 24 24 0 -2
BITMAP
000000
01ff80
0700e0
0c7c30
18c618
31830c
31830c
600306
600306
600606
603c06
600706
600186
600186
600186
600186
31818c
31c30c
187c18
0c0030
0700e0
01ff80
000000
000000
ENDCHAR
STARTCHAR J286a
ENCODING 10346
SWIDTH 1059 0
DWIDTH 24 0
BBX 24 24 0 -2
BITMAP
000000
01ff80
0700e0
0c0c30
181c18
301c0c
302c0c
604c06
604c06
608c06
608c06
610c06
610c06
620c06
67ff86
600c06
300c0c
300c0c
183f18
0c0030
0700e0
01ff80
000000
000000
ENDCHAR
STARTCHAR J286b
ENCODING 10347
SWIDTH 1059 0
DWIDTH 24 0
BBX 24 24 0 -2
BITMAP
000000
01ff80
0700e0
0c8330
18fe18
30c00c
30c00c
60c006
60c006
60de06
60e306
60c186
600186
600186
600186
600186
30c18c
30c30c
183c18
0c0030
0700e0
01ff80
000000
000000
ENDCHAR
STARTCHAR J286c
ENCODING 10348
SWIDTH 1059 0
DWIDTH 24 0
BBX 24 24 0 -2
BITMAP
000000
01ff80
0700e0
0c3e30
186318
30c38c
30c38c
60c006
60c006
60c006
60de06
60e306
60c186
60c186
60c186
60c186
30c18c
30630c
181c18
0c0030
0700e0
01ff80
000000
000000
ENDCHAR
STARTCHAR J286d
ENCODING 10349
SWIDTH 1059 0
DWIDTH 24 0
BBX 24 24 0 -2
BITMAP
000000
01ff80
0700e0
0c0030
19ff98
31818c
31018c
610306
600306
600606
600c06
600c06
601806
601806
601806
601806
30180c
30180c
181818
0c0030
0700e0
01ff80
000000
000000
ENDCHAR
STARTCHAR J286e
ENCODING 10350
SWIDTH 1059 0
DWIDTH 24 0
BBX 24 24 0 -2
BITMAP
000000
01ff80
0700e0
0c3c30
18c318
31818c
31818c
618186
60c306
607606
601c06
606606
60c306
618186
618186
618186
31818c
30c30c
187e18
0c0030
0700e0
01ff80
000000
000000
ENDCHAR
STARTCHAR J286f
ENCODING 10351
SWIDTH 1059 0
DWIDTH 24 0
BBX 24 24 0 -2
BITMAP
000000
01ff80
0700e0
0c7c30
18c618
31830c
31830c
618306
618306
618306
60c706
607b06
600306
600306
600306
608306
31c30c
30c60c
187c18
0c0030
0700e0
01ff80
000000
000000
ENDCHAR
STARTCHAR J2870
ENCODING 10352
SWIDTH 1059 0
DWIDTH 24 0
BBX 24 24 0 -2
BITMAP
000000
01ff80
0700e0
0c0030
198798
378ccc
31986c
619866
619866
619866
619866
619866
619866
619866
619866
619866
318ccc
33c78c
180018
0c0030
0700e0
01ff80
000000
000000
ENDCHAR
STARTCHAR J2871
ENCODING 10353
SWIDTH 1059 0
DWIDTH 24 0
BBX 24 24 0 -2
BITMAP
000000
01ff80
0700e0
0c0030
198198
33838c
31818c
618186
618186
618186
618186
618186
618186
618186
618186
618186
31818c
33c3cc
180018
0c0030
0700e0
01ff80
000000
000000
ENDCHAR
STARTCHAR J2872
ENCODING 10354
SWIDTH 1059 0
DWIDTH 24 0
BBX 24 24 0 -2
BITMAP
000000
01ff80
0700e0
0c0030
1987d8
33986c
31986c
618066
618066
6180c6
618186
618306
618606
618c06
619806
619826
31982c
33dfec
180018
0c0030
0700e0
01ff80
000000
000000
ENDCHAR
STARTCHAR J2873
ENCODING 10355
SWIDTH 1059 0
DWIDTH 24 0
BBX 24 24 0 -2
BITMAP
000000
01ff80
0700e0
0c0030
198798
3398cc
31986c
618066
618066
6180c6
618386
6180c6
618066
618066
61b066
61b066
3198cc
33cf8c
180018
0c0030
0700e0
01ff80
000000
000000
ENDCHAR
STARTCHAR J2874
ENCODING 10356
SWIDTH 1059 0
DWIDTH 24 0
BBX 24 24 0 -2
BITMAP
000000
01ff80
0700e0
0c0030
198198
33838c
31838c
618586
618586
618986
618986
619186
619186
61a186
61bff6
618186
31818c
33c3cc
180018
0c0030
0700e0
01ff80
000000
000000
ENDCHAR
STARTCHAR J2875
ENCODING 10357
SWIDTH 1059 0
DWIDTH 24 0
BBX 24 24 0 -2
BITMAP
000000
01ff80
0700e0
0c0030
199ff8
339fcc
31900c
619006
619006
619786
6198c6
619066
618066
618066
618066
619866
3198cc
33c78c
180018
0c0030
0700e0
01ff80
000000
000000
ENDCHAR
STARTCHAR J2876
ENCODING 10358
SWIDTH 1059 0
DWIDTH 24 0
BBX 24 24 0 -2
BITMAP
000000
180006
78000c
180018
180030
180060
1800c0
180180
180300
180600
180c00
1818fc
7e3386
006306
00c006
01800c
030018
060070
0c00c0
180182
300302
6003fe
c003fe
000000
ENDCHAR
STARTCHAR J2877
ENCODING 10359
SWIDTH 1059 0
DWIDTH 24 0
BBX 24 24 0 -2
BITMAP
000000
180006
78000c
180018
180030
180060
1800c0
180180
180300
180600
180c00
1818f8
7e338c
006306
00c006
01800c
030038
06000c
0c0006
180006
300306
60038c
c000f8
000000
ENDCHAR
STARTCHAR J2878
ENCODING 10360
SWIDTH 1059 0
DWIDTH 24 0
BBX 24 24 0 -2
BITMAP
000000
1f8006
70c00c
60c018
00c030
018060
0300c0
0e0180
180300
304600
604c00
7fd8f8
7ff38c
006306
00c006
01800c
030038
06000c
0c0006
180006
300306
60038c
c000f8
000000
ENDCHAR
STARTCHAR J2879
ENCODING 10361
SWIDTH 1059 0
DWIDTH 24 0
BBX 24 24 0 -2
BITMAP
000000
180006
78000c
180018
180030
180060
1800c0
180180
180300
180630
180c70
181870
7e30f0
0061b0
00c330
018330
030630
060c30
0c1ffe
180030
300030
600030
c000fc
000000
ENDCHAR
STARTCHAR J287a
ENCODING 10362
SWIDTH 1059 0
DWIDTH 24 0
BBX 24 24 0 -2
BITMAP
000000
1f0006
71800c
60c018
00c030
018060
0700c0
018180
00c300
00c630
60cc70
719870
1f30f0
0061b0
00c330
018330
030630
060c30
0c1ffe
180030
300030
600030
c000fc
000000
ENDCHAR
STARTCHAR J287b
ENCODING 10363
SWIDTH 1059 0
DWIDTH 24 0
BBX 24 24 0 -2
BITMAP
000000
180006
78000c
180018
180030
180060
1800c0
180180
180300
180600
180c00
1819f0
7e3318
00660c
00c60c
018318
0303f8
06060c
0c0c06
180c06
300c06
60060c
c003f8
000000
ENDCHAR
STARTCHAR J287c
ENCODING 10364
SWIDTH 1059 0
DWIDTH 24 0
BBX 24 24 0 -2
BITMAP
000000
1f0006
71800c
60c018
00c030
018060
0700c0
018180
00c300
00c600
60cc00
7199f0
1f3318
00660c
00c60c
018318
0303f8
06060c
0c0c06
180c06
300c06
60060c
c003f8
000000
ENDCHAR
STARTCHAR J287d
ENCODING 10365
SWIDTH 1059 0
DWIDTH 24 0
BBX 24 24 0 -2
BITMAP
000000
60c006
7f800c
600018
600030
6f0060
7180c0
40c180
00c300
00c600
60cc00
7199f0
1f3318
00660c
00c60c
018318
0303f8
06060c
0c0c06
180c06
300c06
60060c
c003f8
000000
ENDCHAR
STARTCHAR J287e
ENCODING 10366
SWIDTH 1059 0
DWIDTH 24 0
BBX 24 24 0 -2
BITMAP
000000
3fe006
3fe00c
204018
408030
008060
0180c0
010180
030300
030600
060c00
0619f0
063318
00660c
00c60c
018318
0303f8
06060c
0c0c06
180c06
300c06
60060c
c003f8
000000
ENDCHAR
STARTCHAR J2921
ENCODING 10529
SWIDTH 1059 0
DWIDTH 24 0
BBX 24 24 0 -2
BITMAP
000000
000000
000000
000000
000000
000000
000000
000000
0fe3f0
183618
301c0c
00180c
00180c
01fffc
0e1800
181800
301800
301800
301c0c
183638
0fc3e0
000000
000000
000000
ENDCHAR
STARTCHAR J2922
ENCODING 10530
SWIDTH 1059 0
DWIDTH 24 0
BBX 24 24 0 -2
BITMAP
000000
000000
000000
000380
000180
000180
000180
07ffe0
000180
00fd80
018780
030180
060180
060180
060180
060180
060180
060180
030380
018780
00fdc0
000000
000000
000000
ENDCHAR
STARTCHAR J2923
ENCODING 10531
SWIDTH 1059 0
DWIDTH 24 0
BBX 24 24 0 -2
BITMAP
000000
000000
000000
000080
007d00
018600
020b00
001180
002180
0040c0
0000c0
00fec0
0183c0
0300c0
0600c0
0600c0
0600c0
0600c0
030180
018300
00fc00
000000
000000
000000
ENDCHAR
STARTCHAR J2924
ENCODING 10532
SWIDTH 1059 0
DWIDTH 24 0
BBX 24 24 0 -2
BITMAP
000000
000000
000000
000000
00c000
03c000
00c000
0fffe0
00c000
00c7c0
00d860
00e060
00c060
00c060
00c060
00c060
00c060
00c060
00c060
00c060
03f1f8
000000
000000
000000
ENDCHAR
STARTCHAR J2925
ENCODING 10533
SWIDTH 1059 0
DWIDTH 24 0
BBX 24 24 0 -2
BITMAP
000000
000000
000000
000000
000000
000000
000000
000000
001800
007800
001800
001800
001800
001800
001800
001800
001800
001800
001800
001800
007e00
000000
000000
000000
ENDCHAR
STARTCHAR J2926
ENCODING 10534
SWIDTH 1059 0
DWIDTH 24 0
BBX 24 24 0 -2
BITMAP
000000
000000
000000
000000
0180c0
0180c0
000000
000000
0180c0
0783c0
0180c0
0180c0
0180c0
0180c0
0180c0
0180c0
0180c0
0180c0
0180c0
0180c0
07e0c0
0018c0
001980
000f00
ENDCHAR
STARTCHAR J2927
ENCODING 10535
SWIDTH 1059 0
DWIDTH 24 0
BBX 24 24 0 -2
BITMAP
000000
000000
000000
000000
000000
000000
000000
000000
030780
0f0200
030400
030800
031000
032000
037000
039800
030c00
030600
030300
030180
0fc3e0
000000
000000
000000
ENDCHAR
STARTCHAR J2928
ENCODING 10536
SWIDTH 1059 0
DWIDTH 24 0
BBX 24 24 0 -2
BITMAP
000000
000000
000000
006000
01e000
006000
006000
006000
006000
006000
006380
0066c0
006380
006000
006000
006000
006000
006000
006000
006000
01f800
000000
000000
000000
ENDCHAR
STARTCHAR J2929
ENCODING 10537
SWIDTH 1059 0
DWIDTH 24 0
BBX 24 24 0 -2
BITMAP
000000
000000
000000
001800
007840
001880
001900
001a00
001c00
001800
003800
005800
009800
011800
001800
001800
001800
001800
001800
001800
007e00
000000
000000
000000
ENDCHAR
STARTCHAR J292a
ENCODING 10538
SWIDTH 1059 0
DWIDTH 24 0
BBX 24 24 0 -2
BITMAP
000000
000000
000000
000000
000000
000000
000040
000080
00ff00
018300
030580
0604c0
0608c0
0610c0
0610c0
0620c0
0620c0
0640c0
038180
018300
01fe00
020000
040000
000000
ENDCHAR
STARTCHAR J292b
ENCODING 10539
SWIDTH 1059 0
DWIDTH 24 0
BBX 24 24 0 -2
BITMAP
000000
000000
000000
000000
000000
000000
000000
000000
0fe3f0
183618
301c0c
30180c
30180c
301ffc
301800
301800
301800
301800
301c0c
183618
0fc3f0
000000
000000
000000
ENDCHAR
STARTCHAR J292c
ENCODING 10540
SWIDTH 1059 0
DWIDTH 24 0
BBX 24 24 0 -2
BITMAP
000000
000000
000000
000000
000000
000000
007f00
00c180
0180c0
0180c0
018180
018700
018180
0180c0
018060
018060
018060
01b060
01b0c0
019f80
018000
078000
000000
000000
ENDCHAR
STARTCHAR J292d
ENCODING 10541
SWIDTH 1059 0
DWIDTH 24 0
BBX 24 24 0 -2
BITMAP
000000
000000
000000
000000
000000
000000
000000
000000
0fc000
030000
033f80
03c0c0
030060
030060
030060
0300c0
030380
03fc00
030000
030000
0fc000
000000
000000
000000
ENDCHAR
STARTCHAR J292e
ENCODING 10542
SWIDTH 1059 0
DWIDTH 24 0
BBX 24 24 0 -2
BITMAP
000000
000000
000000
001000
0010c0
001300
001c00
007000
039000
003000
00fe00
003000
003000
003000
003000
003000
003000
003000
003000
003300
001c00
000000
000000
000000
ENDCHAR
STARTCHAR J292f
ENCODING 10543
SWIDTH 1059 0
DWIDTH 24 0
BBX 24 24 0 -2
BITMAP
000000
000000
000000
000000
000000
000000
000000
000000
000000
018f00
07b180
01c180
018180
018180
018180
018180
018180
018180
018180
018180
07e180
000180
001b00
001e00
ENDCHAR
STARTCHAR J2930
ENCODING 10544
SWIDTH 1059 0
DWIDTH 24 0
BBX 24 24 0 -2
BITMAP
000000
000000
000000
000000
000000
000000
000000
000000
000000
018f00
07b180
01c180
018180
018180
018180
018180
018180
018180
018180
018180
07e7e0
000000
000000
000000
ENDCHAR
STARTCHAR J2931
ENCODING 10545
SWIDTH 1059 0
DWIDTH 24 0
BBX 24 24 0 -2
BITMAP
000000
0300c0
0c0030
180018
30000c
30000c
640186
63ffc6
610186
600186
600186
600186
600186
600186
600186
600186
600186
30010c
30000c
180018
0c0030
0300c0
000000
000000
ENDCHAR
STARTCHAR J2932
ENCODING 10546
SWIDTH 1059 0
DWIDTH 24 0
BBX 24 24 0 -2
BITMAP
000000
0300c0
0c0030
180018
30000c
30000c
600006
660006
638006
618006
618006
618006
618006
618006
618006
6180c6
60ffe6
30000c
30000c
180018
0c0030
0300c0
000000
000000
ENDCHAR
STARTCHAR J2933
ENCODING 10547
SWIDTH 1059 0
DWIDTH 24 0
BBX 24 24 0 -2
BITMAP
000000
0300c0
0c0030
180018
30000c
30000c
670186
61ffc6
618006
618006
618006
618006
618006
618006
6180c6
60ffe6
600006
30000c
30000c
180018
0c0030
0300c0
000000
000000
ENDCHAR
STARTCHAR J2934
ENCODING 10548
SWIDTH 1059 0
DWIDTH 24 0
BBX 24 24 0 -2
BITMAP
000000
0300c0
0c0030
180018
30000c
34018c
63ffc6
610186
600186
600106
600106
67ff86
618006
618006
618006
618186
60ffc6
30000c
30000c
180018
0c0030
0300c0
000000
000000
ENDCHAR
STARTCHAR J2935
ENCODING 10549
SWIDTH 1059 0
DWIDTH 24 0
BBX 24 24 0 -2
BITMAP
000000
0300c0
0c0030
180018
30000c
30000c
6e00c6
63ffe6
6300c6
6300c6
6300c6
6300c6
630086
630086
630086
63ffc6
620006
30000c
30000c
180018
0c0030
0300c0
000000
000000
ENDCHAR
STARTCHAR J2936
ENCODING 10550
SWIDTH 1059 0
DWIDTH 24 0
BBX 24 24 0 -2
BITMAP
000000
0300c0
0c0030
180018
30030c
3001cc
6600c6
6380c6
6180c6
61ffc6
6180c6
6180c6
6180c6
6180c6
6180c6
61ffc6
610086
30000c
30000c
180018
0c0030
0300c0
000000
000000
ENDCHAR
STARTCHAR J2937
ENCODING 10551
SWIDTH 1059 0
DWIDTH 24 0
BBX 24 24 0 -2
BITMAP
000000
0300c0
0c0030
180018
30380c
300e0c
600c06
600c06
600c06
601806
601c06
603306
6031c6
6060e6
60c076
618036
620006
30000c
30000c
180018
0c0030
0300c0
000000
000000
ENDCHAR
STARTCHAR J2938
ENCODING 10552
SWIDTH 1059 0
DWIDTH 24 0
BBX 24 24 0 -2
BITMAP
000000
0300c0
0c0030
180018
30300c
30180c
607e06
61c386
6300c6
660066
660066
660066
660066
660066
6300c6
61c386
607e06
30000c
30000c
180018
0c0030
0300c0
000000
000000
ENDCHAR
STARTCHAR J2939
ENCODING 10553
SWIDTH 1059 0
DWIDTH 24 0
BBX 24 24 0 -2
BITMAP
000000
0300c0
0c0030
180018
30000c
34006c
63fff6
610c06
600c06
601806
601c06
603206
603186
6060c6
60c0e6
618066
620006
30000c
30000c
180018
0c0030
0300c0
000000
000000
ENDCHAR
STARTCHAR J293a
ENCODING 10554
SWIDTH 1059 0
DWIDTH 24 0
BBX 24 24 0 -2
BITMAP
000000
0300c0
0c0030
180018
30810c
307f8c
602006
640066
63fff6
610c06
600c06
601c06
601b06
6031c6
6060e6
60c066
630006
30000c
30000c
180018
0c0030
0300c0
000000
000000
ENDCHAR
STARTCHAR J293b
ENCODING 10555
SWIDTH 1059 0
DWIDTH 24 0
BBX 24 24 0 -2
BITMAP
000000
0300c0
0c0030
180018
30000c
34018c
63ffc6
610186
600186
600186
681f86
67e186
630306
600306
600306
600606
300406
30080c
18000c
0c0018
070030
01fec0
000000
000000
ENDCHAR
STARTCHAR J293c
ENCODING 10556
SWIDTH 1059 0
DWIDTH 24 0
BBX 24 24 0 -2
BITMAP
000000
0300c0
0c0030
180018
30000c
30000c
670186
61ffc6
618006
618006
618186
61ffc6
618006
618006
618006
6180c6
60ffe6
30000c
30000c
180018
0c0030
0300c0
000000
000000
ENDCHAR
STARTCHAR J293d
ENCODING 10557
SWIDTH 1059 0
DWIDTH 24 0
BBX 24 24 0 -2
BITMAP
000000
0300c0
0c0030
180018
30000c
30000c
600006
620186
61ffc6
608006
600306
6181c6
60e186
606306
606306
646346
63ffe6
31000c
30000c
180018
0c0030
0300c0
000000
000000
ENDCHAR
STARTCHAR J293e
ENCODING 10558
SWIDTH 1059 0
DWIDTH 24 0
BBX 24 24 0 -2
BITMAP
000000
0300c0
0c0030
180018
30000c
30820c
607f06
600006
680066
67fff6
621006
601806
607e06
60c306
618186
618186
60c306
307e0c
30000c
180018
0c0030
0300c0
000000
000000
ENDCHAR
STARTCHAR J293f
ENCODING 10559
SWIDTH 1059 0
DWIDTH 24 0
BBX 24 24 0 -2
BITMAP
000000
0300c0
0c0030
180618
30038c
30018c
681986
67fd86
621986
601986
6031b6
6031fe
606186
60c186
618186
630186
6c0186
30018c
30018c
180118
0c0030
0300c0
000000
000000
ENDCHAR
STARTCHAR J2940
ENCODING 10560
SWIDTH 1059 0
DWIDTH 24 0
BBX 24 24 0 -2
BITMAP
000000
0300c0
0c0030
180618
30038c
30018c
600186
6c0186
660186
660186
6601b6
6601fe
660786
663986
67e186
638186
600186
30018c
30018c
180198
0c0130
0300c0
000000
000000
ENDCHAR
STARTCHAR J2941
ENCODING 10561
SWIDTH 1059 0
DWIDTH 24 0
BBX 24 24 0 -2
BITMAP
000000
0300c0
0c0030
180618
30038c
30018c
6c1986
67fd86
660186
660186
6601b6
6601fe
660186
660d86
67f186
638186
600186
30018c
30018c
180198
0c0130
0300c0
000000
000000
ENDCHAR
STARTCHAR J2942
ENCODING 10562
SWIDTH 1059 0
DWIDTH 24 0
BBX 24 24 0 -2
BITMAP
000000
0300c0
0c0630
180398
30018c
30198c
6ffd86
641986
601986
601186
6ff9b6
6601fe
660186
660586
661986
67e186
638186
30018c
30018c
180198
0c0130
0300c0
000000
000000
ENDCHAR
STARTCHAR J2943
ENCODING 10563
SWIDTH 1059 0
DWIDTH 24 0
BBX 24 24 0 -2
BITMAP
000000
0300c0
0c0630
180398
30018c
30018c
6c1986
67fd86
661986
661986
6619b6
6611fe
661186
661186
67f986
640186
600186
30018c
30018c
180198
0c0130
0300c0
000000
000000
ENDCHAR
STARTCHAR J2944
ENCODING 10564
SWIDTH 1059 0
DWIDTH 24 0
BBX 24 24 0 -2
BITMAP
000000
0300c0
0c0630
180398
30018c
30618c
603986
781986
6e1986
661986
67f9b6
6619fe
661986
661986
67f986
641186
600186
30018c
30018c
180198
0c0130
0300c0
000000
000000
ENDCHAR
STARTCHAR J2945
ENCODING 10565
SWIDTH 1059 0
DWIDTH 24 0
BBX 24 24 0 -2
BITMAP
000000
0300c0
0c0630
180398
30018c
31c18c
606186
606186
60c186
618186
6341b6
6621fe
6c3186
703186
600186
600186
600186
30018c
30018c
180118
0c0030
0300c0
000000
000000
ENDCHAR
STARTCHAR J2946
ENCODING 10566
SWIDTH 1059 0
DWIDTH 24 0
BBX 24 24 0 -2
BITMAP
000000
0300c0
0c0630
180398
30018c
30018c
63e186
663186
6c1986
6c1986
6c19b6
6c19fe
6c1986
663186
63e186
600186
600186
30018c
30018c
180198
0c0130
0300c0
000000
000000
ENDCHAR
STARTCHAR J2947
ENCODING 10567
SWIDTH 1059 0
DWIDTH 24 0
BBX 24 24 0 -2
BITMAP
000000
0300c0
0c0630
180398
30018c
30018c
701986
6ffd86
641986
603186
6061b6
60c1fe
61a186
631186
661986
781986
600186
30018c
30018c
180198
0c0130
0300c0
000000
000000
ENDCHAR
STARTCHAR J2948
ENCODING 10568
SWIDTH 1059 0
DWIDTH 24 0
BBX 24 24 0 -2
BITMAP
000000
0300c0
0c0630
180398
34018c
33e18c
600186
701986
6ffd86
641986
6031b6
6061fe
60e186
619186
631986
661986
680186
30018c
30018c
180198
0c0130
0300c0
000000
000000
ENDCHAR
STARTCHAR J2949
ENCODING 10569
SWIDTH 1059 0
DWIDTH 24 0
BBX 24 24 0 -2
BITMAP
000000
0300c0
0c0630
180398
30018c
30198c
6ffd86
641986
601986
61f1b6
7f31fe
686186
60c186
618186
630186
660186
680186
30018c
30018c
180198
0c0130
0300c0
000000
000000
ENDCHAR
STARTCHAR J294a
ENCODING 10570
SWIDTH 1059 0
DWIDTH 24 0
BBX 24 24 0 -2
BITMAP
000000
0300c0
0c0630
180398
30018c
30018c
6c1986
67fd86
660186
663186
67f9b6
6601fe
660186
660d86
67f186
638186
60018c
30018c
300198
180198
0c0130
0300c0
000000
000000
ENDCHAR
STARTCHAR J294b
ENCODING 10571
SWIDTH 1059 0
DWIDTH 24 0
BBX 24 24 0 -2
BITMAP
000000
0300c0
0c0630
180398
30018c
30018c
703186
6ff986
600186
647186
6231b6
6331fe
632186
614586
60f986
7f8186
680186
30018c
30018c
180198
0c0130
0300c0
000000
000000
ENDCHAR
STARTCHAR J294c
ENCODING 10572
SWIDTH 1059 0
DWIDTH 24 0
BBX 24 24 0 -2
BITMAP
000000
0300c0
0c0630
180398
34018c
33f18c
600186
701986
6ffd86
640186
60c1b6
6331fe
661986
661986
661986
633186
60c186
30018c
30018c
180198
0c0130
0300c0
000000
000000
ENDCHAR
STARTCHAR J294d
ENCODING 10573
SWIDTH 1059 0
DWIDTH 24 0
BBX 24 24 0 -2
BITMAP
000000
0300c0
0c0030
180018
30000c
30000c
600006
600006
607e06
61c306
618186
600186
603f86
60e186
618186
618186
618786
30fccc
30000c
180018
0c0030
0300c0
000000
000000
ENDCHAR
STARTCHAR J294e
ENCODING 10574
SWIDTH 1059 0
DWIDTH 24 0
BBX 24 24 0 -2
BITMAP
000000
0300c0
0c0030
18c018
31c00c
30c00c
60c006
60c006
60df06
60e186
60c0c6
60c0c6
60c0c6
60c0c6
60c0c6
60c0c6
60e186
30de0c
30000c
180018
0c0030
0300c0
000000
000000
ENDCHAR
STARTCHAR J294f
ENCODING 10575
SWIDTH 1059 0
DWIDTH 24 0
BBX 24 24 0 -2
BITMAP
000000
0300c0
0c0030
180018
30000c
30000c
600006
600006
603e06
60c386
618186
618006
618006
618006
618006
6180c6
60c386
307e0c
30000c
180018
0c0030
0300c0
000000
000000
ENDCHAR
STARTCHAR J2950
ENCODING 10576
SWIDTH 1059 0
DWIDTH 24 0
BBX 24 24 0 -2
BITMAP
000000
0300c0
0c0030
180318
30070c
30030c
600306
600306
60fb06
618706
630306
630306
630306
630306
630306
630306
618706
30fb8c
30000c
180018
0c0030
0300c0
000000
000000
ENDCHAR
STARTCHAR J2951
ENCODING 10577
SWIDTH 1059 0
DWIDTH 24 0
BBX 24 24 0 -2
BITMAP
000000
0300c0
0c0030
180018
30000c
30000c
600006
600006
60fe06
618306
630186
630186
63ff86
630006
630006
630186
618706
30fc0c
30000c
180018
0c0030
0300c0
000000
000000
ENDCHAR
STARTCHAR J2952
ENCODING 10578
SWIDTH 1059 0
DWIDTH 24 0
BBX 24 24 0 -2
BITMAP
000000
0300c0
0c0030
181e18
30330c
30300c
603006
603006
60fc06
603006
603006
603006
603006
603006
603006
603006
603006
30780c
30000c
180018
0c0030
0300c0
000000
000000
ENDCHAR
STARTCHAR J2953
ENCODING 10579
SWIDTH 1059 0
DWIDTH 24 0
BBX 24 24 0 -2
BITMAP
000000
0300c0
0c0030
180018
30000c
30000c
600186
600206
607e06
60c306
618186
618186
60c306
61fe06
630006
63ff06
61ffc6
3300cc
3300cc
19ff98
0c0030
0300c0
000000
000000
ENDCHAR
STARTCHAR J2954
ENCODING 10580
SWIDTH 1059 0
DWIDTH 24 0
BBX 24 24 0 -2
BITMAP
000000
0300c0
0c0030
18c018
31c00c
30c00c
60c006
60c006
60cf06
60f186
60c186
60c186
60c186
60c186
60c186
60c186
60c186
31e3cc
30000c
180018
0c0030
0300c0
000000
000000
ENDCHAR
STARTCHAR J2955
ENCODING 10581
SWIDTH 1059 0
DWIDTH 24 0
BBX 24 24 0 -2
BITMAP
000000
0300c0
0c0030
181818
30180c
30000c
600006
600006
601806
603806
601806
601806
601806
601806
601806
601806
601806
303c0c
30000c
180018
0c0030
0300c0
000000
000000
ENDCHAR
STARTCHAR J2956
ENCODING 10582
SWIDTH 1059 0
DWIDTH 24 0
BBX 24 24 0 -2
BITMAP
000000
0300c0
0c0030
181818
30180c
30000c
600006
600006
601806
603806
601806
601806
601806
601806
601806
601806
601806
30180c
30d80c
18d818
0c7030
0300c0
000000
000000
ENDCHAR
STARTCHAR J2957
ENCODING 10583
SWIDTH 1059 0
DWIDTH 24 0
BBX 24 24 0 -2
BITMAP
000000
0300c0
0c0030
198018
33800c
31800c
618006
618006
618786
618206
618c06
61b006
61f006
619806
618c06
618606
618306
33c3cc
30000c
180018
0c0030
0300c0
000000
000000
ENDCHAR
STARTCHAR J2958
ENCODING 10584
SWIDTH 1059 0
DWIDTH 24 0
BBX 24 24 0 -2
BITMAP
000000
0300c0
0c0030
181818
30380c
30180c
601806
601806
601806
601806
601806
601806
601806
601806
601806
601806
601806
303c0c
30000c
180018
0c0030
0300c0
000000
000000
ENDCHAR
STARTCHAR J2959
ENCODING 10585
SWIDTH 1059 0
DWIDTH 24 0
BBX 24 24 0 -2
BITMAP
000000
0300c0
0c0030
180018
30000c
30000c
600006
600006
637bc6
679cc6
6318c6
6318c6
6318c6
6318c6
6318c6
6318c6
6318c6
37bdec
30000c
180018
0c0030
0300c0
000000
000000
ENDCHAR
STARTCHAR J295a
ENCODING 10586
SWIDTH 1059 0
DWIDTH 24 0
BBX 24 24 0 -2
BITMAP
000000
0300c0
0c0030
180018
30000c
30000c
600006
600006
60cf06
61d186
60e186
60c186
60c186
60c186
60c186
60c186
60c186
31e3cc
30000c
180018
0c0030
0300c0
000000
000000
ENDCHAR
STARTCHAR J295b
ENCODING 10587
SWIDTH 1059 0
DWIDTH 24 0
BBX 24 24 0 -2
BITMAP
000000
0300c0
0c0030
180018
30000c
30000c
600006
600006
607e06
60c306
618186
618186
618186
618186
618186
618186
60c306
307e06
30000c
18000c
0c0018
030060
000000
000000
ENDCHAR
STARTCHAR J295c
ENCODING 10588
SWIDTH 1059 0
DWIDTH 24 0
BBX 24 24 0 -2
BITMAP
000000
0300c0
0c0030
180018
30000c
30000c
600006
600006
61df06
60e186
60c0c6
60c0c6
60c0c6
60c0c6
60c0c6
60c0c6
60e386
30de0c
30c00c
18c018
0de030
0200c0
000000
000000
ENDCHAR
STARTCHAR J295d
ENCODING 10589
SWIDTH 1059 0
DWIDTH 24 0
BBX 24 24 0 -2
BITMAP
000000
0300c0
0c0030
180018
30000c
30000c
600006
600006
607d86
60c386
618186
618186
618186
618186
618186
618186
60c386
307d8c
30018c
180198
0c03b0
030040
000000
000000
ENDCHAR
STARTCHAR J295e
ENCODING 10590
SWIDTH 1059 0
DWIDTH 24 0
BBX 24 24 0 -2
BITMAP
000000
0300c0
0c0030
180018
30000c
30000c
600006
600006
60c786
61d986
60e006
60c006
60c006
60c006
60c006
60c006
60c006
31e00c
30000c
180018
0c0030
0300c0
000000
000000
ENDCHAR
STARTCHAR J295f
ENCODING 10591
SWIDTH 1059 0
DWIDTH 24 0
BBX 24 24 0 -2
BITMAP
000000
0300c0
0c0030
180018
30000c
30000c
600006
600006
607f06
61c186
618086
61e006
607c06
600f06
600186
610186
618386
30fe0c
30000c
180018
0c0030
0300c0
000000
000000
ENDCHAR
STARTCHAR J2960
ENCODING 10592
SWIDTH 1059 0
DWIDTH 24 0
BBX 24 24 0 -2
BITMAP
000000
0300c0
0c0030
180018
30000c
30000c
601006
603006
603006
60fc06
603006
603006
603006
603006
603006
603006
603306
301c0c
30000c
180018
0c0030
0300c0
000000
000000
ENDCHAR
STARTCHAR J2961
ENCODING 10593
SWIDTH 1059 0
DWIDTH 24 0
BBX 24 24 0 -2
BITMAP
000000
0300c0
0c0030
180018
30000c
30000c
600006
600006
618306
638706
618306
618306
618306
618306
618306
618306
618f06
30f38c
30000c
180018
0c0030
0300c0
000000
000000
ENDCHAR
STARTCHAR J2962
ENCODING 10594
SWIDTH 1059 0
DWIDTH 24 0
BBX 24 24 0 -2
BITMAP
000000
0300c0
0c0030
180018
30000c
30000c
600006
600006
67c1c6
618086
618086
60c106
60c106
606206
606206
603406
603406
30180c
30000c
180018
0c0030
0300c0
000000
000000
ENDCHAR
STARTCHAR J2963
ENCODING 10595
SWIDTH 1059 0
DWIDTH 24 0
BBX 24 24 0 -2
BITMAP
000000
0300c0
0c0030
180018
30000c
30000c
600006
600006
6f7876
663026
663046
631846
631886
618c86
619d06
61ef06
60c606
30c60c
30000c
180018
0c0030
0300c0
000000
000000
ENDCHAR
STARTCHAR J2964
ENCODING 10596
SWIDTH 1059 0
DWIDTH 24 0
BBX 24 24 0 -2
BITMAP
000000
0300c0
0c0030
180018
30000c
30000c
600006
600006
63c1c6
60c086
606106
603206
601c06
601806
602c06
604606
608306
3383cc
30000c
180018
0c0030
0300c0
000000
000000
ENDCHAR
STARTCHAR J2965
ENCODING 10597
SWIDTH 1059 0
DWIDTH 24 0
BBX 24 24 0 -2
BITMAP
000000
0300c0
0c0030
180018
30000c
30000c
600006
600006
63c1c6
618186
60c106
606306
606206
603606
603c06
601806
601806
30100c
30300c
18e018
0cc030
0300c0
000000
000000
ENDCHAR
STARTCHAR J2966
ENCODING 10598
SWIDTH 1059 0
DWIDTH 24 0
BBX 24 24 0 -2
BITMAP
000000
0300c0
0c0030
180018
30000c
30000c
600006
600006
607f86
606186
608306
600606
600c06
601806
603006
606086
60c306
30ff0c
30000c
180018
0c0030
0300c0
000000
000000
ENDCHAR
STARTCHAR J2967
ENCODING 10599
SWIDTH 1059 0
DWIDTH 24 0
BBX 24 24 0 -2
BITMAP
000000
0300c0
0c0030
181818
30780c
30180c
601806
601806
601806
601806
601806
601806
601806
601806
601806
601806
601806
30180c
307e0c
180018
0c0030
0300c0
000000
000000
ENDCHAR
STARTCHAR J2968
ENCODING 10600
SWIDTH 1059 0
DWIDTH 24 0
BBX 24 24 0 -2
BITMAP
000000
0300c0
0c0030
187e18
30c30c
31818c
61c186
608186
600306
600606
601c06
603006
606006
60c006
618006
6180c6
618186
31ff8c
30000c
180018
0c0030
0300c0
000000
000000
ENDCHAR
STARTCHAR J2969
ENCODING 10601
SWIDTH 1059 0
DWIDTH 24 0
BBX 24 24 0 -2
BITMAP
000000
0300c0
0c0030
183c18
30c60c
31830c
618306
600306
600306
600606
603c06
600706
600186
600186
600186
600186
618186
31c30c
307c0c
180018
0c0030
0300c0
000000
000000
ENDCHAR
STARTCHAR J296a
ENCODING 10602
SWIDTH 1059 0
DWIDTH 24 0
BBX 24 24 0 -2
BITMAP
000000
0300c0
0c0030
180c18
301c0c
301c0c
602c06
604c06
604c06
608c06
608c06
610c06
610c06
620c06
67ff86
600c06
600c06
300c0c
303f0c
180018
0c0030
0300c0
000000
000000
ENDCHAR
STARTCHAR J296b
ENCODING 10603
SWIDTH 1059 0
DWIDTH 24 0
BBX 24 24 0 -2
BITMAP
000000
0300c0
0c0030
188318
30fe0c
30c00c
60c006
60c006
60c006
60de06
60e306
60c186
600186
600186
600186
600186
60c186
30c30c
303c0c
180018
0c0030
0300c0
000000
000000
ENDCHAR
STARTCHAR J296c
ENCODING 10604
SWIDTH 1059 0
DWIDTH 24 0
BBX 24 24 0 -2
BITMAP
000000
0300c0
0c0030
183e18
30630c
30c38c
60c386
60c006
60c006
60c006
60de06
60e306
60c186
60c186
60c186
60c186
60c186
30630c
301c0c
180018
0c0030
0300c0
000000
000000
ENDCHAR
STARTCHAR J296d
ENCODING 10605
SWIDTH 1059 0
DWIDTH 24 0
BBX 24 24 0 -2
BITMAP
000000
0300c0
0c0030
180018
31ff8c
31818c
610186
610306
600306
600606
600c06
600c06
601806
601806
601806
601806
601806
30180c
30180c
180018
0c0030
0300c0
000000
000000
ENDCHAR
STARTCHAR J296e
ENCODING 10606
SWIDTH 1059 0
DWIDTH 24 0
BBX 24 24 0 -2
BITMAP
000000
0300c0
0c0030
183c18
30c30c
31818c
618186
618186
60c306
607606
601c06
606606
60c306
618186
618186
618186
618186
30c30c
307e0c
180018
0c0030
0300c0
000000
000000
ENDCHAR
STARTCHAR J296f
ENCODING 10607
SWIDTH 1059 0
DWIDTH 24 0
BBX 24 24 0 -2
BITMAP
000000
0300c0
0c0030
187c18
30c60c
31830c
618306
618306
618306
618306
60c706
607b06
600306
600306
600306
608306
61c306
30c60c
307c0c
180018
0c0030
0300c0
000000
000000
ENDCHAR
STARTCHAR J2970
ENCODING 10608
SWIDTH 1059 0
DWIDTH 24 0
BBX 24 24 0 -2
BITMAP
000000
0300c0
0c0030
180018
31878c
378ccc
619866
619866
619866
619866
619866
619866
619866
619866
619866
619866
618cc6
33c78c
30000c
180018
0c0030
0300c0
000000
000000
ENDCHAR
STARTCHAR J2971
ENCODING 10609
SWIDTH 1059 0
DWIDTH 24 0
BBX 24 24 0 -2
BITMAP
000000
0300c0
0c0030
180018
31818c
33838c
618186
618186
618186
618186
618186
618186
618186
618186
618186
618186
618186
33c3cc
30000c
180018
0c0030
0300c0
000000
000000
ENDCHAR
STARTCHAR J2972
ENCODING 10610
SWIDTH 1059 0
DWIDTH 24 0
BBX 24 24 0 -2
BITMAP
000000
0300c0
0c0030
180018
3187cc
33986c
619866
618066
618066
6180c6
618186
618306
618606
618c06
619806
619826
619826
33dfec
30000c
180018
0c0030
0300c0
000000
000000
ENDCHAR
STARTCHAR J2973
ENCODING 10611
SWIDTH 1059 0
DWIDTH 24 0
BBX 24 24 0 -2
BITMAP
000000
0300c0
0c0030
180018
31878c
3398cc
619866
618066
618066
6180c6
618386
6180c6
618066
618066
61b066
61b066
6198c6
33cf8c
30000c
180018
0c0030
0300c0
000000
000000
ENDCHAR
STARTCHAR J2974
ENCODING 10612
SWIDTH 1059 0
DWIDTH 24 0
BBX 24 24 0 -2
BITMAP
000000
0300c0
0c0030
180018
31818c
33838c
618386
618586
618586
618986
618986
619186
619186
61a186
61bff6
618186
618186
33c3cc
30000c
180018
0c0030
0300c0
000000
000000
ENDCHAR
STARTCHAR J2975
ENCODING 10613
SWIDTH 1059 0
DWIDTH 24 0
BBX 24 24 0 -2
BITMAP
000000
0300c0
0c0030
180018
319fec
339fcc
619006
619006
619006
619786
6198c6
619066
618066
618066
618066
619866
6198c6
33c78c
30000c
180018
0c0030
0300c0
000000
000000
ENDCHAR
STARTCHAR J2976
ENCODING 10614
SWIDTH 1059 0
DWIDTH 24 0
BBX 24 24 0 -2
BITMAP
300000
700000
300000
300000
300000
300000
300000
300000
780000
000000
000000
000000
000000
000000
000000
000000
000000
000000
000000
000000
000000
000000
000000
000000
ENDCHAR
STARTCHAR J2977
ENCODING 10615
SWIDTH 1059 0
DWIDTH 24 0
BBX 24 24 0 -2
BITMAP
3f0000
618000
618000
030000
0e0000
180000
308000
608000
7f8000
000000
000000
000000
000000
000000
000000
000000
000000
000000
000000
000000
000000
000000
000000
000000
ENDCHAR
STARTCHAR J2978
ENCODING 10616
SWIDTH 1059 0
DWIDTH 24 0
BBX 24 24 0 -2
BITMAP
3f0000
618000
618000
070000
070000
018000
618000
618000
3f0000
000000
000000
000000
000000
000000
000000
000000
000000
000000
000000
000000
000000
000000
000000
000000
ENDCHAR
STARTCHAR J2979
ENCODING 10617
SWIDTH 1059 0
DWIDTH 24 0
BBX 24 24 0 -2
BITMAP
030000
070000
0b0000
130000
230000
430000
7fc000
030000
078000
000000
000000
000000
000000
000000
000000
000000
000000
000000
000000
000000
000000
000000
000000
000000
ENDCHAR
STARTCHAR J297a
ENCODING 10618
SWIDTH 1059 0
DWIDTH 24 0
BBX 24 24 0 -2
BITMAP
338000
7cc000
30c000
30c000
30c000
30c000
30c000
79e000
000000
000000
000000
000000
000000
000000
000000
000000
000000
000000
000000
000000
000000
000000
000000
000000
ENDCHAR
STARTCHAR J297b
ENCODING 10619
SWIDTH 1059 0
DWIDTH 24 0
BBX 24 24 0 -2
BITMAP
000000
000000
000000
000000
000000
000000
000000
000000
000000
000000
000000
000000
000000
000000
300000
700000
300000
300000
300000
300000
300000
300000
780000
000000
ENDCHAR
STARTCHAR J297c
ENCODING 10620
SWIDTH 1059 0
DWIDTH 24 0
BBX 24 24 0 -2
BITMAP
000000
000000
000000
000000
000000
000000
000000
000000
000000
000000
000000
000000
000000
000000
3f0000
618000
618000
030000
0e0000
180000
308000
608000
7f8000
000000
ENDCHAR
STARTCHAR J297d
ENCODING 10621
SWIDTH 1059 0
DWIDTH 24 0
BBX 24 24 0 -2
BITMAP
000000
000000
000000
000000
000000
000000
000000
000000
000000
000000
000000
000000
000000
000000
3f0000
618000
618000
070000
070000
018000
618000
618000
3f0000
000000
ENDCHAR
STARTCHAR J297e
ENCODING 10622
SWIDTH 1059 0
DWIDTH 24 0
BBX 24 24 0 -2
BITMAP
000000
000000
000000
000000
000000
000000
000000
000000
000000
000000
000000
000000
000000
000000
030000
070000
0b0000
130000
230000
430000
7fc000
030000
078000
000000
ENDCHAR
STARTCHAR J2a21
ENCODING 10785
SWIDTH 1059 0
DWIDTH 24 0
BBX 24 24 0 -2
BITMAP
000000
000000
000000
000000
000000
000000
003000
001800
001bc0
07ffc0
03fc00
003300
003300
00ffe0
01e630
036618
066c18
0c3818
0c3018
0cf838
07d070
0301c0
000f80
000000
ENDCHAR
STARTCHAR J2a22
ENCODING 10786
SWIDTH 1059 0
DWIDTH 24 0
BBX 24 24 0 -2
BITMAP
000000
000000
003000
001800
041870
061ff0
03ff80
01f000
003180
003180
01ffe0
03ff70
066318
0c660c
186c0c
303c0c
30380c
30300c
30700c
3fd818
1f8030
0001e0
000fc0
000000
ENDCHAR
STARTCHAR J2a23
ENCODING 10787
SWIDTH 1059 0
DWIDTH 24 0
BBX 24 24 0 -2
BITMAP
000000
000000
000000
000000
000000
000000
000000
000000
000000
180000
0c00c0
0c0060
0c0060
0c0030
0c0030
0c0018
0c0018
0c2018
0c6018
0cc018
078000
038000
018000
000000
ENDCHAR
STARTCHAR J2a24
ENCODING 10788
SWIDTH 1059 0
DWIDTH 24 0
BBX 24 24 0 -2
BITMAP
000000
000000
000000
000000
380000
1c00c0
1c0060
180030
180018
180018
18000c
18000c
18000c
18000c
18000c
18000c
0c200c
0c600c
0cc000
0f8000
070000
070000
030000
000000
ENDCHAR
STARTCHAR J2a25
ENCODING 10789
SWIDTH 1059 0
DWIDTH 24 0
BBX 24 24 0 -2
BITMAP
000000
000000
000000
000000
000000
000000
00c000
007f80
003f00
000000
000000
001fc0
19ffe0
0fe030
060018
000018
000018
000018
000030
0000e0
0001c0
001f00
007e00
000000
ENDCHAR
STARTCHAR J2a26
ENCODING 10790
SWIDTH 1059 0
DWIDTH 24 0
BBX 24 24 0 -2
BITMAP
000000
030000
018000
00ffc0
003f80
000000
000000
000000
001fc0
30fff0
1fe038
0f001c
00000c
00000c
00000c
00000c
00000c
000018
000038
000070
0003c0
001f80
00fc00
000000
ENDCHAR
STARTCHAR J2a27
ENCODING 10791
SWIDTH 1059 0
DWIDTH 24 0
BBX 24 24 0 -2
BITMAP
000000
000000
000000
000000
000000
000000
030000
018000
00fe00
007f00
000000
180300
0fff80
07fe00
000c00
001800
003c00
006e00
00c600
018600
030600
0e07f8
0c03f8
000000
ENDCHAR
STARTCHAR J2a28
ENCODING 10792
SWIDTH 1059 0
DWIDTH 24 0
BBX 24 24 0 -2
BITMAP
000000
000000
0c0000
070000
03fc00
00fe00
000000
000000
000180
003fc0
33ff80
1fce00
0c1c00
003800
007800
00ec00
01c600
038600
070600
0e0600
1c0600
3807fe
3003fe
000000
ENDCHAR
STARTCHAR J2a29
ENCODING 10793
SWIDTH 1059 0
DWIDTH 24 0
BBX 24 24 0 -2
BITMAP
000000
000000
000000
000000
000000
000000
000000
00c000
0060c0
006060
1c6e30
0ffe18
03f018
006000
007fc0
00ffe0
03e030
066030
0c6030
0c6030
0cc060
0781c0
030780
000000
ENDCHAR
STARTCHAR J2a2a
ENCODING 10794
SWIDTH 1059 0
DWIDTH 24 0
BBX 24 24 0 -2
BITMAP
000000
000000
030000
018020
00c030
00ce18
3ffe0c
1ff00c
00c07e
00c006
00cf80
00ffe0
03f078
07c018
0cc00c
18c00c
30c00c
30c00c
30c018
30c070
1f80e0
070780
000000
000000
ENDCHAR
STARTCHAR J2a2b
ENCODING 10795
SWIDTH 1059 0
DWIDTH 24 0
BBX 24 24 0 -2
BITMAP
000000
000000
00e000
007000
006000
006030
20f818
3ffc0c
1f860c
01860c
018606
030606
030606
030606
06067e
0c061e
0c0606
180c00
190c00
309c00
60f800
406000
000000
000000
ENDCHAR
STARTCHAR J2a2c
ENCODING 10796
SWIDTH 1059 0
DWIDTH 24 0
BBX 24 24 0 -2
BITMAP
000000
000008
00c0cc
006066
006036
006000
00c060
27fc30
3ffe18
198618
01860c
03060c
030606
060606
060606
0c067e
0c061e
180c06
190c00
319c00
60f800
607000
006000
000000
ENDCHAR
STARTCHAR J2a2d
ENCODING 10797
SWIDTH 1059 0
DWIDTH 24 0
BBX 24 24 0 -2
BITMAP
000000
003000
001800
000c00
000cf0
000ff0
0fff00
07fc00
00061e
0007fe
387fe0
0fff00
078300
000180
000180
2000c0
200fc0
2003e0
300060
180000
0e0000
07ffc0
01ffc0
000000
ENDCHAR
STARTCHAR J2a2e
ENCODING 10798
SWIDTH 1059 0
DWIDTH 24 0
BBX 24 24 0 -2
BITMAP
000000
00000c
006066
003036
001830
001fc0
0fff80
07fc06
000c1e
0007f8
187fe0
0ffe00
078300
000180
000180
0000c0
201fc0
2007c0
3000c0
180000
0c0000
07ff80
03ff80
000000
ENDCHAR
STARTCHAR J2a2f
ENCODING 10799
SWIDTH 1059 0
DWIDTH 24 0
BBX 24 24 0 -2
BITMAP
000000
000180
0000c0
0000e0
0001c0
000780
000e00
003800
007000
00c000
018000
030000
030000
030000
018000
00e000
007800
001c00
000f00
0003c0
0001e0
000070
000030
000000
ENDCHAR
STARTCHAR J2a30
ENCODING 10800
SWIDTH 1059 0
DWIDTH 24 0
BBX 24 24 0 -2
BITMAP
000000
00000c
000666
000336
000630
000c30
001800
003000
00e000
01c000
030000
060000
0c0000
0c0000
060000
038000
01c000
007000
003c00
000e00
000700
0003c0
0000c0
000000
ENDCHAR
STARTCHAR J2a31
ENCODING 10801
SWIDTH 1059 0
DWIDTH 24 0
BBX 24 24 0 -2
BITMAP
000000
000300
100180
1800c0
1800c0
1800c0
1800c6
18fffe
307ff8
3000c0
3000c0
3000c0
3000c0
3000c0
3100c0
3300c0
3600c0
3c00c0
3c0180
1c0300
0c0600
0c0c00
000000
000000
ENDCHAR
STARTCHAR J2a32
ENCODING 10802
SWIDTH 1059 0
DWIDTH 24 0
BBX 24 24 0 -2
BITMAP
000000
00060c
080326
1801b6
1801b0
180180
180180
1801fc
31fffe
30ff80
300180
300180
300180
300180
330180
360180
340180
3c0180
1c0180
180300
180600
081c00
003800
000000
ENDCHAR
STARTCHAR J2a33
ENCODING 10803
SWIDTH 1059 0
DWIDTH 24 0
BBX 24 24 0 -2
BITMAP
000000
000000
000000
0c0000
07ffe0
03fff0
000780
000e00
000800
000000
000000
000000
000000
000000
000000
300000
300000
180000
0c0000
07001c
03fffc
00ffe0
000000
000000
ENDCHAR
STARTCHAR J2a34
ENCODING 10804
SWIDTH 1059 0
DWIDTH 24 0
BBX 24 24 0 -2
BITMAP
000000
000004
000026
000036
0fff98
07ff98
000700
001c00
001000
000000
000000
000000
000000
000000
000000
100000
100000
180000
180000
0e000c
07fffe
01fff0
000000
000000
ENDCHAR
STARTCHAR J2a35
ENCODING 10805
SWIDTH 1059 0
DWIDTH 24 0
BBX 24 24 0 -2
BITMAP
000000
000000
001000
003800
000c00
00063c
1c0ffc
0fffc0
03f300
000180
0000c0
0000c0
000060
200060
300c30
3003f0
300078
180000
180000
0c0000
07c000
03fff0
003ff0
000000
ENDCHAR
STARTCHAR J2a36
ENCODING 10806
SWIDTH 1059 0
DWIDTH 24 0
BBX 24 24 0 -2
BITMAP
000000
000000
0060cc
003066
001826
000c00
100ff0
1ffff8
0ffe00
000300
000180
000180
000180
2000c0
2000c0
200fc0
2007c0
3000c0
300000
180000
0e0000
07ffe0
01ffe0
000000
ENDCHAR
STARTCHAR J2a37
ENCODING 10807
SWIDTH 1059 0
DWIDTH 24 0
BBX 24 24 0 -2
BITMAP
000000
060000
0f0000
030000
030000
030000
030000
030000
030000
030000
060000
060000
060000
060004
060004
06000c
06000c
060018
030030
030060
0381c0
01ff80
007e00
000000
ENDCHAR
STARTCHAR J2a38
ENCODING 10808
SWIDTH 1059 0
DWIDTH 24 0
BBX 24 24 0 -2
BITMAP
000000
060300
0f1180
0318c0
030cc0
030c00
030000
030000
030000
030000
030000
030000
030000
030002
030002
030006
03000c
030018
030030
018060
0181c0
01ff80
00fe00
000000
ENDCHAR
STARTCHAR J2a39
ENCODING 10809
SWIDTH 1059 0
DWIDTH 24 0
BBX 24 24 0 -2
BITMAP
000000
001c00
000e00
000600
000600
000600
23fffe
3ffffe
1c0600
007600
00fe00
018e00
030600
030600
030600
018e00
00fe00
007600
000600
000c00
003800
01f000
0fc000
000000
ENDCHAR
STARTCHAR J2a3a
ENCODING 10810
SWIDTH 1059 0
DWIDTH 24 0
BBX 24 24 0 -2
BITMAP
000000
001858
000c6c
000666
000620
000600
21fffc
3ffffe
1e0600
000600
00fe00
01fe00
030600
030600
030600
01fe00
00fe00
000600
000c00
001800
003000
01e000
0fc000
000000
ENDCHAR
STARTCHAR J2a3b
ENCODING 10811
SWIDTH 1059 0
DWIDTH 24 0
BBX 24 24 0 -2
BITMAP
000000
000000
000000
070180
0380c0
0180c0
0180c0
0180c0
018ffe
67fffe
3ff0c0
1980c0
0180c0
0180c0
0180c0
018ec0
0183c0
0181c0
018000
00c000
00fff8
003ff8
000000
000000
ENDCHAR
STARTCHAR J2a3c
ENCODING 10812
SWIDTH 1059 0
DWIDTH 24 0
BBX 24 24 0 -2
BITMAP
000000
000000
000064
040636
0e0336
030180
030180
030180
030180
033ffc
2ffffe
3fc180
130180
030180
030180
031d80
030f80
030300
030000
030000
03c000
01fff0
003ff0
000000
ENDCHAR
STARTCHAR J2a3d
ENCODING 10813
SWIDTH 1059 0
DWIDTH 24 0
BBX 24 24 0 -2
BITMAP
000000
000100
000780
0eff80
07f700
030e00
001c00
003800
007000
00e0fc
018ffe
03ff00
1ff000
7c6000
60c000
00c000
00c000
00c000
00c000
006000
007800
003ff0
0007f0
000000
ENDCHAR
STARTCHAR J2a3e
ENCODING 10814
SWIDTH 1059 0
DWIDTH 24 0
BBX 24 24 0 -2
BITMAP
000000
000000
000f00
0c7f00
07f618
038c4c
001866
003030
006030
00c00c
03fffc
07fff0
1c3000
786000
60c000
00c000
018000
018000
018000
01c000
00e000
007ff0
003ff0
000000
ENDCHAR
STARTCHAR J2a3f
ENCODING 10815
SWIDTH 1059 0
DWIDTH 24 0
BBX 24 24 0 -2
BITMAP
000000
018000
01c000
00e000
00c000
00c400
20fc00
3ff800
1f87fc
018ffe
030000
030000
030000
060000
060000
0c0000
0c6000
0c6000
187000
183800
381ffe
300ffe
000000
000000
ENDCHAR
STARTCHAR J2a40
ENCODING 10816
SWIDTH 1059 0
DWIDTH 24 0
BBX 24 24 0 -2
BITMAP
000000
000018
03008c
0180c6
018066
018060
21f800
3ff1e0
1f0ffc
031e1c
060000
060000
060000
0c0000
0c0000
180000
188000
18c000
306000
303000
301ffc
300ffc
300000
000000
ENDCHAR
ENDFONT
